<?xml version="1.0" encoding="utf-8"?>
<!-- Generator: Adobe Illustrator 16.0.0, SVG Export Plug-In . SVG Version: 6.00 Build 0)  -->
<!DOCTYPE svg PUBLIC "-//W3C//DTD SVG 1.1//EN" "http://www.w3.org/Graphics/SVG/1.1/DTD/svg11.dtd">
<svg version="1.1" id="Layer_1" xmlns="http://www.w3.org/2000/svg" xmlns:xlink="http://www.w3.org/1999/xlink" x="0px" y="0px"
	 width="146.896px" height="268.487px" viewBox="0 0 146.896 268.487" enable-background="new 0 0 146.896 268.487"
	 xml:space="preserve">
<g>
	<polyline fill-rule="evenodd" clip-rule="evenodd" fill="#33CB98" points="60.176,17.303 59.457,18.503 59.216,19.943 
		58.736,21.383 58.736,22.823 59.216,26.423 59.457,28.343 60.176,30.503 60.176,31.223 59.937,31.703 59.696,31.703 59.216,31.463 
		58.736,30.983 58.017,30.023 57.296,28.823 56.097,27.143 55.137,27.623 54.417,28.103 52.977,29.303 52.736,30.023 52.497,30.983 
		52.736,32.663 53.937,37.463 55.856,41.783 58.497,46.103 61.617,49.703 61.376,50.423 60.896,50.903 60.656,51.143 60.176,50.903 
		59.457,50.423 58.977,49.463 58.256,48.263 57.296,46.583 55.376,48.263 54.656,48.983 54.176,49.943 53.457,51.863 53.457,52.823 
		53.696,53.783 56.577,58.343 59.216,63.143 61.617,67.943 63.776,72.983 65.937,78.503 67.617,83.783 69.296,89.543 70.736,95.303 
		71.696,95.303 71.696,90.023 71.696,84.743 72.176,79.463 72.896,74.183 73.856,68.903 75.296,63.383 76.736,58.103 78.656,52.583 
		79.376,51.863 79.617,51.143 79.617,50.903 79.137,50.663 78.417,50.903 77.216,51.143 75.776,51.863 73.856,52.583 72.896,52.103 
		72.417,51.143 72.417,49.703 73.137,48.023 74.336,46.103 76.017,43.703 78.417,40.823 81.057,37.943 82.017,35.063 82.256,32.423 
		82.017,29.783 81.057,26.903 70.497,30.983 70.017,29.303 69.776,27.143 70.017,25.223 70.497,23.303 71.696,21.383 73.137,19.223 
		75.057,17.303 77.457,15.383 77.696,13.703 77.937,12.503 77.696,11.303 77.457,10.103 76.497,9.383 75.537,8.663 74.097,7.943 
		72.417,7.703 69.537,10.583 66.417,12.983 63.296,15.383 60.176,17.303 	"/>
	<line fill="none" stroke="#0D6861" stroke-width="0.96" stroke-miterlimit="10" x1="60.176" y1="30.023" x2="60.176" y2="31.703"/>
	<polyline fill="#0D6861" points="59.696,30.743 60.656,30.743 60.656,31.703 60.417,32.183 59.457,32.183 59.457,31.223 	"/>
	<line fill="none" stroke="#0D6861" stroke-width="0.96" stroke-miterlimit="10" x1="59.216" y1="31.703" x2="60.417" y2="31.703"/>
	<polyline fill="#0D6861" points="58.736,30.983 59.696,30.983 60.176,31.223 60.176,32.183 59.216,32.183 58.736,31.943 	"/>
	<polyline fill="#0D6861" points="58.256,30.503 59.216,30.503 59.696,30.983 59.696,31.943 58.736,31.943 58.256,31.463 	"/>
	<polyline fill="#0D6861" points="57.537,29.543 58.497,29.543 59.216,30.503 59.216,31.463 58.256,31.463 57.537,30.503 	"/>
	<polyline fill="#0D6861" points="56.816,28.343 57.776,28.343 58.497,29.543 58.497,30.503 57.537,30.503 56.816,29.303 	"/>
	<polyline fill="#0D6861" points="55.617,26.663 56.577,26.663 57.776,28.343 57.776,29.303 56.816,29.303 55.617,27.623 	"/>
	<polyline fill="#0D6861" points="55.617,26.663 56.577,26.663 56.577,27.623 55.617,28.103 54.656,28.103 54.656,27.143 	"/>
	<polyline fill="#0D6861" points="54.656,27.143 55.617,27.143 55.617,28.103 54.896,28.583 53.937,28.583 53.937,27.623 	"/>
	<polyline fill="#0D6861" points="53.937,27.623 54.896,27.623 54.896,28.583 53.457,29.783 52.497,29.783 52.497,28.823 	"/>
	<polyline fill="#0D6861" points="52.497,28.823 53.457,28.823 53.457,29.783 53.216,30.503 52.256,30.503 52.256,29.543 	"/>
	<polyline fill="#0D6861" points="52.256,29.543 53.216,29.543 53.216,30.503 52.977,31.463 52.017,31.463 52.017,30.503 	"/>
	<polyline fill="#0D6861" points="52.017,30.503 52.977,30.503 53.216,32.183 53.216,33.143 52.256,33.143 52.017,31.463 	"/>
	<polyline fill="#0D6861" points="52.256,32.183 53.216,32.183 54.417,36.983 54.417,37.943 53.457,37.943 52.256,33.143 	"/>
	<polyline fill="#0D6861" points="53.457,36.983 54.417,36.983 56.336,41.303 56.336,42.263 55.376,42.263 53.457,37.943 	"/>
	<polyline fill="#0D6861" points="55.376,41.303 56.336,41.303 58.977,45.623 58.977,46.583 58.017,46.583 55.376,42.263 	"/>
	<polyline fill="#0D6861" points="58.017,45.623 58.977,45.623 62.097,49.223 62.097,50.183 61.137,50.183 58.017,46.583 	"/>
	<polyline fill="#0D6861" points="61.137,49.223 62.097,49.223 62.097,50.183 61.856,50.903 60.896,50.903 60.896,49.943 	"/>
	<polyline fill="#0D6861" points="60.896,49.943 61.856,49.943 61.856,50.903 61.376,51.383 60.417,51.383 60.417,50.423 	"/>
	<polyline fill="#0D6861" points="60.417,50.423 61.376,50.423 61.376,51.383 61.137,51.623 60.176,51.623 60.176,50.663 	"/>
	<polyline fill="#0D6861" points="59.696,50.423 60.656,50.423 61.137,50.663 61.137,51.623 60.176,51.623 59.696,51.383 	"/>
	<polyline fill="#0D6861" points="58.977,49.943 59.937,49.943 60.656,50.423 60.656,51.383 59.696,51.383 58.977,50.903 	"/>
	<polyline fill="#0D6861" points="58.497,48.983 59.457,48.983 59.937,49.943 59.937,50.903 58.977,50.903 58.497,49.943 	"/>
	<polyline fill="#0D6861" points="57.776,47.783 58.736,47.783 59.457,48.983 59.457,49.943 58.497,49.943 57.776,48.743 	"/>
	<polyline fill="#0D6861" points="56.816,46.103 57.776,46.103 58.736,47.783 58.736,48.743 57.776,48.743 56.816,47.063 	"/>
	<polyline fill="#0D6861" points="56.816,46.103 57.776,46.103 57.776,47.063 55.856,48.743 54.896,48.743 54.896,47.783 	"/>
	<polyline fill="#0D6861" points="54.896,47.783 55.856,47.783 55.856,48.743 55.137,49.463 54.176,49.463 54.176,48.503 	"/>
	<polyline fill="#0D6861" points="54.176,48.503 55.137,48.503 55.137,49.463 54.656,50.423 53.696,50.423 53.696,49.463 	"/>
	<polyline fill="#0D6861" points="53.696,49.463 54.656,49.463 54.656,50.423 53.937,52.343 52.977,52.343 52.977,51.383 	"/>
	<line fill="none" stroke="#0D6861" stroke-width="0.96" stroke-miterlimit="10" x1="53.457" y1="51.383" x2="53.457" y2="53.303"/>
	<polyline fill="#0D6861" points="52.977,52.343 53.937,52.343 54.176,53.303 54.176,54.263 53.216,54.263 52.977,53.303 	"/>
	<polyline fill="#0D6861" points="53.216,53.303 54.176,53.303 57.057,57.863 57.057,58.823 56.097,58.823 53.216,54.263 	"/>
	<polyline fill="#0D6861" points="56.097,57.863 57.057,57.863 59.696,62.663 59.696,63.623 58.736,63.623 56.097,58.823 	"/>
	<polyline fill="#0D6861" points="58.736,62.663 59.696,62.663 62.097,67.463 62.097,68.423 61.137,68.423 58.736,63.623 	"/>
	<polyline fill="#0D6861" points="61.137,67.463 62.097,67.463 64.256,72.503 64.256,73.463 63.296,73.463 61.137,68.423 	"/>
	<polyline fill="#0D6861" points="63.296,72.503 64.256,72.503 66.417,78.023 66.417,78.983 65.457,78.983 63.296,73.463 	"/>
	<polyline fill="#0D6861" points="65.457,78.023 66.417,78.023 68.097,83.303 68.097,84.263 67.137,84.263 65.457,78.983 	"/>
	<polyline fill="#0D6861" points="67.137,83.303 68.097,83.303 69.776,89.063 69.776,90.023 68.816,90.023 67.137,84.263 	"/>
	<polyline fill="#0D6861" points="68.816,89.063 69.776,89.063 71.216,94.823 71.216,95.783 70.256,95.783 68.816,90.023 	"/>
	<line fill="none" stroke="#0D6861" stroke-width="0.96" stroke-miterlimit="10" x1="70.256" y1="95.303" x2="72.176" y2="95.303"/>
	<line fill="none" stroke="#0D6861" stroke-width="0.96" stroke-miterlimit="10" x1="71.696" y1="89.543" x2="71.696" y2="95.783"/>
	<line fill="none" stroke="#0D6861" stroke-width="0.96" stroke-miterlimit="10" x1="71.696" y1="84.263" x2="71.696" y2="90.503"/>
	<polyline fill="#0D6861" points="71.696,78.983 72.656,78.983 72.656,79.943 72.176,85.223 71.216,85.223 71.216,84.263 	"/>
	<polyline fill="#0D6861" points="72.417,73.703 73.376,73.703 73.376,74.663 72.656,79.943 71.696,79.943 71.696,78.983 	"/>
	<polyline fill="#0D6861" points="73.376,68.423 74.336,68.423 74.336,69.383 73.376,74.663 72.417,74.663 72.417,73.703 	"/>
	<polyline fill="#0D6861" points="74.816,62.903 75.776,62.903 75.776,63.863 74.336,69.383 73.376,69.383 73.376,68.423 	"/>
	<polyline fill="#0D6861" points="76.256,57.623 77.216,57.623 77.216,58.583 75.776,63.863 74.816,63.863 74.816,62.903 	"/>
	<polyline fill="#0D6861" points="78.176,52.103 79.137,52.103 79.137,53.063 77.216,58.583 76.256,58.583 76.256,57.623 	"/>
	<polyline fill="#0D6861" points="78.896,51.383 79.856,51.383 79.856,52.343 79.137,53.063 78.176,53.063 78.176,52.103 	"/>
	<polyline fill="#0D6861" points="79.137,50.663 80.097,50.663 80.097,51.623 79.856,52.343 78.896,52.343 78.896,51.383 	"/>
	<line fill="none" stroke="#0D6861" stroke-width="0.96" stroke-miterlimit="10" x1="79.617" y1="50.423" x2="79.617" y2="51.623"/>
	<polyline fill="#0D6861" points="78.656,50.183 79.617,50.183 80.097,50.423 80.097,51.383 79.137,51.383 78.656,51.143 	"/>
	<polyline fill="#0D6861" points="78.656,50.183 79.617,50.183 79.617,51.143 78.896,51.383 77.937,51.383 77.937,50.423 	"/>
	<polyline fill="#0D6861" points="77.937,50.423 78.896,50.423 78.896,51.383 77.696,51.623 76.736,51.623 76.736,50.663 	"/>
	<polyline fill="#0D6861" points="76.736,50.663 77.696,50.663 77.696,51.623 76.256,52.343 75.296,52.343 75.296,51.383 	"/>
	<polyline fill="#0D6861" points="75.296,51.383 76.256,51.383 76.256,52.343 74.336,53.063 73.376,53.063 73.376,52.103 	"/>
	<polyline fill="#0D6861" points="72.417,51.623 73.376,51.623 74.336,52.103 74.336,53.063 73.376,53.063 72.417,52.583 	"/>
	<polyline fill="#0D6861" points="71.937,50.663 72.896,50.663 73.376,51.623 73.376,52.583 72.417,52.583 71.937,51.623 	"/>
	<line fill="none" stroke="#0D6861" stroke-width="0.96" stroke-miterlimit="10" x1="72.417" y1="49.223" x2="72.417" y2="51.623"/>
	<polyline fill="#0D6861" points="72.656,47.543 73.617,47.543 73.617,48.503 72.896,50.183 71.937,50.183 71.937,49.223 	"/>
	<polyline fill="#0D6861" points="73.856,45.623 74.816,45.623 74.816,46.583 73.617,48.503 72.656,48.503 72.656,47.543 	"/>
	<polyline fill="#0D6861" points="75.537,43.223 76.497,43.223 76.497,44.183 74.816,46.583 73.856,46.583 73.856,45.623 	"/>
	<polyline fill="#0D6861" points="77.937,40.343 78.896,40.343 78.896,41.303 76.497,44.183 75.537,44.183 75.537,43.223 	"/>
	<polyline fill="#0D6861" points="80.577,37.463 81.537,37.463 81.537,38.423 78.896,41.303 77.937,41.303 77.937,40.343 	"/>
	<polyline fill="#0D6861" points="81.537,34.583 82.497,34.583 82.497,35.543 81.537,38.423 80.577,38.423 80.577,37.463 	"/>
	<polyline fill="#0D6861" points="81.776,31.943 82.736,31.943 82.736,32.903 82.497,35.543 81.537,35.543 81.537,34.583 	"/>
	<polyline fill="#0D6861" points="81.537,29.303 82.497,29.303 82.736,31.943 82.736,32.903 81.776,32.903 81.537,30.263 	"/>
	<polyline fill="#0D6861" points="80.577,26.423 81.537,26.423 82.497,29.303 82.497,30.263 81.537,30.263 80.577,27.383 	"/>
	<polyline fill="#0D6861" points="80.577,26.423 81.537,26.423 81.537,27.383 70.977,31.463 70.017,31.463 70.017,30.503 	"/>
	<polyline fill="#0D6861" points="69.537,28.823 70.497,28.823 70.977,30.503 70.977,31.463 70.017,31.463 69.537,29.783 	"/>
	<polyline fill="#0D6861" points="69.296,26.663 70.256,26.663 70.497,28.823 70.497,29.783 69.537,29.783 69.296,27.623 	"/>
	<polyline fill="#0D6861" points="69.537,24.743 70.497,24.743 70.497,25.703 70.256,27.623 69.296,27.623 69.296,26.663 	"/>
	<polyline fill="#0D6861" points="70.017,22.823 70.977,22.823 70.977,23.783 70.497,25.703 69.537,25.703 69.537,24.743 	"/>
	<polyline fill="#0D6861" points="71.216,20.903 72.176,20.903 72.176,21.863 70.977,23.783 70.017,23.783 70.017,22.823 	"/>
	<polyline fill="#0D6861" points="72.656,18.743 73.617,18.743 73.617,19.703 72.176,21.863 71.216,21.863 71.216,20.903 	"/>
	<polyline fill="#0D6861" points="74.577,16.823 75.537,16.823 75.537,17.783 73.617,19.703 72.656,19.703 72.656,18.743 	"/>
	<polyline fill="#0D6861" points="76.977,14.903 77.937,14.903 77.937,15.863 75.537,17.783 74.577,17.783 74.577,16.823 	"/>
	<polyline fill="#0D6861" points="77.216,13.223 78.176,13.223 78.176,14.183 77.937,15.863 76.977,15.863 76.977,14.903 	"/>
	<polyline fill="#0D6861" points="77.457,12.023 78.417,12.023 78.417,12.983 78.176,14.183 77.216,14.183 77.216,13.223 	"/>
	<polyline fill="#0D6861" points="77.216,10.823 78.176,10.823 78.417,12.023 78.417,12.983 77.457,12.983 77.216,11.783 	"/>
	<polyline fill="#0D6861" points="76.977,9.623 77.937,9.623 78.176,10.823 78.176,11.783 77.216,11.783 76.977,10.583 	"/>
	<polyline fill="#0D6861" points="76.017,8.903 76.977,8.903 77.937,9.623 77.937,10.583 76.977,10.583 76.017,9.863 	"/>
	<polyline fill="#0D6861" points="75.057,8.183 76.017,8.183 76.977,8.903 76.977,9.863 76.017,9.863 75.057,9.143 	"/>
	<polyline fill="#0D6861" points="73.617,7.463 74.577,7.463 76.017,8.183 76.017,9.143 75.057,9.143 73.617,8.423 	"/>
	<polyline fill="#0D6861" points="71.937,7.223 72.896,7.223 74.577,7.463 74.577,8.423 73.617,8.423 71.937,8.183 	"/>
	<polyline fill="#0D6861" points="71.937,7.223 72.896,7.223 72.896,8.183 70.017,11.063 69.057,11.063 69.057,10.103 	"/>
	<polyline fill="#0D6861" points="69.057,10.103 70.017,10.103 70.017,11.063 66.896,13.463 65.937,13.463 65.937,12.503 	"/>
	<polyline fill="#0D6861" points="65.937,12.503 66.896,12.503 66.896,13.463 63.776,15.863 62.816,15.863 62.816,14.903 	"/>
	<polyline fill="#0D6861" points="62.816,14.903 63.776,14.903 63.776,15.863 60.656,17.783 59.696,17.783 59.696,16.823 	"/>
	<polyline fill="#0D6861" points="59.696,16.823 60.656,16.823 60.656,17.783 59.937,18.983 58.977,18.983 58.977,18.023 	"/>
	<polyline fill="#0D6861" points="58.977,18.023 59.937,18.023 59.937,18.983 59.696,20.423 58.736,20.423 58.736,19.463 	"/>
	<polyline fill="#0D6861" points="58.736,19.463 59.696,19.463 59.696,20.423 59.216,21.863 58.256,21.863 58.256,20.903 	"/>
	<line fill="none" stroke="#0D6861" stroke-width="0.96" stroke-miterlimit="10" x1="58.736" y1="20.903" x2="58.736" y2="23.303"/>
	<polyline fill="#0D6861" points="58.256,22.343 59.216,22.343 59.696,25.943 59.696,26.903 58.736,26.903 58.256,23.303 	"/>
	<polyline fill="#0D6861" points="58.736,25.943 59.696,25.943 59.937,27.863 59.937,28.823 58.977,28.823 58.736,26.903 	"/>
	<polyline fill="#0D6861" points="58.977,27.863 59.937,27.863 60.656,30.023 60.656,30.983 59.696,30.983 58.977,28.823 	"/>
	<polyline fill-rule="evenodd" clip-rule="evenodd" fill="#33CB98" points="71.457,87.863 71.696,95.303 72.176,90.983 
		73.617,86.663 75.776,82.343 78.896,78.023 81.057,77.303 82.977,76.583 84.656,76.343 86.336,76.103 87.776,76.343 88.977,76.583 
		90.176,77.303 90.896,78.023 91.617,78.743 92.097,78.743 92.577,78.503 93.057,78.023 93.537,77.063 94.017,75.623 94.256,73.943 
		94.497,71.783 92.097,71.543 91.137,71.303 90.176,70.823 89.457,70.343 88.977,69.623 88.497,68.663 88.256,67.703 88.977,65.783 
		90.176,64.343 91.376,63.143 93.057,62.183 96.417,62.663 99.776,62.423 103.137,61.943 106.497,60.983 107.696,59.543 
		108.417,58.343 108.656,57.143 108.896,56.183 108.656,55.463 108.417,54.983 107.696,54.743 106.497,54.503 104.816,55.463 
		103.376,55.943 102.176,56.423 101.216,56.423 100.497,56.423 100.017,55.943 99.776,55.463 99.776,54.503 102.417,51.143 
		104.816,48.263 107.457,45.863 110.097,43.943 111.537,42.983 112.736,42.023 113.457,41.303 114.176,40.103 114.417,39.143 
		114.656,38.183 114.417,37.223 113.937,36.263 113.457,35.303 112.736,34.823 112.017,34.343 111.296,34.103 110.336,33.863 
		109.137,34.103 107.937,34.343 106.497,34.583 106.017,36.263 105.537,37.223 105.057,37.943 104.336,37.703 103.617,37.703 
		102.656,37.943 101.696,38.663 100.497,39.623 98.336,42.263 96.656,44.423 94.017,44.663 91.617,45.383 88.977,46.583 
		86.336,48.263 86.577,50.183 86.577,52.343 86.336,54.263 85.856,56.183 84.896,58.103 83.937,60.023 82.497,61.943 81.057,63.863 
		80.097,65.063 79.856,66.023 80.097,66.503 81.057,66.743 81.057,67.703 81.057,68.663 80.816,69.863 80.097,70.823 79.376,72.263 
		78.417,73.463 77.216,74.903 75.537,76.103 73.856,79.223 72.656,82.103 71.937,84.983 71.457,87.863 	"/>
	<polyline fill="#0D6861" points="71.457,84.503 72.417,84.503 72.417,85.463 71.937,88.343 70.977,88.343 70.977,87.383 	"/>
	<polyline fill="#0D6861" points="72.176,81.623 73.137,81.623 73.137,82.583 72.417,85.463 71.457,85.463 71.457,84.503 	"/>
	<polyline fill="#0D6861" points="73.376,78.743 74.336,78.743 74.336,79.703 73.137,82.583 72.176,82.583 72.176,81.623 	"/>
	<polyline fill="#0D6861" points="75.057,75.623 76.017,75.623 76.017,76.583 74.336,79.703 73.376,79.703 73.376,78.743 	"/>
	<polyline fill="#0D6861" points="76.736,74.423 77.696,74.423 77.696,75.383 76.017,76.583 75.057,76.583 75.057,75.623 	"/>
	<polyline fill="#0D6861" points="77.937,72.983 78.896,72.983 78.896,73.943 77.696,75.383 76.736,75.383 76.736,74.423 	"/>
	<polyline fill="#0D6861" points="78.896,71.783 79.856,71.783 79.856,72.743 78.896,73.943 77.937,73.943 77.937,72.983 	"/>
	<polyline fill="#0D6861" points="79.617,70.343 80.577,70.343 80.577,71.303 79.856,72.743 78.896,72.743 78.896,71.783 	"/>
	<polyline fill="#0D6861" points="80.336,69.383 81.296,69.383 81.296,70.343 80.577,71.303 79.617,71.303 79.617,70.343 	"/>
	<polyline fill="#0D6861" points="80.577,68.183 81.537,68.183 81.537,69.143 81.296,70.343 80.336,70.343 80.336,69.383 	"/>
	<line fill="none" stroke="#0D6861" stroke-width="0.96" stroke-miterlimit="10" x1="81.057" y1="67.223" x2="81.057" y2="69.143"/>
	<line fill="none" stroke="#0D6861" stroke-width="0.96" stroke-miterlimit="10" x1="81.057" y1="66.263" x2="81.057" y2="68.183"/>
	<polyline fill="#0D6861" points="79.617,66.023 80.577,66.023 81.537,66.263 81.537,67.223 80.577,67.223 79.617,66.983 	"/>
	<polyline fill="#0D6861" points="79.376,65.543 80.336,65.543 80.577,66.023 80.577,66.983 79.617,66.983 79.376,66.503 	"/>
	<polyline fill="#0D6861" points="79.617,64.583 80.577,64.583 80.577,65.543 80.336,66.503 79.376,66.503 79.376,65.543 	"/>
	<polyline fill="#0D6861" points="80.577,63.383 81.537,63.383 81.537,64.343 80.577,65.543 79.617,65.543 79.617,64.583 	"/>
	<polyline fill="#0D6861" points="82.017,61.463 82.977,61.463 82.977,62.423 81.537,64.343 80.577,64.343 80.577,63.383 	"/>
	<polyline fill="#0D6861" points="83.457,59.543 84.417,59.543 84.417,60.503 82.977,62.423 82.017,62.423 82.017,61.463 	"/>
	<polyline fill="#0D6861" points="84.417,57.623 85.376,57.623 85.376,58.583 84.417,60.503 83.457,60.503 83.457,59.543 	"/>
	<polyline fill="#0D6861" points="85.376,55.703 86.336,55.703 86.336,56.663 85.376,58.583 84.417,58.583 84.417,57.623 	"/>
	<polyline fill="#0D6861" points="85.856,53.783 86.816,53.783 86.816,54.743 86.336,56.663 85.376,56.663 85.376,55.703 	"/>
	<polyline fill="#0D6861" points="86.097,51.863 87.057,51.863 87.057,52.823 86.816,54.743 85.856,54.743 85.856,53.783 	"/>
	<line fill="none" stroke="#0D6861" stroke-width="0.96" stroke-miterlimit="10" x1="86.577" y1="49.703" x2="86.577" y2="52.823"/>
	<polyline fill="#0D6861" points="85.856,47.783 86.816,47.783 87.057,49.703 87.057,50.663 86.097,50.663 85.856,48.743 	"/>
	<polyline fill="#0D6861" points="88.497,46.103 89.457,46.103 89.457,47.063 86.816,48.743 85.856,48.743 85.856,47.783 	"/>
	<polyline fill="#0D6861" points="91.137,44.903 92.097,44.903 92.097,45.863 89.457,47.063 88.497,47.063 88.497,46.103 	"/>
	<polyline fill="#0D6861" points="93.537,44.183 94.497,44.183 94.497,45.143 92.097,45.863 91.137,45.863 91.137,44.903 	"/>
	<polyline fill="#0D6861" points="96.176,43.943 97.137,43.943 97.137,44.903 94.497,45.143 93.537,45.143 93.537,44.183 	"/>
	<polyline fill="#0D6861" points="97.856,41.783 98.816,41.783 98.816,42.743 97.137,44.903 96.176,44.903 96.176,43.943 	"/>
	<polyline fill="#0D6861" points="100.017,39.143 100.977,39.143 100.977,40.103 98.816,42.743 97.856,42.743 97.856,41.783 	"/>
	<polyline fill="#0D6861" points="101.216,38.183 102.176,38.183 102.176,39.143 100.977,40.103 100.017,40.103 100.017,39.143 	"/>
	<polyline fill="#0D6861" points="102.176,37.463 103.137,37.463 103.137,38.423 102.176,39.143 101.216,39.143 101.216,38.183 	"/>
	<polyline fill="#0D6861" points="103.137,37.223 104.097,37.223 104.097,38.183 103.137,38.423 102.176,38.423 102.176,37.463 	"/>
	
		<line fill="none" stroke="#0D6861" stroke-width="0.96" stroke-miterlimit="10" x1="103.137" y1="37.703" x2="104.816" y2="37.703"/>
	<polyline fill="#0D6861" points="103.856,37.223 104.816,37.223 105.537,37.463 105.537,38.423 104.577,38.423 103.856,38.183 	"/>
	<polyline fill="#0D6861" points="105.057,36.743 106.017,36.743 106.017,37.703 105.537,38.423 104.577,38.423 104.577,37.463 	"/>
	<polyline fill="#0D6861" points="105.537,35.783 106.497,35.783 106.497,36.743 106.017,37.703 105.057,37.703 105.057,36.743 	"/>
	<polyline fill="#0D6861" points="106.017,34.103 106.977,34.103 106.977,35.063 106.497,36.743 105.537,36.743 105.537,35.783 	"/>
	<polyline fill="#0D6861" points="107.457,33.863 108.417,33.863 108.417,34.823 106.977,35.063 106.017,35.063 106.017,34.103 	"/>
	<polyline fill="#0D6861" points="108.656,33.623 109.617,33.623 109.617,34.583 108.417,34.823 107.457,34.823 107.457,33.863 	"/>
	<polyline fill="#0D6861" points="109.856,33.383 110.816,33.383 110.816,34.343 109.617,34.583 108.656,34.583 108.656,33.623 	"/>
	<polyline fill="#0D6861" points="109.856,33.383 110.816,33.383 111.776,33.623 111.776,34.583 110.816,34.583 109.856,34.343 	"/>
	<polyline fill="#0D6861" points="110.816,33.623 111.776,33.623 112.497,33.863 112.497,34.823 111.537,34.823 110.816,34.583 	"/>
	<polyline fill="#0D6861" points="111.537,33.863 112.497,33.863 113.216,34.343 113.216,35.303 112.256,35.303 111.537,34.823 	"/>
	<polyline fill="#0D6861" points="112.256,34.343 113.216,34.343 113.937,34.823 113.937,35.783 112.977,35.783 112.256,35.303 	"/>
	<polyline fill="#0D6861" points="112.977,34.823 113.937,34.823 114.417,35.783 114.417,36.743 113.457,36.743 112.977,35.783 	"/>
	<polyline fill="#0D6861" points="113.457,35.783 114.417,35.783 114.896,36.743 114.896,37.703 113.937,37.703 113.457,36.743 	"/>
	<polyline fill="#0D6861" points="113.937,36.743 114.896,36.743 115.137,37.703 115.137,38.663 114.176,38.663 113.937,37.703 	"/>
	<polyline fill="#0D6861" points="114.176,37.703 115.137,37.703 115.137,38.663 114.896,39.623 113.937,39.623 113.937,38.663 	"/>
	<polyline fill="#0D6861" points="113.937,38.663 114.896,38.663 114.896,39.623 114.656,40.583 113.696,40.583 113.696,39.623 	"/>
	<polyline fill="#0D6861" points="113.696,39.623 114.656,39.623 114.656,40.583 113.937,41.783 112.977,41.783 112.977,40.823 	"/>
	<polyline fill="#0D6861" points="112.977,40.823 113.937,40.823 113.937,41.783 113.216,42.503 112.256,42.503 112.256,41.543 	"/>
	<polyline fill="#0D6861" points="112.256,41.543 113.216,41.543 113.216,42.503 112.017,43.463 111.057,43.463 111.057,42.503 	"/>
	<polyline fill="#0D6861" points="111.057,42.503 112.017,42.503 112.017,43.463 110.577,44.423 109.617,44.423 109.617,43.463 	"/>
	<polyline fill="#0D6861" points="109.617,43.463 110.577,43.463 110.577,44.423 107.937,46.343 106.977,46.343 106.977,45.383 	"/>
	<polyline fill="#0D6861" points="106.977,45.383 107.937,45.383 107.937,46.343 105.296,48.743 104.336,48.743 104.336,47.783 	"/>
	<polyline fill="#0D6861" points="104.336,47.783 105.296,47.783 105.296,48.743 102.896,51.623 101.937,51.623 101.937,50.663 	"/>
	<polyline fill="#0D6861" points="101.937,50.663 102.896,50.663 102.896,51.623 100.256,54.983 99.296,54.983 99.296,54.023 	"/>
	<line fill="none" stroke="#0D6861" stroke-width="0.96" stroke-miterlimit="10" x1="99.776" y1="54.023" x2="99.776" y2="55.943"/>
	<polyline fill="#0D6861" points="99.296,54.983 100.256,54.983 100.497,55.463 100.497,56.423 99.537,56.423 99.296,55.943 	"/>
	<polyline fill="#0D6861" points="99.537,55.463 100.497,55.463 100.977,55.943 100.977,56.903 100.017,56.903 99.537,56.423 	"/>
	
		<line fill="none" stroke="#0D6861" stroke-width="0.96" stroke-miterlimit="10" x1="100.017" y1="56.423" x2="101.696" y2="56.423"/>
	
		<line fill="none" stroke="#0D6861" stroke-width="0.96" stroke-miterlimit="10" x1="100.736" y1="56.423" x2="102.656" y2="56.423"/>
	<polyline fill="#0D6861" points="102.896,55.463 103.856,55.463 103.856,56.423 102.656,56.903 101.696,56.903 101.696,55.943 	"/>
	<polyline fill="#0D6861" points="104.336,54.983 105.296,54.983 105.296,55.943 103.856,56.423 102.896,56.423 102.896,55.463 	"/>
	<polyline fill="#0D6861" points="106.017,54.023 106.977,54.023 106.977,54.983 105.296,55.943 104.336,55.943 104.336,54.983 	"/>
	<polyline fill="#0D6861" points="106.017,54.023 106.977,54.023 108.176,54.263 108.176,55.223 107.216,55.223 106.017,54.983 	"/>
	<polyline fill="#0D6861" points="107.216,54.263 108.176,54.263 108.896,54.503 108.896,55.463 107.937,55.463 107.216,55.223 	"/>
	<polyline fill="#0D6861" points="107.937,54.503 108.896,54.503 109.137,54.983 109.137,55.943 108.176,55.943 107.937,55.463 	"/>
	<polyline fill="#0D6861" points="108.176,54.983 109.137,54.983 109.376,55.703 109.376,56.663 108.417,56.663 108.176,55.943 	"/>
	<polyline fill="#0D6861" points="108.417,55.703 109.376,55.703 109.376,56.663 109.137,57.623 108.176,57.623 108.176,56.663 	"/>
	<polyline fill="#0D6861" points="108.176,56.663 109.137,56.663 109.137,57.623 108.896,58.823 107.937,58.823 107.937,57.863 	"/>
	<polyline fill="#0D6861" points="107.937,57.863 108.896,57.863 108.896,58.823 108.176,60.023 107.216,60.023 107.216,59.063 	"/>
	<polyline fill="#0D6861" points="107.216,59.063 108.176,59.063 108.176,60.023 106.977,61.463 106.017,61.463 106.017,60.503 	"/>
	<polyline fill="#0D6861" points="106.017,60.503 106.977,60.503 106.977,61.463 103.617,62.423 102.656,62.423 102.656,61.463 	"/>
	<polyline fill="#0D6861" points="102.656,61.463 103.617,61.463 103.617,62.423 100.256,62.903 99.296,62.903 99.296,61.943 	"/>
	<polyline fill="#0D6861" points="99.296,61.943 100.256,61.943 100.256,62.903 96.896,63.143 95.937,63.143 95.937,62.183 	"/>
	<polyline fill="#0D6861" points="92.577,61.703 93.537,61.703 96.896,62.183 96.896,63.143 95.937,63.143 92.577,62.663 	"/>
	<polyline fill="#0D6861" points="92.577,61.703 93.537,61.703 93.537,62.663 91.856,63.623 90.896,63.623 90.896,62.663 	"/>
	<polyline fill="#0D6861" points="90.896,62.663 91.856,62.663 91.856,63.623 90.656,64.823 89.696,64.823 89.696,63.863 	"/>
	<polyline fill="#0D6861" points="89.696,63.863 90.656,63.863 90.656,64.823 89.457,66.263 88.497,66.263 88.497,65.303 	"/>
	<polyline fill="#0D6861" points="88.497,65.303 89.457,65.303 89.457,66.263 88.736,68.183 87.776,68.183 87.776,67.223 	"/>
	<polyline fill="#0D6861" points="87.776,67.223 88.736,67.223 88.977,68.183 88.977,69.143 88.017,69.143 87.776,68.183 	"/>
	<polyline fill="#0D6861" points="88.017,68.183 88.977,68.183 89.457,69.143 89.457,70.103 88.497,70.103 88.017,69.143 	"/>
	<polyline fill="#0D6861" points="88.497,69.143 89.457,69.143 89.937,69.863 89.937,70.823 88.977,70.823 88.497,70.103 	"/>
	<polyline fill="#0D6861" points="88.977,69.863 89.937,69.863 90.656,70.343 90.656,71.303 89.696,71.303 88.977,70.823 	"/>
	<polyline fill="#0D6861" points="89.696,70.343 90.656,70.343 91.617,70.823 91.617,71.783 90.656,71.783 89.696,71.303 	"/>
	<polyline fill="#0D6861" points="90.656,70.823 91.617,70.823 92.577,71.063 92.577,72.023 91.617,72.023 90.656,71.783 	"/>
	<polyline fill="#0D6861" points="91.617,71.063 92.577,71.063 94.977,71.303 94.977,72.263 94.017,72.263 91.617,72.023 	"/>
	<polyline fill="#0D6861" points="94.017,71.303 94.977,71.303 94.977,72.263 94.736,74.423 93.776,74.423 93.776,73.463 	"/>
	<polyline fill="#0D6861" points="93.776,73.463 94.736,73.463 94.736,74.423 94.497,76.103 93.537,76.103 93.537,75.143 	"/>
	<polyline fill="#0D6861" points="93.537,75.143 94.497,75.143 94.497,76.103 94.017,77.543 93.057,77.543 93.057,76.583 	"/>
	<polyline fill="#0D6861" points="93.057,76.583 94.017,76.583 94.017,77.543 93.537,78.503 92.577,78.503 92.577,77.543 	"/>
	<polyline fill="#0D6861" points="92.577,77.543 93.537,77.543 93.537,78.503 93.057,78.983 92.097,78.983 92.097,78.023 	"/>
	<polyline fill="#0D6861" points="92.097,78.023 93.057,78.023 93.057,78.983 92.577,79.223 91.617,79.223 91.617,78.263 	"/>
	<line fill="none" stroke="#0D6861" stroke-width="0.96" stroke-miterlimit="10" x1="91.137" y1="78.743" x2="92.577" y2="78.743"/>
	<polyline fill="#0D6861" points="90.417,77.543 91.376,77.543 92.097,78.263 92.097,79.223 91.137,79.223 90.417,78.503 	"/>
	<polyline fill="#0D6861" points="89.696,76.823 90.656,76.823 91.376,77.543 91.376,78.503 90.417,78.503 89.696,77.783 	"/>
	<polyline fill="#0D6861" points="88.497,76.103 89.457,76.103 90.656,76.823 90.656,77.783 89.696,77.783 88.497,77.063 	"/>
	<polyline fill="#0D6861" points="87.296,75.863 88.256,75.863 89.457,76.103 89.457,77.063 88.497,77.063 87.296,76.823 	"/>
	<polyline fill="#0D6861" points="85.856,75.623 86.816,75.623 88.256,75.863 88.256,76.823 87.296,76.823 85.856,76.583 	"/>
	<polyline fill="#0D6861" points="85.856,75.623 86.816,75.623 86.816,76.583 85.137,76.823 84.176,76.823 84.176,75.863 	"/>
	<polyline fill="#0D6861" points="84.176,75.863 85.137,75.863 85.137,76.823 83.457,77.063 82.497,77.063 82.497,76.103 	"/>
	<polyline fill="#0D6861" points="82.497,76.103 83.457,76.103 83.457,77.063 81.537,77.783 80.577,77.783 80.577,76.823 	"/>
	<polyline fill="#0D6861" points="80.577,76.823 81.537,76.823 81.537,77.783 79.376,78.503 78.417,78.503 78.417,77.543 	"/>
	<polyline fill="#0D6861" points="78.417,77.543 79.376,77.543 79.376,78.503 76.256,82.823 75.296,82.823 75.296,81.863 	"/>
	<polyline fill="#0D6861" points="75.296,81.863 76.256,81.863 76.256,82.823 74.097,87.143 73.137,87.143 73.137,86.183 	"/>
	<polyline fill="#0D6861" points="73.137,86.183 74.097,86.183 74.097,87.143 72.656,91.463 71.696,91.463 71.696,90.503 	"/>
	<polyline fill="#0D6861" points="71.696,90.503 72.656,90.503 72.656,91.463 72.176,95.783 71.216,95.783 71.216,94.823 	"/>
	<polyline fill="#0D6861" points="70.977,87.383 71.937,87.383 72.176,94.823 72.176,95.783 71.216,95.783 70.977,88.343 	"/>
	<polyline fill-rule="evenodd" clip-rule="evenodd" fill="#33CB98" points="43.856,79.463 44.816,79.223 45.776,79.463 
		46.256,79.943 46.736,80.903 46.977,83.543 47.937,85.223 49.137,86.663 50.816,87.383 60.176,87.383 62.336,87.383 64.256,87.863 
		65.696,88.823 66.896,90.263 70.736,93.143 68.336,87.623 67.137,85.463 65.457,83.543 63.296,82.583 60.656,81.863 59.216,81.623 
		57.776,81.383 56.577,80.903 55.376,79.943 49.137,74.663 43.137,69.623 37.617,65.303 32.336,61.463 30.176,59.783 27.776,58.583 
		25.617,57.863 23.457,57.383 21.537,57.383 19.617,57.863 17.937,58.583 16.017,59.783 15.057,60.503 14.097,60.503 13.137,60.503 
		11.937,59.783 11.457,59.303 10.977,59.063 10.497,59.063 10.017,59.303 9.537,59.783 9.057,60.743 8.577,61.703 7.856,62.903 
		7.617,64.343 7.376,65.543 7.376,66.983 7.617,68.183 8.097,69.383 8.577,70.583 10.497,72.743 11.937,73.943 13.376,74.663 
		15.057,74.663 16.497,73.943 19.376,72.023 21.776,70.583 24.176,69.383 26.336,68.423 28.497,68.183 29.457,68.423 30.176,68.663 
		31.376,69.623 32.097,71.303 30.896,73.703 25.137,76.823 24.656,77.783 24.417,78.743 24.417,79.703 24.417,80.423 24.896,80.903 
		25.376,81.383 26.336,81.863 27.296,82.103 43.856,79.463 	"/>
	<polyline fill="#0D6861" points="43.376,78.983 44.336,78.983 44.336,79.943 27.776,82.583 26.816,82.583 26.816,81.623 	"/>
	<polyline fill="#0D6861" points="25.856,81.383 26.816,81.383 27.776,81.623 27.776,82.583 26.816,82.583 25.856,82.343 	"/>
	<polyline fill="#0D6861" points="24.896,80.903 25.856,80.903 26.816,81.383 26.816,82.343 25.856,82.343 24.896,81.863 	"/>
	<polyline fill="#0D6861" points="24.417,80.423 25.376,80.423 25.856,80.903 25.856,81.863 24.896,81.863 24.417,81.383 	"/>
	<polyline fill="#0D6861" points="23.937,79.943 24.896,79.943 25.376,80.423 25.376,81.383 24.417,81.383 23.937,80.903 	"/>
	<line fill="none" stroke="#0D6861" stroke-width="0.96" stroke-miterlimit="10" x1="24.417" y1="79.223" x2="24.417" y2="80.903"/>
	<line fill="none" stroke="#0D6861" stroke-width="0.96" stroke-miterlimit="10" x1="24.417" y1="78.263" x2="24.417" y2="80.183"/>
	<polyline fill="#0D6861" points="24.176,77.303 25.137,77.303 25.137,78.263 24.896,79.223 23.937,79.223 23.937,78.263 	"/>
	<polyline fill="#0D6861" points="24.656,76.343 25.617,76.343 25.617,77.303 25.137,78.263 24.176,78.263 24.176,77.303 	"/>
	<polyline fill="#0D6861" points="30.417,73.223 31.376,73.223 31.376,74.183 25.617,77.303 24.656,77.303 24.656,76.343 	"/>
	<polyline fill="#0D6861" points="31.617,70.823 32.577,70.823 32.577,71.783 31.376,74.183 30.417,74.183 30.417,73.223 	"/>
	<polyline fill="#0D6861" points="30.896,69.143 31.856,69.143 32.577,70.823 32.577,71.783 31.617,71.783 30.896,70.103 	"/>
	<polyline fill="#0D6861" points="29.696,68.183 30.656,68.183 31.856,69.143 31.856,70.103 30.896,70.103 29.696,69.143 	"/>
	<polyline fill="#0D6861" points="28.977,67.943 29.937,67.943 30.656,68.183 30.656,69.143 29.696,69.143 28.977,68.903 	"/>
	<polyline fill="#0D6861" points="28.017,67.703 28.977,67.703 29.937,67.943 29.937,68.903 28.977,68.903 28.017,68.663 	"/>
	<polyline fill="#0D6861" points="28.017,67.703 28.977,67.703 28.977,68.663 26.816,68.903 25.856,68.903 25.856,67.943 	"/>
	<polyline fill="#0D6861" points="25.856,67.943 26.816,67.943 26.816,68.903 24.656,69.863 23.696,69.863 23.696,68.903 	"/>
	<polyline fill="#0D6861" points="23.696,68.903 24.656,68.903 24.656,69.863 22.256,71.063 21.296,71.063 21.296,70.103 	"/>
	<polyline fill="#0D6861" points="21.296,70.103 22.256,70.103 22.256,71.063 19.856,72.503 18.896,72.503 18.896,71.543 	"/>
	<polyline fill="#0D6861" points="18.896,71.543 19.856,71.543 19.856,72.503 16.977,74.423 16.017,74.423 16.017,73.463 	"/>
	<polyline fill="#0D6861" points="16.017,73.463 16.977,73.463 16.977,74.423 15.537,75.143 14.577,75.143 14.577,74.183 	"/>
	<line fill="none" stroke="#0D6861" stroke-width="0.96" stroke-miterlimit="10" x1="12.896" y1="74.663" x2="15.537" y2="74.663"/>
	<polyline fill="#0D6861" points="11.457,73.463 12.417,73.463 13.856,74.183 13.856,75.143 12.896,75.143 11.457,74.423 	"/>
	<polyline fill="#0D6861" points="10.017,72.263 10.977,72.263 12.417,73.463 12.417,74.423 11.457,74.423 10.017,73.223 	"/>
	<polyline fill="#0D6861" points="8.097,70.103 9.057,70.103 10.977,72.263 10.977,73.223 10.017,73.223 8.097,71.063 	"/>
	<polyline fill="#0D6861" points="7.617,68.903 8.577,68.903 9.057,70.103 9.057,71.063 8.097,71.063 7.617,69.863 	"/>
	<polyline fill="#0D6861" points="7.137,67.703 8.097,67.703 8.577,68.903 8.577,69.863 7.617,69.863 7.137,68.663 	"/>
	<polyline fill="#0D6861" points="6.896,66.503 7.856,66.503 8.097,67.703 8.097,68.663 7.137,68.663 6.896,67.463 	"/>
	<line fill="none" stroke="#0D6861" stroke-width="0.96" stroke-miterlimit="10" x1="7.376" y1="65.063" x2="7.376" y2="67.463"/>
	<polyline fill="#0D6861" points="7.137,63.863 8.097,63.863 8.097,64.823 7.856,66.023 6.896,66.023 6.896,65.063 	"/>
	<polyline fill="#0D6861" points="7.376,62.423 8.336,62.423 8.336,63.383 8.097,64.823 7.137,64.823 7.137,63.863 	"/>
	<polyline fill="#0D6861" points="8.097,61.223 9.057,61.223 9.057,62.183 8.336,63.383 7.376,63.383 7.376,62.423 	"/>
	<polyline fill="#0D6861" points="8.577,60.263 9.537,60.263 9.537,61.223 9.057,62.183 8.097,62.183 8.097,61.223 	"/>
	<polyline fill="#0D6861" points="9.057,59.303 10.017,59.303 10.017,60.263 9.537,61.223 8.577,61.223 8.577,60.263 	"/>
	<polyline fill="#0D6861" points="9.537,58.823 10.497,58.823 10.497,59.783 10.017,60.263 9.057,60.263 9.057,59.303 	"/>
	<polyline fill="#0D6861" points="10.017,58.583 10.977,58.583 10.977,59.543 10.497,59.783 9.537,59.783 9.537,58.823 	"/>
	<line fill="none" stroke="#0D6861" stroke-width="0.96" stroke-miterlimit="10" x1="10.017" y1="59.063" x2="11.457" y2="59.063"/>
	<polyline fill="#0D6861" points="10.497,58.583 11.457,58.583 11.937,58.823 11.937,59.783 10.977,59.783 10.497,59.543 	"/>
	<polyline fill="#0D6861" points="10.977,58.823 11.937,58.823 12.417,59.303 12.417,60.263 11.457,60.263 10.977,59.783 	"/>
	<polyline fill="#0D6861" points="11.457,59.303 12.417,59.303 13.617,60.023 13.617,60.983 12.656,60.983 11.457,60.263 	"/>
	<line fill="none" stroke="#0D6861" stroke-width="0.96" stroke-miterlimit="10" x1="12.656" y1="60.503" x2="14.577" y2="60.503"/>
	<line fill="none" stroke="#0D6861" stroke-width="0.96" stroke-miterlimit="10" x1="13.617" y1="60.503" x2="15.537" y2="60.503"/>
	<polyline fill="#0D6861" points="15.537,59.303 16.497,59.303 16.497,60.263 15.537,60.983 14.577,60.983 14.577,60.023 	"/>
	<polyline fill="#0D6861" points="17.457,58.103 18.417,58.103 18.417,59.063 16.497,60.263 15.537,60.263 15.537,59.303 	"/>
	<polyline fill="#0D6861" points="19.137,57.383 20.097,57.383 20.097,58.343 18.417,59.063 17.457,59.063 17.457,58.103 	"/>
	<polyline fill="#0D6861" points="21.057,56.903 22.017,56.903 22.017,57.863 20.097,58.343 19.137,58.343 19.137,57.383 	"/>
	<line fill="none" stroke="#0D6861" stroke-width="0.96" stroke-miterlimit="10" x1="21.057" y1="57.383" x2="23.937" y2="57.383"/>
	<polyline fill="#0D6861" points="22.977,56.903 23.937,56.903 26.097,57.383 26.097,58.343 25.137,58.343 22.977,57.863 	"/>
	<polyline fill="#0D6861" points="25.137,57.383 26.097,57.383 28.256,58.103 28.256,59.063 27.296,59.063 25.137,58.343 	"/>
	<polyline fill="#0D6861" points="27.296,58.103 28.256,58.103 30.656,59.303 30.656,60.263 29.696,60.263 27.296,59.063 	"/>
	<polyline fill="#0D6861" points="29.696,59.303 30.656,59.303 32.816,60.983 32.816,61.943 31.856,61.943 29.696,60.263 	"/>
	<polyline fill="#0D6861" points="31.856,60.983 32.816,60.983 38.097,64.823 38.097,65.783 37.137,65.783 31.856,61.943 	"/>
	<polyline fill="#0D6861" points="37.137,64.823 38.097,64.823 43.617,69.143 43.617,70.103 42.656,70.103 37.137,65.783 	"/>
	<polyline fill="#0D6861" points="42.656,69.143 43.617,69.143 49.617,74.183 49.617,75.143 48.656,75.143 42.656,70.103 	"/>
	<polyline fill="#0D6861" points="48.656,74.183 49.617,74.183 55.856,79.463 55.856,80.423 54.896,80.423 48.656,75.143 	"/>
	<polyline fill="#0D6861" points="54.896,79.463 55.856,79.463 57.057,80.423 57.057,81.383 56.097,81.383 54.896,80.423 	"/>
	<polyline fill="#0D6861" points="56.097,80.423 57.057,80.423 58.256,80.903 58.256,81.863 57.296,81.863 56.097,81.383 	"/>
	<polyline fill="#0D6861" points="57.296,80.903 58.256,80.903 59.696,81.143 59.696,82.103 58.736,82.103 57.296,81.863 	"/>
	<polyline fill="#0D6861" points="58.736,81.143 59.696,81.143 61.137,81.383 61.137,82.343 60.176,82.343 58.736,82.103 	"/>
	<polyline fill="#0D6861" points="60.176,81.383 61.137,81.383 63.776,82.103 63.776,83.063 62.816,83.063 60.176,82.343 	"/>
	<polyline fill="#0D6861" points="62.816,82.103 63.776,82.103 65.937,83.063 65.937,84.023 64.977,84.023 62.816,83.063 	"/>
	<polyline fill="#0D6861" points="64.977,83.063 65.937,83.063 67.617,84.983 67.617,85.943 66.656,85.943 64.977,84.023 	"/>
	<polyline fill="#0D6861" points="66.656,84.983 67.617,84.983 68.816,87.143 68.816,88.103 67.856,88.103 66.656,85.943 	"/>
	<polyline fill="#0D6861" points="67.856,87.143 68.816,87.143 71.216,92.663 71.216,93.623 70.256,93.623 67.856,88.103 	"/>
	<polyline fill="#0D6861" points="66.417,89.783 67.376,89.783 71.216,92.663 71.216,93.623 70.256,93.623 66.417,90.743 	"/>
	<polyline fill="#0D6861" points="65.216,88.343 66.176,88.343 67.376,89.783 67.376,90.743 66.417,90.743 65.216,89.303 	"/>
	<polyline fill="#0D6861" points="63.776,87.383 64.736,87.383 66.176,88.343 66.176,89.303 65.216,89.303 63.776,88.343 	"/>
	<polyline fill="#0D6861" points="61.856,86.903 62.816,86.903 64.736,87.383 64.736,88.343 63.776,88.343 61.856,87.863 	"/>
	<line fill="none" stroke="#0D6861" stroke-width="0.96" stroke-miterlimit="10" x1="59.696" y1="87.383" x2="62.816" y2="87.383"/>
	<line fill="none" stroke="#0D6861" stroke-width="0.96" stroke-miterlimit="10" x1="50.336" y1="87.383" x2="60.656" y2="87.383"/>
	<polyline fill="#0D6861" points="48.656,86.183 49.617,86.183 51.296,86.903 51.296,87.863 50.336,87.863 48.656,87.143 	"/>
	<polyline fill="#0D6861" points="47.457,84.743 48.417,84.743 49.617,86.183 49.617,87.143 48.656,87.143 47.457,85.703 	"/>
	<polyline fill="#0D6861" points="46.497,83.063 47.457,83.063 48.417,84.743 48.417,85.703 47.457,85.703 46.497,84.023 	"/>
	<polyline fill="#0D6861" points="46.256,80.423 47.216,80.423 47.457,83.063 47.457,84.023 46.497,84.023 46.256,81.383 	"/>
	<polyline fill="#0D6861" points="45.776,79.463 46.736,79.463 47.216,80.423 47.216,81.383 46.256,81.383 45.776,80.423 	"/>
	<polyline fill="#0D6861" points="45.296,78.983 46.256,78.983 46.736,79.463 46.736,80.423 45.776,80.423 45.296,79.943 	"/>
	<polyline fill="#0D6861" points="44.336,78.743 45.296,78.743 46.256,78.983 46.256,79.943 45.296,79.943 44.336,79.703 	"/>
	<polyline fill="#0D6861" points="44.336,78.743 45.296,78.743 45.296,79.703 44.336,79.943 43.376,79.943 43.376,78.983 	"/>
	<polyline fill-rule="evenodd" clip-rule="evenodd" fill="#FE9800" points="62.577,95.303 60.656,96.983 58.497,99.143 
		56.816,101.783 55.137,105.143 53.696,108.983 52.256,113.303 50.816,118.103 49.617,123.383 49.376,131.303 49.376,138.743 
		49.617,146.183 50.097,153.383 51.057,160.583 52.017,167.303 53.457,174.023 55.376,180.502 58.736,191.063 62.097,201.383 
		65.216,211.943 67.856,222.502 70.497,233.063 72.896,243.863 75.057,254.422 76.736,265.223 78.417,265.223 79.856,265.223 
		81.057,264.743 82.017,264.263 82.977,263.542 83.696,262.823 84.417,261.623 84.896,260.422 85.376,255.863 85.856,251.063 
		86.577,246.023 87.296,240.743 88.256,235.462 89.457,229.943 90.656,224.183 92.097,218.183 93.776,210.983 95.216,204.023 
		96.417,197.063 97.376,190.103 98.336,183.383 99.057,176.422 99.296,169.703 99.537,162.983 99.537,156.502 99.296,150.023 
		99.057,143.542 98.336,137.063 97.617,130.823 96.656,124.583 95.457,118.343 94.017,112.103 92.816,109.463 91.376,106.823 
		89.937,104.663 88.017,102.503 86.097,100.343 83.937,98.423 81.537,96.983 78.896,95.303 77.216,94.343 75.296,93.623 
		73.376,93.143 71.457,93.143 69.296,93.143 67.137,93.623 64.977,94.343 62.577,95.303 	"/>
	<polyline fill="#D17D01" points="49.137,122.903 50.097,122.903 50.097,123.863 49.856,131.783 48.896,131.783 48.896,130.823 	"/>
	
		<line fill="none" stroke="#D17D01" stroke-width="0.96" stroke-miterlimit="10" x1="49.376" y1="130.823" x2="49.376" y2="139.223"/>
	<polyline fill="#D17D01" points="48.896,138.263 49.856,138.263 50.097,145.703 50.097,146.663 49.137,146.663 48.896,139.223 	"/>
	<polyline fill="#D17D01" points="49.137,145.703 50.097,145.703 50.577,152.903 50.577,153.863 49.617,153.863 49.137,146.663 	"/>
	<polyline fill="#D17D01" points="49.617,152.903 50.577,152.903 51.537,160.103 51.537,161.063 50.577,161.063 49.617,153.863 	"/>
	<polyline fill="#D17D01" points="50.577,160.103 51.537,160.103 52.497,166.823 52.497,167.783 51.537,167.783 50.577,161.063 	"/>
	<polyline fill="#D17D01" points="51.537,166.823 52.497,166.823 53.937,173.542 53.937,174.502 52.977,174.502 51.537,167.783 	"/>
	<polyline fill="#D17D01" points="52.977,173.542 53.937,173.542 55.856,180.023 55.856,180.983 54.896,180.983 52.977,174.502 	"/>
	<polyline fill="#D17D01" points="54.896,180.023 55.856,180.023 59.216,190.583 59.216,191.542 58.256,191.542 54.896,180.983 	"/>
	<polyline fill="#D17D01" points="58.256,190.583 59.216,190.583 62.577,200.903 62.577,201.863 61.617,201.863 58.256,191.542 	"/>
	<polyline fill="#D17D01" points="61.617,200.903 62.577,200.903 65.696,211.462 65.696,212.422 64.736,212.422 61.617,201.863 	"/>
	<polyline fill="#D17D01" points="64.736,211.462 65.696,211.462 68.336,222.023 68.336,222.983 67.376,222.983 64.736,212.422 	"/>
	<polyline fill="#D17D01" points="67.376,222.023 68.336,222.023 70.977,232.583 70.977,233.542 70.017,233.542 67.376,222.983 	"/>
	<polyline fill="#D17D01" points="70.017,232.583 70.977,232.583 73.376,243.383 73.376,244.343 72.417,244.343 70.017,233.542 	"/>
	<polyline fill="#D17D01" points="72.417,243.383 73.376,243.383 75.537,253.943 75.537,254.903 74.577,254.903 72.417,244.343 	"/>
	<polyline fill="#D17D01" points="74.577,253.943 75.537,253.943 77.216,264.743 77.216,265.703 76.256,265.703 74.577,254.903 	"/>
	
		<line fill="none" stroke="#D17D01" stroke-width="0.96" stroke-miterlimit="10" x1="76.256" y1="265.223" x2="78.896" y2="265.223"/>
	
		<line fill="none" stroke="#D17D01" stroke-width="0.96" stroke-miterlimit="10" x1="77.937" y1="265.223" x2="80.336" y2="265.223"/>
	<polyline fill="#D17D01" points="80.577,264.263 81.537,264.263 81.537,265.223 80.336,265.703 79.376,265.703 79.376,264.743 	"/>
	<polyline fill="#D17D01" points="81.537,263.783 82.497,263.783 82.497,264.743 81.537,265.223 80.577,265.223 80.577,264.263 	"/>
	<polyline fill="#D17D01" points="82.497,263.063 83.457,263.063 83.457,264.023 82.497,264.743 81.537,264.743 81.537,263.783 	"/>
	<polyline fill="#D17D01" points="83.216,262.343 84.176,262.343 84.176,263.303 83.457,264.023 82.497,264.023 82.497,263.063 	"/>
	<polyline fill="#D17D01" points="83.937,261.143 84.896,261.143 84.896,262.103 84.176,263.303 83.216,263.303 83.216,262.343 	"/>
	<polyline fill="#D17D01" points="84.417,259.943 85.376,259.943 85.376,260.903 84.896,262.103 83.937,262.103 83.937,261.143 	"/>
	<polyline fill="#D17D01" points="84.896,255.383 85.856,255.383 85.856,256.343 85.376,260.903 84.417,260.903 84.417,259.943 	"/>
	<polyline fill="#D17D01" points="85.376,250.583 86.336,250.583 86.336,251.542 85.856,256.343 84.896,256.343 84.896,255.383 	"/>
	<polyline fill="#D17D01" points="86.097,245.542 87.057,245.542 87.057,246.502 86.336,251.542 85.376,251.542 85.376,250.583 	"/>
	<polyline fill="#D17D01" points="86.816,240.263 87.776,240.263 87.776,241.223 87.057,246.502 86.097,246.502 86.097,245.542 	"/>
	<polyline fill="#D17D01" points="87.776,234.983 88.736,234.983 88.736,235.943 87.776,241.223 86.816,241.223 86.816,240.263 	"/>
	<polyline fill="#D17D01" points="88.977,229.462 89.937,229.462 89.937,230.422 88.736,235.943 87.776,235.943 87.776,234.983 	"/>
	<polyline fill="#D17D01" points="90.176,223.703 91.137,223.703 91.137,224.663 89.937,230.422 88.977,230.422 88.977,229.462 	"/>
	<polyline fill="#D17D01" points="91.617,217.703 92.577,217.703 92.577,218.663 91.137,224.663 90.176,224.663 90.176,223.703 	"/>
	<polyline fill="#D17D01" points="93.296,210.502 94.256,210.502 94.256,211.462 92.577,218.663 91.617,218.663 91.617,217.703 	"/>
	<polyline fill="#D17D01" points="94.736,203.542 95.696,203.542 95.696,204.502 94.256,211.462 93.296,211.462 93.296,210.502 	"/>
	<polyline fill="#D17D01" points="95.937,196.583 96.896,196.583 96.896,197.542 95.696,204.502 94.736,204.502 94.736,203.542 	"/>
	<polyline fill="#D17D01" points="96.896,189.623 97.856,189.623 97.856,190.583 96.896,197.542 95.937,197.542 95.937,196.583 	"/>
	<polyline fill="#D17D01" points="97.856,182.903 98.816,182.903 98.816,183.863 97.856,190.583 96.896,190.583 96.896,189.623 	"/>
	<polyline fill="#D17D01" points="98.577,175.943 99.537,175.943 99.537,176.903 98.816,183.863 97.856,183.863 97.856,182.903 	"/>
	<polyline fill="#D17D01" points="98.816,169.223 99.776,169.223 99.776,170.183 99.537,176.903 98.577,176.903 98.577,175.943 	"/>
	<polyline fill="#D17D01" points="99.057,162.502 100.017,162.502 100.017,163.462 99.776,170.183 98.816,170.183 98.816,169.223 	
		"/>
	
		<line fill="none" stroke="#D17D01" stroke-width="0.96" stroke-miterlimit="10" x1="99.537" y1="156.023" x2="99.537" y2="163.462"/>
	<polyline fill="#D17D01" points="98.816,149.542 99.776,149.542 100.017,156.023 100.017,156.983 99.057,156.983 98.816,150.502 	
		"/>
	<polyline fill="#D17D01" points="98.577,143.063 99.537,143.063 99.776,149.542 99.776,150.502 98.816,150.502 98.577,144.023 	"/>
	<polyline fill="#D17D01" points="97.856,136.583 98.816,136.583 99.537,143.063 99.537,144.023 98.577,144.023 97.856,137.542 	"/>
	<polyline fill="#D17D01" points="97.137,130.343 98.097,130.343 98.816,136.583 98.816,137.542 97.856,137.542 97.137,131.303 	"/>
	<polyline fill="#D17D01" points="96.176,124.103 97.137,124.103 98.097,130.343 98.097,131.303 97.137,131.303 96.176,125.063 	"/>
	<polyline fill="#D17D01" points="94.977,117.863 95.937,117.863 97.137,124.103 97.137,125.063 96.176,125.063 94.977,118.823 	"/>
	<polyline fill="#D17D01" points="93.537,111.623 94.497,111.623 95.937,117.863 95.937,118.823 94.977,118.823 93.537,112.583 	"/>
	<polyline fill="#D17D01" points="92.336,108.983 93.296,108.983 94.497,111.623 94.497,112.583 93.537,112.583 92.336,109.943 	"/>
	<polyline fill="#D17D01" points="90.896,106.343 91.856,106.343 93.296,108.983 93.296,109.943 92.336,109.943 90.896,107.303 	"/>
	<polyline fill="#D17D01" points="89.457,104.183 90.417,104.183 91.856,106.343 91.856,107.303 90.896,107.303 89.457,105.143 	"/>
	<polyline fill="#D17D01" points="87.537,102.023 88.497,102.023 90.417,104.183 90.417,105.143 89.457,105.143 87.537,102.983 	"/>
	<polyline fill="#D17D01" points="85.617,99.863 86.577,99.863 88.497,102.023 88.497,102.983 87.537,102.983 85.617,100.823 	"/>
	<polyline fill="#D17D01" points="83.457,97.943 84.417,97.943 86.577,99.863 86.577,100.823 85.617,100.823 83.457,98.903 	"/>
	<polyline fill="#D17D01" points="81.057,96.503 82.017,96.503 84.417,97.943 84.417,98.903 83.457,98.903 81.057,97.463 	"/>
	<polyline fill="#D17D01" points="78.417,94.823 79.376,94.823 82.017,96.503 82.017,97.463 81.057,97.463 78.417,95.783 	"/>
	<polyline fill="#D17D01" points="76.736,93.863 77.696,93.863 79.376,94.823 79.376,95.783 78.417,95.783 76.736,94.823 	"/>
	<polyline fill="#D17D01" points="74.816,93.143 75.776,93.143 77.696,93.863 77.696,94.823 76.736,94.823 74.816,94.103 	"/>
	<polyline fill="#D17D01" points="72.896,92.663 73.856,92.663 75.776,93.143 75.776,94.103 74.816,94.103 72.896,93.623 	"/>
	<line fill="none" stroke="#D17D01" stroke-width="0.96" stroke-miterlimit="10" x1="70.977" y1="93.143" x2="73.856" y2="93.143"/>
	<line fill="none" stroke="#D17D01" stroke-width="0.96" stroke-miterlimit="10" x1="68.816" y1="93.143" x2="71.937" y2="93.143"/>
	<polyline fill="#D17D01" points="68.816,92.663 69.776,92.663 69.776,93.623 67.617,94.103 66.656,94.103 66.656,93.143 	"/>
	<polyline fill="#D17D01" points="66.656,93.143 67.617,93.143 67.617,94.103 65.457,94.823 64.497,94.823 64.497,93.863 	"/>
	<polyline fill="#D17D01" points="64.497,93.863 65.457,93.863 65.457,94.823 63.057,95.783 62.097,95.783 62.097,94.823 	"/>
	<polyline fill="#D17D01" points="62.097,94.823 63.057,94.823 63.057,95.783 61.137,97.463 60.176,97.463 60.176,96.503 	"/>
	<polyline fill="#D17D01" points="60.176,96.503 61.137,96.503 61.137,97.463 58.977,99.623 58.017,99.623 58.017,98.663 	"/>
	<polyline fill="#D17D01" points="58.017,98.663 58.977,98.663 58.977,99.623 57.296,102.263 56.336,102.263 56.336,101.303 	"/>
	<polyline fill="#D17D01" points="56.336,101.303 57.296,101.303 57.296,102.263 55.617,105.623 54.656,105.623 54.656,104.663 	"/>
	<polyline fill="#D17D01" points="54.656,104.663 55.617,104.663 55.617,105.623 54.176,109.463 53.216,109.463 53.216,108.503 	"/>
	<polyline fill="#D17D01" points="53.216,108.503 54.176,108.503 54.176,109.463 52.736,113.783 51.776,113.783 51.776,112.823 	"/>
	<polyline fill="#D17D01" points="51.776,112.823 52.736,112.823 52.736,113.783 51.296,118.583 50.336,118.583 50.336,117.623 	"/>
	<polyline fill="#D17D01" points="50.336,117.623 51.296,117.623 51.296,118.583 50.097,123.863 49.137,123.863 49.137,122.903 	"/>
	<polyline fill="#D17D01" points="76.736,209.542 77.696,209.542 77.696,210.502 73.137,212.183 72.176,212.183 72.176,211.223 	"/>
	<polyline fill="#D17D01" points="62.336,125.063 63.296,125.063 63.296,126.023 55.376,127.463 54.417,127.463 54.417,126.503 	"/>
	<polyline fill="#D17D01" points="66.417,110.423 67.376,110.423 67.376,111.383 61.376,112.343 60.417,112.343 60.417,111.383 	"/>
	<polyline fill="#D17D01" points="68.097,113.543 69.057,113.543 69.057,114.503 64.497,115.223 63.537,115.223 63.537,114.263 	"/>
	<polyline fill="#D17D01" points="65.216,98.183 66.176,98.183 66.176,99.143 61.617,100.583 60.656,100.583 60.656,99.623 	"/>
	<polyline fill="#D17D01" points="67.137,94.343 68.097,94.343 68.097,95.303 64.977,96.503 64.017,96.503 64.017,95.543 	"/>
	<polyline fill="#D17D01" points="84.656,129.383 85.617,129.383 85.617,130.343 80.336,131.543 79.376,131.543 79.376,130.583 	"/>
	<polyline fill="#D17D01" points="85.856,113.303 86.816,113.303 86.816,114.263 81.537,115.223 80.577,115.223 80.577,114.263 	"/>
	<polyline fill="#D17D01" points="90.176,109.703 91.137,109.703 91.137,110.663 85.856,111.623 84.896,111.623 84.896,110.663 	"/>
	<polyline fill="#D17D01" points="79.617,98.183 80.577,98.183 80.577,99.143 75.296,99.623 74.336,99.623 74.336,98.663 	"/>
	<polyline fill="#D17D01" points="98.577,162.502 99.537,162.502 99.537,163.462 94.497,164.422 93.537,164.422 93.537,163.462 	"/>
	
		<line fill="none" stroke="#D17D01" stroke-width="0.96" stroke-miterlimit="10" x1="79.617" y1="173.303" x2="83.937" y2="173.303"/>
	<polyline fill="#D17D01" points="87.776,156.743 88.736,156.743 88.736,157.703 84.176,159.383 83.216,159.383 83.216,158.422 	"/>
	
		<line fill="none" stroke="#D17D01" stroke-width="0.96" stroke-miterlimit="10" x1="87.057" y1="142.343" x2="95.216" y2="142.343"/>
	<polyline fill="#D17D01" points="86.097,213.143 87.057,213.143 90.896,213.623 90.896,214.583 89.937,214.583 86.097,214.103 	"/>
	<polyline fill="#D17D01" points="81.537,196.343 82.497,196.343 86.816,197.542 86.816,198.502 85.856,198.502 81.537,197.303 	"/>
	<polyline fill="#D17D01" points="79.376,193.223 80.336,193.223 84.417,193.462 84.417,194.422 83.457,194.422 79.376,194.183 	"/>
	<polyline fill="#D17D01" points="62.336,173.783 63.296,173.783 63.296,174.743 58.977,176.183 58.017,176.183 58.017,175.223 	"/>
	<polyline fill="#D17D01" points="56.816,143.303 57.776,143.303 57.776,144.263 53.696,145.462 52.736,145.462 52.736,144.502 	"/>
	<polyline fill="#D17D01" points="59.696,178.823 60.656,178.823 60.656,179.783 56.336,180.743 55.376,180.743 55.376,179.783 	"/>
	<polyline fill="#D17D01" points="68.816,152.903 69.776,152.903 69.776,153.863 62.816,155.303 61.856,155.303 61.856,154.343 	"/>
	<polyline fill="#D17D01" points="71.457,150.263 72.417,150.263 72.417,151.223 67.856,151.943 66.896,151.943 66.896,150.983 	"/>
	<polyline fill="#D17D01" points="73.856,136.823 74.816,136.823 74.816,137.783 68.577,139.703 67.617,139.703 67.617,138.743 	"/>
	<polyline fill="#D17D01" points="73.376,183.383 74.336,183.383 74.336,184.343 69.537,186.502 68.577,186.502 68.577,185.542 	"/>
	
		<line fill="none" stroke="#D17D01" stroke-width="0.96" stroke-miterlimit="10" x1="79.137" y1="247.943" x2="82.497" y2="247.943"/>
	<polyline fill="#D17D01" points="83.216,244.823 84.176,244.823 84.176,245.783 81.296,246.263 80.336,246.263 80.336,245.303 	"/>
	<polyline fill="#D17D01" points="77.937,233.542 78.896,233.542 78.896,234.502 74.336,236.422 73.376,236.422 73.376,235.462 	"/>
	<polyline fill="#D17D01" points="79.376,220.103 80.336,220.103 80.336,221.063 74.816,221.303 73.856,221.303 73.856,220.343 	"/>
	<polyline fill="#D17D01" points="75.057,216.502 76.017,216.502 76.017,217.462 71.457,219.143 70.497,219.143 70.497,218.183 	"/>
	<polyline fill="#D17D01" points="64.017,126.743 64.977,126.743 64.977,127.703 59.937,128.423 58.977,128.423 58.977,127.463 	"/>
</g>
</svg>
