<?xml version="1.0" encoding="utf-8"?>
<!-- Generator: Adobe Illustrator 16.0.0, SVG Export Plug-In . SVG Version: 6.00 Build 0)  -->
<!DOCTYPE svg PUBLIC "-//W3C//DTD SVG 1.1//EN" "http://www.w3.org/Graphics/SVG/1.1/DTD/svg11.dtd">
<svg version="1.1" id="Layer_1" xmlns="http://www.w3.org/2000/svg" xmlns:xlink="http://www.w3.org/1999/xlink" x="0px" y="0px"
	 width="272.46px" height="186.803px" viewBox="0 0 272.46 186.803" enable-background="new 0 0 272.46 186.803"
	 xml:space="preserve">
<g>
	<polyline fill-rule="evenodd" clip-rule="evenodd" fill="#CE580A" points="160.579,57.888 161.299,59.088 161.779,60.287 
		163.219,62.447 164.419,63.888 165.859,64.848 167.059,65.088 168.5,64.848 169.699,63.888 171.139,62.447 172.579,60.287 
		173.54,58.848 174.739,57.168 172.579,57.168 170.659,57.408 168.979,57.647 167.54,58.127 166.579,58.848 165.379,59.328 
		164.419,59.567 163.459,59.567 162.739,59.328 162.019,59.088 161.299,58.607 160.579,57.888 	"/>
	<polyline fill-rule="evenodd" clip-rule="evenodd" fill="#CE580A" points="139.459,56.207 137.059,57.888 134.659,59.088 
		131.779,59.328 130.099,59.328 128.419,59.088 129.859,60.047 130.819,61.008 131.54,62.447 131.54,64.127 132.019,65.088 
		132.5,65.808 133.699,65.808 135.139,65.328 137.299,64.607 139.459,63.168 142.339,61.248 145.459,58.607 147.859,56.928 
		150.019,55.728 148.339,55.248 146.899,54.527 145.459,54.287 144.259,54.287 143.059,54.527 141.619,54.768 140.659,55.488 
		139.459,56.207 	"/>
	<polyline fill-rule="evenodd" clip-rule="evenodd" fill="#F96C00" points="85.939,64.127 85.459,64.607 90.979,70.127 
		91.459,69.647 85.939,64.127 	"/>
	<polyline fill-rule="evenodd" clip-rule="evenodd" fill="#FA6D00" points="85.459,64.607 84.979,65.088 90.739,71.088 
		90.979,70.127 85.459,64.607 	"/>
	<polyline fill-rule="evenodd" clip-rule="evenodd" fill="#FB6D00" points="84.979,65.088 84.5,65.567 90.5,71.808 90.739,71.088 
		84.979,65.088 	"/>
	<polyline fill-rule="evenodd" clip-rule="evenodd" fill="#FD6E00" points="84.5,65.567 83.299,67.008 90.259,72.047 90.5,71.808 
		84.5,65.567 	"/>
	<polyline fill-rule="evenodd" clip-rule="evenodd" fill="#D05800" points="120.739,56.447 120.019,56.688 122.419,59.088 
		123.139,58.848 120.739,56.447 	"/>
	<polyline fill-rule="evenodd" clip-rule="evenodd" fill="#D15800" points="120.019,56.688 119.299,57.168 121.459,59.328 
		122.419,59.088 120.019,56.688 	"/>
	<polyline fill-rule="evenodd" clip-rule="evenodd" fill="#D35900" points="118.819,57.647 118.339,58.127 120.259,60.047 
		120.979,59.567 118.819,57.647 	"/>
	<polyline fill-rule="evenodd" clip-rule="evenodd" fill="#D45A00" points="118.339,58.127 118.099,58.127 117.619,58.607 
		119.54,60.527 120.259,60.047 118.339,58.127 	"/>
	<polyline fill-rule="evenodd" clip-rule="evenodd" fill="#D55A00" points="117.619,58.607 117.139,59.088 119.059,60.768 
		119.54,60.527 117.619,58.607 	"/>
	<polyline fill-rule="evenodd" clip-rule="evenodd" fill="#D75B00" points="118.339,61.248 119.059,60.768 117.139,59.088 
		116.659,59.567 118.339,61.248 	"/>
	<polyline fill-rule="evenodd" clip-rule="evenodd" fill="#D85C00" points="118.339,61.248 116.659,59.567 115.939,59.808 
		117.859,61.728 118.339,61.248 	"/>
	<polyline fill-rule="evenodd" clip-rule="evenodd" fill="#D85C00" points="117.379,61.967 117.859,61.728 115.939,59.808 
		115.219,60.047 117.379,62.207 117.379,61.967 	"/>
	<polyline fill-rule="evenodd" clip-rule="evenodd" fill="#D25900" points="120.979,59.567 121.459,59.328 119.299,57.168 
		118.819,57.647 120.979,59.567 	"/>
	<polyline fill-rule="evenodd" clip-rule="evenodd" fill="#D05800" points="123.139,58.848 125.299,58.367 124.579,56.928 
		123.619,55.967 122.179,55.967 120.739,56.447 123.139,58.848 	"/>
	<polyline fill-rule="evenodd" clip-rule="evenodd" fill="#DA5D00" points="115.219,60.047 114.019,60.047 116.659,62.928 
		117.379,62.207 115.219,60.047 	"/>
	<polyline fill-rule="evenodd" clip-rule="evenodd" fill="#DB5D00" points="114.019,60.047 113.059,59.567 111.859,58.367 
		110.899,57.408 109.459,56.447 116.179,63.408 116.659,62.928 114.019,60.047 	"/>
	<polyline fill-rule="evenodd" clip-rule="evenodd" fill="#DB5D00" points="109.459,56.447 108.019,55.967 115.699,63.647 
		116.179,63.408 109.459,56.447 	"/>
	<polyline fill-rule="evenodd" clip-rule="evenodd" fill="#DC5E00" points="108.019,55.967 106.579,55.728 114.979,64.127 
		115.699,63.647 108.019,55.967 	"/>
	<polyline fill-rule="evenodd" clip-rule="evenodd" fill="#E26100" points="106.339,60.768 108.019,61.248 102.5,55.967 
		101.779,55.967 106.339,60.768 	"/>
	<polyline fill-rule="evenodd" clip-rule="evenodd" fill="#DE5F00" points="114.019,64.367 114.979,64.127 106.579,55.728 
		105.619,55.728 114.019,64.367 	"/>
	<polyline fill-rule="evenodd" clip-rule="evenodd" fill="#DE5F00" points="113.059,64.367 114.019,64.367 105.619,55.728 
		104.659,55.728 113.059,64.367 	"/>
	<polyline fill-rule="evenodd" clip-rule="evenodd" fill="#E06000" points="111.139,63.168 112.099,63.888 113.059,64.367 
		104.659,55.728 103.459,55.728 110.179,62.447 111.139,63.168 	"/>
	<polyline fill-rule="evenodd" clip-rule="evenodd" fill="#E06000" points="108.019,61.248 110.179,62.447 103.459,55.728 
		102.5,55.967 108.019,61.248 	"/>
	<polyline fill-rule="evenodd" clip-rule="evenodd" fill="#E46200" points="100.819,56.207 100.099,56.447 103.939,60.287 
		105.139,60.527 100.819,56.207 	"/>
	<polyline fill-rule="evenodd" clip-rule="evenodd" fill="#E46200" points="100.099,56.447 99.139,56.688 102.979,60.287 
		103.939,60.287 100.099,56.447 	"/>
	<polyline fill-rule="evenodd" clip-rule="evenodd" fill="#E66300" points="98.419,56.928 97.699,56.928 101.059,60.527 
		102.019,60.287 98.419,56.928 	"/>
	<polyline fill-rule="evenodd" clip-rule="evenodd" fill="#E76300" points="97.699,56.928 96.739,57.408 100.099,60.768 
		101.059,60.527 97.699,56.928 	"/>
	<polyline fill-rule="evenodd" clip-rule="evenodd" fill="#EA6500" points="97.939,61.488 98.659,61.248 95.299,57.888 
		94.579,58.127 97.939,61.488 	"/>
	<polyline fill-rule="evenodd" clip-rule="evenodd" fill="#EB6500" points="97.219,61.967 97.939,61.488 94.579,58.127 
		93.859,58.367 97.219,61.967 	"/>
	<polyline fill-rule="evenodd" clip-rule="evenodd" fill="#E86400" points="99.379,60.768 100.099,60.768 96.739,57.408 
		96.019,57.647 99.379,60.768 	"/>
	<polyline fill-rule="evenodd" clip-rule="evenodd" fill="#E96400" points="99.379,60.768 96.019,57.647 95.299,57.888 
		98.659,61.248 99.379,60.768 	"/>
	<polyline fill-rule="evenodd" clip-rule="evenodd" fill="#E66300" points="99.139,56.688 98.419,56.928 102.019,60.287 
		102.979,60.287 99.139,56.688 	"/>
	<polyline fill-rule="evenodd" clip-rule="evenodd" fill="#E26100" points="101.779,55.967 101.299,55.967 100.819,56.207 
		105.139,60.527 106.339,60.768 101.779,55.967 	"/>
	<polyline fill-rule="evenodd" clip-rule="evenodd" fill="#F46A00" points="88.579,61.728 88.099,61.967 92.899,66.768 
		93.139,66.287 88.579,61.728 	"/>
	<polyline fill-rule="evenodd" clip-rule="evenodd" fill="#F06800" points="91.219,60.047 90.5,60.287 94.579,64.367 95.059,63.888 
		91.219,60.047 	"/>
	<polyline fill-rule="evenodd" clip-rule="evenodd" fill="#F16800" points="90.5,60.287 89.779,60.768 94.099,65.088 94.579,64.367 
		90.5,60.287 	"/>
	<polyline fill-rule="evenodd" clip-rule="evenodd" fill="#F26900" points="89.779,60.768 89.299,61.248 93.619,65.567 
		94.099,65.088 89.779,60.768 	"/>
	<polyline fill-rule="evenodd" clip-rule="evenodd" fill="#F36900" points="89.299,61.248 88.579,61.728 93.139,66.287 
		93.619,65.567 89.299,61.248 	"/>
	<polyline fill-rule="evenodd" clip-rule="evenodd" fill="#EE6700" points="92.419,59.088 91.699,59.567 95.54,63.408 
		96.019,62.928 92.419,59.088 	"/>
	<polyline fill-rule="evenodd" clip-rule="evenodd" fill="#ED6600" points="93.139,58.848 92.419,59.088 96.019,62.928 96.5,62.447 
		93.139,58.848 	"/>
	<polyline fill-rule="evenodd" clip-rule="evenodd" fill="#EC6600" points="93.859,58.367 93.139,58.848 96.5,62.447 97.219,61.967 
		93.859,58.367 	"/>
	<polyline fill-rule="evenodd" clip-rule="evenodd" fill="#EF6700" points="91.699,59.567 91.219,60.047 95.059,63.888 
		95.54,63.408 91.699,59.567 	"/>
	<polyline fill-rule="evenodd" clip-rule="evenodd" fill="#F66B00" points="92.179,68.207 92.419,67.488 87.619,62.688 
		86.899,62.928 92.179,68.207 	"/>
	<polyline fill-rule="evenodd" clip-rule="evenodd" fill="#F56A00" points="92.419,67.488 92.899,66.768 88.099,61.967 
		87.619,62.688 92.419,67.488 	"/>
	<polyline fill-rule="evenodd" clip-rule="evenodd" fill="#F76B00" points="86.899,62.928 86.419,63.647 91.699,68.928 
		92.179,68.207 86.899,62.928 	"/>
	<polyline fill-rule="evenodd" clip-rule="evenodd" fill="#F86C00" points="91.459,69.647 91.699,68.928 86.419,63.647 
		85.939,64.127 91.459,69.647 	"/>
	<polyline fill-rule="evenodd" clip-rule="evenodd" fill="#FE6F0E" points="161.779,60.287 161.299,59.088 160.579,57.888 
		160.339,57.647 158.419,56.207 156.259,55.248 154.819,55.008 153.139,55.008 151.699,55.248 150.019,55.728 147.859,56.928 
		145.459,58.607 142.339,61.248 139.459,63.168 137.299,64.607 135.139,65.328 133.699,65.808 132.5,65.808 132.019,65.088 
		131.54,64.127 131.54,62.447 130.819,61.008 129.859,60.047 128.419,59.088 127.939,58.848 126.5,58.607 125.299,58.367 
		123.379,58.607 121.459,59.328 119.54,60.527 117.379,61.967 116.659,62.928 115.699,63.647 114.979,64.127 114.259,64.367 
		113.299,64.367 112.579,64.127 111.859,63.647 111.139,63.168 108.259,61.488 105.379,60.527 102.5,60.287 99.379,60.768 
		98.179,61.488 96.979,62.207 95.779,63.168 94.579,64.367 93.379,66.047 92.419,67.728 91.219,69.888 90.259,72.047 88.579,77.328 
		87.379,82.367 86.419,87.647 85.699,92.688 85.219,97.967 85.219,103.008 85.219,108.287 85.699,113.328 86.419,118.367 
		87.379,123.647 88.819,128.928 90.259,133.968 92.179,139.248 94.339,144.527 96.979,149.808 99.619,154.848 96.979,149.808 
		94.339,144.527 92.179,139.248 90.259,133.968 88.819,128.928 87.379,123.647 86.419,118.367 85.699,113.328 85.219,108.287 
		85.219,103.008 85.219,97.967 85.699,92.688 86.419,87.647 87.379,82.367 88.579,77.328 90.259,72.047 83.299,67.008 
		81.379,70.607 79.219,74.447 75.859,81.647 73.219,88.848 71.54,96.287 70.339,103.488 70.099,110.928 70.579,118.127 
		71.779,125.328 73.459,132.047 75.619,138.287 78.019,144.047 80.659,149.088 83.779,153.888 87.139,158.207 90.979,162.047 
		95.059,165.168 96.259,166.127 97.459,166.607 98.899,166.848 100.579,166.848 102.259,166.848 103.939,166.367 105.859,165.647 
		107.779,164.688 111.859,163.008 116.179,161.808 120.259,161.088 124.099,160.607 126.259,160.848 127.939,161.088 
		129.379,161.567 130.819,162.287 131.779,163.008 132.739,164.207 133.219,165.647 133.699,167.088 134.179,168.527 
		135.139,169.488 136.099,169.968 137.54,169.968 139.459,169.728 141.619,169.008 144.019,167.808 146.659,166.127 149.54,164.447 
		151.939,163.248 154.099,162.527 156.019,162.047 157.699,162.047 159.139,162.527 160.099,163.488 160.819,164.928 
		161.54,165.888 162.019,166.848 162.739,167.328 163.459,167.567 164.179,167.808 165.139,167.808 166.099,167.328 
		167.299,166.848 169.459,165.888 171.619,164.447 175.219,162.047 176.899,161.088 177.859,160.848 178.579,160.607 180.5,161.088 
		182.659,162.287 183.619,162.768 184.819,163.248 186.019,163.488 186.979,163.488 188.419,163.248 189.619,162.527 
		190.819,162.047 192.019,161.088 194.179,159.168 196.339,157.008 200.419,152.447 204.019,147.168 207.139,141.408 
		208.819,138.287 210.259,134.928 212.899,127.728 215.059,120.047 216.019,115.968 216.979,111.647 216.979,105.888 216.5,99.888 
		215.779,94.127 214.339,88.607 212.419,83.328 210.019,78.047 207.139,73.008 204.019,67.967 202.339,66.047 200.899,64.367 
		199.219,63.168 197.779,61.967 196.099,61.248 194.419,60.768 192.739,60.527 191.059,60.287 192.739,65.328 193.939,70.127 
		194.899,75.408 195.379,80.688 195.619,86.207 195.619,91.728 195.379,97.488 194.659,103.488 193.699,109.728 192.5,115.968 
		190.819,122.447 188.899,128.928 186.739,135.647 184.339,142.607 181.459,149.567 178.339,156.768 181.459,149.567 
		184.339,142.607 186.739,135.647 188.899,128.928 190.819,122.447 192.5,115.968 193.699,109.728 194.659,103.488 195.379,97.488 
		195.619,91.728 195.619,86.207 195.379,80.688 194.899,75.408 193.939,70.127 192.739,65.328 191.059,60.287 190.339,58.607 
		189.139,56.928 187.699,55.488 186.019,54.287 184.339,53.808 182.899,53.567 181.459,53.567 180.019,53.567 178.579,54.287 
		177.139,55.008 175.939,55.967 174.739,57.168 173.54,58.848 172.579,60.287 171.139,62.447 169.699,63.888 168.5,64.848 
		167.059,65.088 165.859,64.848 164.419,63.888 163.219,62.447 161.779,60.287 	"/>
	<polyline fill="#D05800" points="161.54,145.728 162.5,145.728 162.5,146.688 160.579,152.928 159.619,152.928 159.619,151.968 	
		"/>
	<polyline fill="#D05800" points="163.219,139.728 164.179,139.728 164.179,140.688 162.5,146.688 161.54,146.688 161.54,145.728 	
		"/>
	<polyline fill="#D05800" points="164.659,133.728 165.619,133.728 165.619,134.688 164.179,140.688 163.219,140.688 
		163.219,139.728 	"/>
	<polyline fill="#D05800" points="165.859,127.728 166.819,127.728 166.819,128.688 165.619,134.688 164.659,134.688 
		164.659,133.728 	"/>
	<polyline fill="#D05800" points="166.819,122.207 167.779,122.207 167.779,123.168 166.819,128.688 165.859,128.688 
		165.859,127.728 	"/>
	<polyline fill="#D05800" points="167.779,116.447 168.739,116.447 168.739,117.408 167.779,123.168 166.819,123.168 
		166.819,122.207 	"/>
	<polyline fill="#D05800" points="168.5,111.168 169.459,111.168 169.459,112.127 168.739,117.408 167.779,117.408 167.779,116.447 
			"/>
	<polyline fill="#D05800" points="168.979,105.888 169.939,105.888 169.939,106.848 169.459,112.127 168.5,112.127 168.5,111.168 	
		"/>
	<polyline fill="#D05800" points="169.219,100.607 170.179,100.607 170.179,101.567 169.939,106.848 168.979,106.848 
		168.979,105.888 	"/>
	
		<line fill="none" stroke="#D05800" stroke-width="0.96" stroke-miterlimit="10" x1="169.699" y1="95.567" x2="169.699" y2="101.567"/>
	
		<line fill="none" stroke="#D05800" stroke-width="0.96" stroke-miterlimit="10" x1="169.699" y1="90.768" x2="169.699" y2="96.527"/>
	<polyline fill="#D05800" points="168.979,85.967 169.939,85.967 170.179,90.768 170.179,91.728 169.219,91.728 168.979,86.928 	"/>
	<polyline fill="#D05800" points="168.5,81.408 169.459,81.408 169.939,85.967 169.939,86.928 168.979,86.928 168.5,82.367 	"/>
	<polyline fill="#D05800" points="168.019,76.848 168.979,76.848 169.459,81.408 169.459,82.367 168.5,82.367 168.019,77.808 	"/>
	<polyline fill="#D05800" points="167.059,72.527 168.019,72.527 168.979,76.848 168.979,77.808 168.019,77.808 167.059,73.488 	"/>
	<polyline fill="#D05800" points="166.099,68.207 167.059,68.207 168.019,72.527 168.019,73.488 167.059,73.488 166.099,69.168 	"/>
	<polyline fill="#D05800" points="151.219,54.768 152.179,54.768 152.179,55.728 150.5,56.207 149.54,56.207 149.54,55.248 	"/>
	<polyline fill="#D05800" points="152.659,54.527 153.619,54.527 153.619,55.488 152.179,55.728 151.219,55.728 151.219,54.768 	"/>
	
		<line fill="none" stroke="#D05800" stroke-width="0.96" stroke-miterlimit="10" x1="152.659" y1="55.008" x2="155.299" y2="55.008"/>
	<polyline fill="#D05800" points="154.339,54.527 155.299,54.527 156.739,54.768 156.739,55.728 155.779,55.728 154.339,55.488 	"/>
	<polyline fill="#D05800" points="155.779,54.768 156.739,54.768 158.899,55.728 158.899,56.688 157.939,56.688 155.779,55.728 	"/>
	<polyline fill="#D05800" points="157.939,55.728 158.899,55.728 160.819,57.168 160.819,58.127 159.859,58.127 157.939,56.688 	"/>
	<polyline fill="#D05800" points="159.859,57.168 160.819,57.168 161.059,57.408 161.059,58.367 160.099,58.367 159.859,58.127 	"/>
	<polyline fill="#D05800" points="147.859,54.768 148.819,54.768 150.5,55.248 150.5,56.207 149.54,56.207 147.859,55.728 	"/>
	<polyline fill="#D05800" points="146.419,54.047 147.379,54.047 148.819,54.768 148.819,55.728 147.859,55.728 146.419,55.008 	"/>
	<polyline fill="#D05800" points="144.979,53.808 145.939,53.808 147.379,54.047 147.379,55.008 146.419,55.008 144.979,54.768 	"/>
	
		<line fill="none" stroke="#D05800" stroke-width="0.96" stroke-miterlimit="10" x1="143.779" y1="54.287" x2="145.939" y2="54.287"/>
	<polyline fill="#D05800" points="143.779,53.808 144.739,53.808 144.739,54.768 143.54,55.008 142.579,55.008 142.579,54.047 	"/>
	<polyline fill="#D05800" points="142.579,54.047 143.54,54.047 143.54,55.008 142.099,55.248 141.139,55.248 141.139,54.287 	"/>
	<polyline fill="#D05800" points="141.139,54.287 142.099,54.287 142.099,55.248 141.139,55.967 140.179,55.967 140.179,55.008 	"/>
	<polyline fill="#D05800" points="140.179,55.008 141.139,55.008 141.139,55.967 139.939,56.688 138.979,56.688 138.979,55.728 	"/>
	<polyline fill="#D05800" points="138.979,55.728 139.939,55.728 139.939,56.688 137.54,58.367 136.579,58.367 136.579,57.408 	"/>
	<polyline fill="#D05800" points="136.579,57.408 137.54,57.408 137.54,58.367 135.139,59.567 134.179,59.567 134.179,58.607 	"/>
	<polyline fill="#D05800" points="134.179,58.607 135.139,58.607 135.139,59.567 132.259,59.808 131.299,59.808 131.299,58.848 	"/>
	
		<line fill="none" stroke="#D05800" stroke-width="0.96" stroke-miterlimit="10" x1="129.619" y1="59.328" x2="132.259" y2="59.328"/>
	<polyline fill="#D05800" points="127.939,58.607 128.899,58.607 130.579,58.848 130.579,59.808 129.619,59.808 127.939,59.567 	"/>
	<polyline fill="#D05800" points="127.939,58.607 128.899,58.607 130.339,59.567 130.339,60.527 129.379,60.527 127.939,59.567 	"/>
	<polyline fill="#D05800" points="129.379,59.567 130.339,59.567 131.299,60.527 131.299,61.488 130.339,61.488 129.379,60.527 	"/>
	<polyline fill="#D05800" points="130.339,60.527 131.299,60.527 132.019,61.967 132.019,62.928 131.059,62.928 130.339,61.488 	"/>
	<line fill="none" stroke="#D05800" stroke-width="0.96" stroke-miterlimit="10" x1="131.54" y1="61.968" x2="131.54" y2="64.607"/>
	<polyline fill="#D05800" points="131.059,63.647 132.019,63.647 132.5,64.607 132.5,65.567 131.54,65.567 131.059,64.607 	"/>
	<polyline fill="#D05800" points="131.54,64.607 132.5,64.607 132.979,65.328 132.979,66.287 132.019,66.287 131.54,65.567 	"/>
	
		<line fill="none" stroke="#D05800" stroke-width="0.96" stroke-miterlimit="10" x1="132.019" y1="65.808" x2="134.179" y2="65.808"/>
	<polyline fill="#D05800" points="134.659,64.848 135.619,64.848 135.619,65.808 134.179,66.287 133.219,66.287 133.219,65.328 	"/>
	<polyline fill="#D05800" points="136.819,64.127 137.779,64.127 137.779,65.088 135.619,65.808 134.659,65.808 134.659,64.848 	"/>
	<polyline fill="#D05800" points="138.979,62.688 139.939,62.688 139.939,63.647 137.779,65.088 136.819,65.088 136.819,64.127 	"/>
	<polyline fill="#D05800" points="141.859,60.768 142.819,60.768 142.819,61.728 139.939,63.647 138.979,63.647 138.979,62.688 	"/>
	<polyline fill="#D05800" points="144.979,58.127 145.939,58.127 145.939,59.088 142.819,61.728 141.859,61.728 141.859,60.768 	"/>
	<polyline fill="#D05800" points="147.379,56.447 148.339,56.447 148.339,57.408 145.939,59.088 144.979,59.088 144.979,58.127 	"/>
	<polyline fill="#D05800" points="149.54,55.248 150.5,55.248 150.5,56.207 148.339,57.408 147.379,57.408 147.379,56.447 	"/>
	<polyline fill="#D05800" points="124.819,57.888 125.779,57.888 126.979,58.127 126.979,59.088 126.019,59.088 124.819,58.848 	"/>
	<polyline fill="#D05800" points="126.019,58.127 126.979,58.127 128.419,58.367 128.419,59.328 127.459,59.328 126.019,59.088 	"/>
	<polyline fill="#D05800" points="127.459,58.367 128.419,58.367 128.899,58.607 128.899,59.567 127.939,59.567 127.459,59.328 	"/>
	<polyline fill="#D05800" points="190.579,59.808 191.54,59.808 193.219,60.047 193.219,61.008 192.259,61.008 190.579,60.768 	"/>
	<polyline fill="#D05800" points="192.259,60.047 193.219,60.047 194.899,60.287 194.899,61.248 193.939,61.248 192.259,61.008 	"/>
	<polyline fill="#D05800" points="193.939,60.287 194.899,60.287 196.579,60.768 196.579,61.728 195.619,61.728 193.939,61.248 	"/>
	<polyline fill="#D05800" points="195.619,60.768 196.579,60.768 198.259,61.488 198.259,62.447 197.299,62.447 195.619,61.728 	"/>
	<polyline fill="#D05800" points="197.299,61.488 198.259,61.488 199.699,62.688 199.699,63.647 198.739,63.647 197.299,62.447 	"/>
	<polyline fill="#D05800" points="198.739,62.688 199.699,62.688 201.379,63.888 201.379,64.848 200.419,64.848 198.739,63.647 	"/>
	<polyline fill="#D05800" points="200.419,63.888 201.379,63.888 202.819,65.567 202.819,66.527 201.859,66.527 200.419,64.848 	"/>
	<polyline fill="#D05800" points="201.859,65.567 202.819,65.567 204.5,67.488 204.5,68.447 203.54,68.447 201.859,66.527 	"/>
	<polyline fill="#D05800" points="203.54,67.488 204.5,67.488 207.619,72.527 207.619,73.488 206.659,73.488 203.54,68.447 	"/>
	<polyline fill="#D05800" points="206.659,72.527 207.619,72.527 210.5,77.567 210.5,78.527 209.54,78.527 206.659,73.488 	"/>
	<polyline fill="#D05800" points="209.54,77.567 210.5,77.567 212.899,82.848 212.899,83.808 211.939,83.808 209.54,78.527 	"/>
	<polyline fill="#D05800" points="211.939,82.848 212.899,82.848 214.819,88.127 214.819,89.088 213.859,89.088 211.939,83.808 	"/>
	<polyline fill="#D05800" points="213.859,88.127 214.819,88.127 216.259,93.647 216.259,94.607 215.299,94.607 213.859,89.088 	"/>
	<polyline fill="#D05800" points="215.299,93.647 216.259,93.647 216.979,99.408 216.979,100.367 216.019,100.367 215.299,94.607 	
		"/>
	<polyline fill="#D05800" points="216.019,99.408 216.979,99.408 217.459,105.408 217.459,106.367 216.5,106.367 216.019,100.367 	
		"/>
	
		<line fill="none" stroke="#D05800" stroke-width="0.96" stroke-miterlimit="10" x1="216.979" y1="105.408" x2="216.979" y2="112.127"/>
	<polyline fill="#D05800" points="216.5,111.168 217.459,111.168 217.459,112.127 216.5,116.447 215.54,116.447 215.54,115.488 	"/>
	<polyline fill="#D05800" points="215.54,115.488 216.5,115.488 216.5,116.447 215.54,120.527 214.579,120.527 214.579,119.567 	"/>
	<polyline fill="#D05800" points="214.579,119.567 215.54,119.567 215.54,120.527 213.379,128.207 212.419,128.207 212.419,127.248 
			"/>
	<polyline fill="#D05800" points="212.419,127.248 213.379,127.248 213.379,128.207 210.739,135.408 209.779,135.408 
		209.779,134.447 	"/>
	<polyline fill="#D05800" points="209.779,134.447 210.739,134.447 210.739,135.408 209.299,138.768 208.339,138.768 
		208.339,137.808 	"/>
	<polyline fill="#D05800" points="208.339,137.808 209.299,137.808 209.299,138.768 207.619,141.888 206.659,141.888 
		206.659,140.928 	"/>
	<polyline fill="#D05800" points="206.659,140.928 207.619,140.928 207.619,141.888 204.5,147.647 203.54,147.647 203.54,146.688 	
		"/>
	<polyline fill="#D05800" points="203.54,146.688 204.5,146.688 204.5,147.647 200.899,152.928 199.939,152.928 199.939,151.968 	
		"/>
	<polyline fill="#D05800" points="199.939,151.968 200.899,151.968 200.899,152.928 196.819,157.488 195.859,157.488 
		195.859,156.527 	"/>
	<polyline fill="#D05800" points="195.859,156.527 196.819,156.527 196.819,157.488 194.659,159.647 193.699,159.647 
		193.699,158.688 	"/>
	<polyline fill="#D05800" points="193.699,158.688 194.659,158.688 194.659,159.647 192.5,161.567 191.54,161.567 191.54,160.607 	
		"/>
	<polyline fill="#D05800" points="191.54,160.607 192.5,160.607 192.5,161.567 191.299,162.527 190.339,162.527 190.339,161.567 	
		"/>
	<polyline fill="#D05800" points="190.339,161.567 191.299,161.567 191.299,162.527 190.099,163.008 189.139,163.008 
		189.139,162.047 	"/>
	<polyline fill="#D05800" points="189.139,162.047 190.099,162.047 190.099,163.008 188.899,163.728 187.939,163.728 
		187.939,162.768 	"/>
	<polyline fill="#D05800" points="187.939,162.768 188.899,162.768 188.899,163.728 187.459,163.968 186.5,163.968 186.5,163.008 	
		"/>
	
		<line fill="none" stroke="#D05800" stroke-width="0.96" stroke-miterlimit="10" x1="185.54" y1="163.488" x2="187.459" y2="163.488"/>
	<polyline fill="#D05800" points="184.339,162.768 185.299,162.768 186.5,163.008 186.5,163.968 185.54,163.968 184.339,163.728 	
		"/>
	<polyline fill="#D05800" points="183.139,162.287 184.099,162.287 185.299,162.768 185.299,163.728 184.339,163.728 
		183.139,163.248 	"/>
	<polyline fill="#D05800" points="182.179,161.808 183.139,161.808 184.099,162.287 184.099,163.248 183.139,163.248 
		182.179,162.768 	"/>
	<polyline fill="#D05800" points="180.019,160.607 180.979,160.607 183.139,161.808 183.139,162.768 182.179,162.768 
		180.019,161.567 	"/>
	<polyline fill="#D05800" points="178.099,160.127 179.059,160.127 180.979,160.607 180.979,161.567 180.019,161.567 
		178.099,161.088 	"/>
	<polyline fill="#D05800" points="178.099,160.127 179.059,160.127 179.059,161.088 178.339,161.328 177.379,161.328 
		177.379,160.367 	"/>
	<polyline fill="#D05800" points="177.379,160.367 178.339,160.367 178.339,161.328 177.379,161.567 176.419,161.567 
		176.419,160.607 	"/>
	<polyline fill="#D05800" points="176.419,160.607 177.379,160.607 177.379,161.567 175.699,162.527 174.739,162.527 
		174.739,161.567 	"/>
	<polyline fill="#D05800" points="174.739,161.567 175.699,161.567 175.699,162.527 172.099,164.928 171.139,164.928 
		171.139,163.968 	"/>
	<polyline fill="#D05800" points="171.139,163.968 172.099,163.968 172.099,164.928 169.939,166.367 168.979,166.367 
		168.979,165.408 	"/>
	<polyline fill="#D05800" points="168.979,165.408 169.939,165.408 169.939,166.367 167.779,167.328 166.819,167.328 
		166.819,166.367 	"/>
	<polyline fill="#D05800" points="166.819,166.367 167.779,166.367 167.779,167.328 166.579,167.808 165.619,167.808 
		165.619,166.848 	"/>
	<polyline fill="#D05800" points="165.619,166.848 166.579,166.848 166.579,167.808 165.619,168.287 164.659,168.287 
		164.659,167.328 	"/>
	
		<line fill="none" stroke="#D05800" stroke-width="0.96" stroke-miterlimit="10" x1="163.699" y1="167.808" x2="165.619" y2="167.808"/>
	<polyline fill="#D05800" points="162.979,167.088 163.939,167.088 164.659,167.328 164.659,168.287 163.699,168.287 
		162.979,168.047 	"/>
	<polyline fill="#D05800" points="162.259,166.848 163.219,166.848 163.939,167.088 163.939,168.047 162.979,168.047 
		162.259,167.808 	"/>
	<polyline fill="#D05800" points="161.54,166.367 162.5,166.367 163.219,166.848 163.219,167.808 162.259,167.808 161.54,167.328 	
		"/>
	<polyline fill="#D05800" points="161.059,165.408 162.019,165.408 162.5,166.367 162.5,167.328 161.54,167.328 161.059,166.367 	
		"/>
	<polyline fill="#D05800" points="160.339,164.447 161.299,164.447 162.019,165.408 162.019,166.367 161.059,166.367 
		160.339,165.408 	"/>
	<polyline fill="#D05800" points="159.619,163.008 160.579,163.008 161.299,164.447 161.299,165.408 160.339,165.408 
		159.619,163.968 	"/>
	<polyline fill="#D05800" points="158.659,162.047 159.619,162.047 160.579,163.008 160.579,163.968 159.619,163.968 
		158.659,163.008 	"/>
	<polyline fill="#D05800" points="157.219,161.567 158.179,161.567 159.619,162.047 159.619,163.008 158.659,163.008 
		157.219,162.527 	"/>
	
		<line fill="none" stroke="#D05800" stroke-width="0.96" stroke-miterlimit="10" x1="155.54" y1="162.047" x2="158.179" y2="162.047"/>
	<polyline fill="#D05800" points="155.54,161.567 156.5,161.567 156.5,162.527 154.579,163.008 153.619,163.008 153.619,162.047 	
		"/>
	<polyline fill="#D05800" points="153.619,162.047 154.579,162.047 154.579,163.008 152.419,163.728 151.459,163.728 
		151.459,162.768 	"/>
	<polyline fill="#D05800" points="151.459,162.768 152.419,162.768 152.419,163.728 150.019,164.928 149.059,164.928 
		149.059,163.968 	"/>
	<polyline fill="#D05800" points="149.059,163.968 150.019,163.968 150.019,164.928 147.139,166.607 146.179,166.607 
		146.179,165.647 	"/>
	<polyline fill="#D05800" points="146.179,165.647 147.139,165.647 147.139,166.607 144.5,168.287 143.54,168.287 143.54,167.328 	
		"/>
	<polyline fill="#D05800" points="143.54,167.328 144.5,167.328 144.5,168.287 142.099,169.488 141.139,169.488 141.139,168.527 	
		"/>
	<polyline fill="#D05800" points="141.139,168.527 142.099,168.527 142.099,169.488 139.939,170.207 138.979,170.207 
		138.979,169.248 	"/>
	<polyline fill="#D05800" points="138.979,169.248 139.939,169.248 139.939,170.207 138.019,170.447 137.059,170.447 
		137.059,169.488 	"/>
	
		<line fill="none" stroke="#D05800" stroke-width="0.96" stroke-miterlimit="10" x1="135.619" y1="169.968" x2="138.019" y2="169.968"/>
	<polyline fill="#D05800" points="134.659,169.008 135.619,169.008 136.579,169.488 136.579,170.447 135.619,170.447 
		134.659,169.968 	"/>
	<polyline fill="#D05800" points="133.699,168.047 134.659,168.047 135.619,169.008 135.619,169.968 134.659,169.968 
		133.699,169.008 	"/>
	<polyline fill="#D05800" points="133.219,166.607 134.179,166.607 134.659,168.047 134.659,169.008 133.699,169.008 
		133.219,167.567 	"/>
	<polyline fill="#D05800" points="132.739,165.168 133.699,165.168 134.179,166.607 134.179,167.567 133.219,167.567 
		132.739,166.127 	"/>
	<polyline fill="#D05800" points="132.259,163.728 133.219,163.728 133.699,165.168 133.699,166.127 132.739,166.127 
		132.259,164.688 	"/>
	<polyline fill="#D05800" points="131.299,162.527 132.259,162.527 133.219,163.728 133.219,164.688 132.259,164.688 
		131.299,163.488 	"/>
	<polyline fill="#D05800" points="130.339,161.808 131.299,161.808 132.259,162.527 132.259,163.488 131.299,163.488 
		130.339,162.768 	"/>
	<polyline fill="#D05800" points="128.899,161.088 129.859,161.088 131.299,161.808 131.299,162.768 130.339,162.768 
		128.899,162.047 	"/>
	<polyline fill="#D05800" points="127.459,160.607 128.419,160.607 129.859,161.088 129.859,162.047 128.899,162.047 
		127.459,161.567 	"/>
	<polyline fill="#D05800" points="125.779,160.367 126.739,160.367 128.419,160.607 128.419,161.567 127.459,161.567 
		125.779,161.328 	"/>
	<polyline fill="#D05800" points="123.619,160.127 124.579,160.127 126.739,160.367 126.739,161.328 125.779,161.328 
		123.619,161.088 	"/>
	<polyline fill="#D05800" points="123.619,160.127 124.579,160.127 124.579,161.088 120.739,161.567 119.779,161.567 
		119.779,160.607 	"/>
	<polyline fill="#D05800" points="119.779,160.607 120.739,160.607 120.739,161.567 116.659,162.287 115.699,162.287 
		115.699,161.328 	"/>
	<polyline fill="#D05800" points="115.699,161.328 116.659,161.328 116.659,162.287 112.339,163.488 111.379,163.488 
		111.379,162.527 	"/>
	<polyline fill="#D05800" points="111.379,162.527 112.339,162.527 112.339,163.488 108.259,165.168 107.299,165.168 
		107.299,164.207 	"/>
	<polyline fill="#D05800" points="107.299,164.207 108.259,164.207 108.259,165.168 106.339,166.127 105.379,166.127 
		105.379,165.168 	"/>
	<polyline fill="#D05800" points="105.379,165.168 106.339,165.168 106.339,166.127 104.419,166.848 103.459,166.848 
		103.459,165.888 	"/>
	<polyline fill="#D05800" points="103.459,165.888 104.419,165.888 104.419,166.848 102.739,167.328 101.779,167.328 
		101.779,166.367 	"/>
	
		<line fill="none" stroke="#D05800" stroke-width="0.96" stroke-miterlimit="10" x1="100.099" y1="166.848" x2="102.739" y2="166.848"/>
	
		<line fill="none" stroke="#D05800" stroke-width="0.96" stroke-miterlimit="10" x1="98.419" y1="166.848" x2="101.059" y2="166.848"/>
	<polyline fill="#D05800" points="96.979,166.127 97.939,166.127 99.379,166.367 99.379,167.328 98.419,167.328 96.979,167.088 	"/>
	<polyline fill="#D05800" points="95.779,165.647 96.739,165.647 97.939,166.127 97.939,167.088 96.979,167.088 95.779,166.607 	"/>
	<polyline fill="#D05800" points="94.579,164.688 95.54,164.688 96.739,165.647 96.739,166.607 95.779,166.607 94.579,165.647 	"/>
	<polyline fill="#D05800" points="90.5,161.567 91.459,161.567 95.54,164.688 95.54,165.647 94.579,165.647 90.5,162.527 	"/>
	<polyline fill="#D05800" points="86.659,157.728 87.619,157.728 91.459,161.567 91.459,162.527 90.5,162.527 86.659,158.688 	"/>
	<polyline fill="#D05800" points="83.299,153.408 84.259,153.408 87.619,157.728 87.619,158.688 86.659,158.688 83.299,154.367 	"/>
	<polyline fill="#D05800" points="80.179,148.607 81.139,148.607 84.259,153.408 84.259,154.367 83.299,154.367 80.179,149.567 	"/>
	<polyline fill="#D05800" points="77.54,143.567 78.5,143.567 81.139,148.607 81.139,149.567 80.179,149.567 77.54,144.527 	"/>
	<polyline fill="#D05800" points="75.139,137.808 76.099,137.808 78.5,143.567 78.5,144.527 77.54,144.527 75.139,138.768 	"/>
	<polyline fill="#D05800" points="72.979,131.567 73.939,131.567 76.099,137.808 76.099,138.768 75.139,138.768 72.979,132.527 	"/>
	<polyline fill="#D05800" points="71.299,124.848 72.259,124.848 73.939,131.567 73.939,132.527 72.979,132.527 71.299,125.808 	"/>
	<polyline fill="#D05800" points="70.099,117.647 71.059,117.647 72.259,124.848 72.259,125.808 71.299,125.808 70.099,118.607 	"/>
	<polyline fill="#D05800" points="69.619,110.447 70.579,110.447 71.059,117.647 71.059,118.607 70.099,118.607 69.619,111.408 	"/>
	<polyline fill="#D05800" points="69.859,103.008 70.819,103.008 70.819,103.967 70.579,111.408 69.619,111.408 69.619,110.447 	"/>
	<polyline fill="#D05800" points="71.059,95.808 72.019,95.808 72.019,96.768 70.819,103.967 69.859,103.967 69.859,103.008 	"/>
	<polyline fill="#D05800" points="72.739,88.367 73.699,88.367 73.699,89.328 72.019,96.768 71.059,96.768 71.059,95.808 	"/>
	<polyline fill="#D05800" points="75.379,81.168 76.339,81.168 76.339,82.127 73.699,89.328 72.739,89.328 72.739,88.367 	"/>
	<polyline fill="#D05800" points="78.739,73.967 79.699,73.967 79.699,74.928 76.339,82.127 75.379,82.127 75.379,81.168 	"/>
	<polyline fill="#D05800" points="80.899,70.127 81.859,70.127 81.859,71.088 79.699,74.928 78.739,74.928 78.739,73.967 	"/>
	<polyline fill="#D05800" points="82.819,66.527 83.779,66.527 83.779,67.488 81.859,71.088 80.899,71.088 80.899,70.127 	"/>
	<polyline fill="#D05800" points="84.739,64.607 85.699,64.607 85.699,65.567 83.779,67.488 82.819,67.488 82.819,66.527 	"/>
	<polyline fill="#D05800" points="86.419,62.688 87.379,62.688 87.379,63.647 85.699,65.567 84.739,65.567 84.739,64.607 	"/>
	<polyline fill="#D05800" points="88.579,61.008 89.54,61.008 89.54,61.967 87.379,63.647 86.419,63.647 86.419,62.688 	"/>
	<polyline fill="#D05800" points="90.739,59.567 91.699,59.567 91.699,60.527 89.54,61.967 88.579,61.967 88.579,61.008 	"/>
	<polyline fill="#D05800" points="92.899,58.367 93.859,58.367 93.859,59.328 91.699,60.527 90.739,60.527 90.739,59.567 	"/>
	<polyline fill="#D05800" points="95.54,57.168 96.5,57.168 96.5,58.127 93.859,59.328 92.899,59.328 92.899,58.367 	"/>
	<polyline fill="#D05800" points="98.179,56.207 99.139,56.207 99.139,57.168 96.5,58.127 95.54,58.127 95.54,57.168 	"/>
	<polyline fill="#D05800" points="100.819,55.488 101.779,55.488 101.779,56.447 99.139,57.168 98.179,57.168 98.179,56.207 	"/>
	<polyline fill="#D05800" points="102.739,55.248 103.699,55.248 103.699,56.207 101.779,56.447 100.819,56.447 100.819,55.488 	"/>
	
		<line fill="none" stroke="#D05800" stroke-width="0.96" stroke-miterlimit="10" x1="102.739" y1="55.728" x2="105.379" y2="55.728"/>
	
		<line fill="none" stroke="#D05800" stroke-width="0.96" stroke-miterlimit="10" x1="104.419" y1="55.728" x2="107.059" y2="55.728"/>
	<polyline fill="#D05800" points="106.099,55.248 107.059,55.248 108.259,55.488 108.259,56.447 107.299,56.447 106.099,56.207 	"/>
	<polyline fill="#D05800" points="107.299,55.488 108.259,55.488 109.699,55.967 109.699,56.928 108.739,56.928 107.299,56.447 	"/>
	<polyline fill="#D05800" points="108.739,55.967 109.699,55.967 110.659,56.447 110.659,57.408 109.699,57.408 108.739,56.928 	"/>
	<polyline fill="#D05800" points="109.699,56.447 110.659,56.447 111.619,57.168 111.619,58.127 110.659,58.127 109.699,57.408 	"/>
	<polyline fill="#D05800" points="110.659,57.168 111.619,57.168 112.339,57.888 112.339,58.848 111.379,58.848 110.659,58.127 	"/>
	<polyline fill="#D05800" points="111.379,57.888 112.339,57.888 113.059,58.848 113.059,59.808 112.099,59.808 111.379,58.848 	"/>
	<polyline fill="#D05800" points="112.099,58.848 113.059,58.848 113.779,59.328 113.779,60.287 112.819,60.287 112.099,59.808 	"/>
	<polyline fill="#D05800" points="112.819,59.328 113.779,59.328 114.5,59.567 114.5,60.527 113.54,60.527 112.819,60.287 	"/>
	
		<line fill="none" stroke="#D05800" stroke-width="0.96" stroke-miterlimit="10" x1="113.54" y1="60.047" x2="115.219" y2="60.047"/>
	
		<line fill="none" stroke="#D05800" stroke-width="0.96" stroke-miterlimit="10" x1="114.259" y1="60.047" x2="116.179" y2="60.047"/>
	<polyline fill="#D05800" points="115.939,59.088 116.899,59.088 116.899,60.047 116.179,60.527 115.219,60.527 115.219,59.567 	"/>
	<polyline fill="#D05800" points="116.899,58.607 117.859,58.607 117.859,59.567 116.899,60.047 115.939,60.047 115.939,59.088 	"/>
	<polyline fill="#D05800" points="117.619,57.647 118.579,57.647 118.579,58.607 117.859,59.567 116.899,59.567 116.899,58.607 	"/>
	<polyline fill="#D05800" points="119.059,56.688 120.019,56.688 120.019,57.647 118.579,58.607 117.619,58.607 117.619,57.647 	"/>
	<polyline fill="#D05800" points="120.259,55.967 121.219,55.967 121.219,56.928 120.019,57.647 119.059,57.647 119.059,56.688 	"/>
	<polyline fill="#D05800" points="121.219,55.488 122.179,55.488 122.179,56.447 121.219,56.928 120.259,56.928 120.259,55.967 	"/>
	
		<line fill="none" stroke="#D05800" stroke-width="0.96" stroke-miterlimit="10" x1="121.219" y1="55.968" x2="123.139" y2="55.968"/>
	<polyline fill="#D05800" points="122.179,55.488 123.139,55.488 124.099,55.728 124.099,56.688 123.139,56.688 122.179,56.447 	"/>
	<polyline fill="#D05800" points="123.139,55.728 124.099,55.728 124.579,56.207 124.579,57.168 123.619,57.168 123.139,56.688 	"/>
	<polyline fill="#D05800" points="123.619,56.207 124.579,56.207 125.299,56.928 125.299,57.888 124.339,57.888 123.619,57.168 	"/>
	<polyline fill="#D05800" points="124.339,56.928 125.299,56.928 125.779,57.888 125.779,58.848 124.819,58.848 124.339,57.888 	"/>
	<polyline fill="#D05800" points="175.459,55.488 176.419,55.488 176.419,56.447 175.219,57.647 174.259,57.647 174.259,56.688 	"/>
	<polyline fill="#D05800" points="176.659,54.527 177.619,54.527 177.619,55.488 176.419,56.447 175.459,56.447 175.459,55.488 	"/>
	<polyline fill="#D05800" points="178.099,53.808 179.059,53.808 179.059,54.768 177.619,55.488 176.659,55.488 176.659,54.527 	"/>
	<polyline fill="#D05800" points="179.54,53.088 180.5,53.088 180.5,54.047 179.059,54.768 178.099,54.768 178.099,53.808 	"/>
	
		<line fill="none" stroke="#D05800" stroke-width="0.96" stroke-miterlimit="10" x1="179.54" y1="53.567" x2="181.939" y2="53.567"/>
	
		<line fill="none" stroke="#D05800" stroke-width="0.96" stroke-miterlimit="10" x1="180.979" y1="53.567" x2="183.379" y2="53.567"/>
	<polyline fill="#D05800" points="182.419,53.088 183.379,53.088 184.819,53.328 184.819,54.287 183.859,54.287 182.419,54.047 	"/>
	<polyline fill="#D05800" points="183.859,53.328 184.819,53.328 186.5,53.808 186.5,54.768 185.54,54.768 183.859,54.287 	"/>
	<polyline fill="#D05800" points="185.54,53.808 186.5,53.808 188.179,55.008 188.179,55.967 187.219,55.967 185.54,54.768 	"/>
	<polyline fill="#D05800" points="187.219,55.008 188.179,55.008 189.619,56.447 189.619,57.408 188.659,57.408 187.219,55.967 	"/>
	<polyline fill="#D05800" points="188.659,56.447 189.619,56.447 190.819,58.127 190.819,59.088 189.859,59.088 188.659,57.408 	"/>
	<polyline fill="#D05800" points="189.859,58.127 190.819,58.127 191.54,59.808 191.54,60.768 190.579,60.768 189.859,59.088 	"/>
	
		<line fill="none" stroke="#D05800" stroke-width="0.96" stroke-miterlimit="10" x1="172.099" y1="57.168" x2="175.219" y2="57.168"/>
	<polyline fill="#D05800" points="172.099,56.688 173.059,56.688 173.059,57.647 171.139,57.888 170.179,57.888 170.179,56.928 	"/>
	<polyline fill="#D05800" points="170.179,56.928 171.139,56.928 171.139,57.888 169.459,58.127 168.5,58.127 168.5,57.168 	"/>
	<polyline fill="#D05800" points="168.5,57.168 169.459,57.168 169.459,58.127 168.019,58.607 167.059,58.607 167.059,57.647 	"/>
	<polyline fill="#D05800" points="167.059,57.647 168.019,57.647 168.019,58.607 167.059,59.328 166.099,59.328 166.099,58.367 	"/>
	<polyline fill="#D05800" points="166.099,58.367 167.059,58.367 167.059,59.328 165.859,59.808 164.899,59.808 164.899,58.848 	"/>
	<polyline fill="#D05800" points="164.899,58.848 165.859,58.848 165.859,59.808 164.899,60.047 163.939,60.047 163.939,59.088 	"/>
	
		<line fill="none" stroke="#D05800" stroke-width="0.96" stroke-miterlimit="10" x1="162.979" y1="59.567" x2="164.899" y2="59.567"/>
	<polyline fill="#D05800" points="162.259,58.848 163.219,58.848 163.939,59.088 163.939,60.047 162.979,60.047 162.259,59.808 	"/>
	<polyline fill="#D05800" points="161.54,58.607 162.5,58.607 163.219,58.848 163.219,59.808 162.259,59.808 161.54,59.567 	"/>
	<polyline fill="#D05800" points="160.819,58.127 161.779,58.127 162.5,58.607 162.5,59.567 161.54,59.567 160.819,59.088 	"/>
	<polyline fill="#D05800" points="160.099,57.408 161.059,57.408 161.779,58.127 161.779,59.088 160.819,59.088 160.099,58.367 	"/>
	<polyline fill="#D05800" points="96.5,149.328 97.459,149.328 100.099,154.367 100.099,155.328 99.139,155.328 96.5,150.287 	"/>
	<polyline fill="#D05800" points="93.859,144.047 94.819,144.047 97.459,149.328 97.459,150.287 96.5,150.287 93.859,145.008 	"/>
	<polyline fill="#D05800" points="91.699,138.768 92.659,138.768 94.819,144.047 94.819,145.008 93.859,145.008 91.699,139.728 	"/>
	<polyline fill="#D05800" points="89.779,133.488 90.739,133.488 92.659,138.768 92.659,139.728 91.699,139.728 89.779,134.447 	"/>
	<polyline fill="#D05800" points="88.339,128.447 89.299,128.447 90.739,133.488 90.739,134.447 89.779,134.447 88.339,129.408 	"/>
	<polyline fill="#D05800" points="86.899,123.168 87.859,123.168 89.299,128.447 89.299,129.408 88.339,129.408 86.899,124.127 	"/>
	<polyline fill="#D05800" points="85.939,117.888 86.899,117.888 87.859,123.168 87.859,124.127 86.899,124.127 85.939,118.848 	"/>
	<polyline fill="#D05800" points="85.219,112.848 86.179,112.848 86.899,117.888 86.899,118.848 85.939,118.848 85.219,113.808 	"/>
	<polyline fill="#D05800" points="84.739,107.808 85.699,107.808 86.179,112.848 86.179,113.808 85.219,113.808 84.739,108.768 	"/>
	
		<line fill="none" stroke="#D05800" stroke-width="0.96" stroke-miterlimit="10" x1="85.219" y1="102.527" x2="85.219" y2="108.768"/>
	
		<line fill="none" stroke="#D05800" stroke-width="0.96" stroke-miterlimit="10" x1="85.219" y1="97.488" x2="85.219" y2="103.488"/>
	<polyline fill="#D05800" points="85.219,92.207 86.179,92.207 86.179,93.168 85.699,98.447 84.739,98.447 84.739,97.488 	"/>
	<polyline fill="#D05800" points="85.939,87.168 86.899,87.168 86.899,88.127 86.179,93.168 85.219,93.168 85.219,92.207 	"/>
	<polyline fill="#D05800" points="86.899,81.888 87.859,81.888 87.859,82.848 86.899,88.127 85.939,88.127 85.939,87.168 	"/>
	<polyline fill="#D05800" points="88.099,76.848 89.059,76.848 89.059,77.808 87.859,82.848 86.899,82.848 86.899,81.888 	"/>
	<polyline fill="#D05800" points="89.779,71.567 90.739,71.567 90.739,72.527 89.059,77.808 88.099,77.808 88.099,76.848 	"/>
	<polyline fill="#D05800" points="90.739,69.408 91.699,69.408 91.699,70.367 90.739,72.527 89.779,72.527 89.779,71.567 	"/>
	<polyline fill="#D05800" points="91.939,67.248 92.899,67.248 92.899,68.207 91.699,70.367 90.739,70.367 90.739,69.408 	"/>
	<polyline fill="#D05800" points="92.899,65.567 93.859,65.567 93.859,66.527 92.899,68.207 91.939,68.207 91.939,67.248 	"/>
	<polyline fill="#D05800" points="94.099,63.888 95.059,63.888 95.059,64.848 93.859,66.527 92.899,66.527 92.899,65.567 	"/>
	<polyline fill="#D05800" points="95.299,62.688 96.259,62.688 96.259,63.647 95.059,64.848 94.099,64.848 94.099,63.888 	"/>
	<polyline fill="#D05800" points="96.5,61.728 97.459,61.728 97.459,62.688 96.259,63.647 95.299,63.647 95.299,62.688 	"/>
	<polyline fill="#D05800" points="97.699,61.008 98.659,61.008 98.659,61.967 97.459,62.688 96.5,62.688 96.5,61.728 	"/>
	<polyline fill="#D05800" points="98.899,60.287 99.859,60.287 99.859,61.248 98.659,61.967 97.699,61.967 97.699,61.008 	"/>
	<polyline fill="#D05800" points="102.019,59.808 102.979,59.808 102.979,60.768 99.859,61.248 98.899,61.248 98.899,60.287 	"/>
	<polyline fill="#D05800" points="102.019,59.808 102.979,59.808 105.859,60.047 105.859,61.008 104.899,61.008 102.019,60.768 	"/>
	<polyline fill="#D05800" points="104.899,60.047 105.859,60.047 108.739,61.008 108.739,61.967 107.779,61.967 104.899,61.008 	"/>
	<polyline fill="#D05800" points="107.779,61.008 108.739,61.008 111.619,62.688 111.619,63.647 110.659,63.647 107.779,61.967 	"/>
	<polyline fill="#D05800" points="110.659,62.688 111.619,62.688 112.339,63.168 112.339,64.127 111.379,64.127 110.659,63.647 	"/>
	<polyline fill="#D05800" points="111.379,63.168 112.339,63.168 113.059,63.647 113.059,64.607 112.099,64.607 111.379,64.127 	"/>
	<polyline fill="#D05800" points="112.099,63.647 113.059,63.647 113.779,63.888 113.779,64.848 112.819,64.848 112.099,64.607 	"/>
	
		<line fill="none" stroke="#D05800" stroke-width="0.96" stroke-miterlimit="10" x1="112.819" y1="64.367" x2="114.739" y2="64.367"/>
	<polyline fill="#D05800" points="114.5,63.647 115.459,63.647 115.459,64.607 114.739,64.848 113.779,64.848 113.779,63.888 	"/>
	<polyline fill="#D05800" points="115.219,63.168 116.179,63.168 116.179,64.127 115.459,64.607 114.5,64.607 114.5,63.647 	"/>
	<polyline fill="#D05800" points="116.179,62.447 117.139,62.447 117.139,63.408 116.179,64.127 115.219,64.127 115.219,63.168 	"/>
	<polyline fill="#D05800" points="116.899,61.488 117.859,61.488 117.859,62.447 117.139,63.408 116.179,63.408 116.179,62.447 	"/>
	<polyline fill="#D05800" points="119.059,60.047 120.019,60.047 120.019,61.008 117.859,62.447 116.899,62.447 116.899,61.488 	"/>
	<polyline fill="#D05800" points="120.979,58.848 121.939,58.848 121.939,59.808 120.019,61.008 119.059,61.008 119.059,60.047 	"/>
	<polyline fill="#D05800" points="122.899,58.127 123.859,58.127 123.859,59.088 121.939,59.808 120.979,59.808 120.979,58.848 	"/>
	<polyline fill="#D05800" points="124.819,57.888 125.779,57.888 125.779,58.848 123.859,59.088 122.899,59.088 122.899,58.127 	"/>
	<polyline fill="#D05800" points="114.979,142.127 115.939,142.127 119.059,151.008 119.059,151.968 118.099,151.968 
		114.979,143.088 	"/>
	<polyline fill="#D05800" points="112.579,132.768 113.54,132.768 115.939,142.127 115.939,143.088 114.979,143.088 
		112.579,133.728 	"/>
	<polyline fill="#D05800" points="110.659,123.408 111.619,123.408 113.54,132.768 113.54,133.728 112.579,133.728 110.659,124.367 
			"/>
	<polyline fill="#D05800" points="109.699,113.567 110.659,113.567 111.619,123.408 111.619,124.367 110.659,124.367 
		109.699,114.527 	"/>
	<polyline fill="#D05800" points="109.219,103.728 110.179,103.728 110.659,113.567 110.659,114.527 109.699,114.527 
		109.219,104.688 	"/>
	
		<line fill="none" stroke="#D05800" stroke-width="0.96" stroke-miterlimit="10" x1="109.699" y1="93.408" x2="109.699" y2="104.688"/>
	<polyline fill="#D05800" points="110.179,83.088 111.139,83.088 111.139,84.047 110.179,94.367 109.219,94.367 109.219,93.408 	"/>
	<polyline fill="#D05800" points="111.619,72.287 112.579,72.287 112.579,73.248 111.139,84.047 110.179,84.047 110.179,83.088 	"/>
	<polyline fill="#D05800" points="180.979,149.088 181.939,149.088 181.939,150.047 178.819,157.248 177.859,157.248 
		177.859,156.287 	"/>
	<polyline fill="#D05800" points="183.859,142.127 184.819,142.127 184.819,143.088 181.939,150.047 180.979,150.047 
		180.979,149.088 	"/>
	<polyline fill="#D05800" points="186.259,135.168 187.219,135.168 187.219,136.127 184.819,143.088 183.859,143.088 
		183.859,142.127 	"/>
	<polyline fill="#D05800" points="188.419,128.447 189.379,128.447 189.379,129.408 187.219,136.127 186.259,136.127 
		186.259,135.168 	"/>
	<polyline fill="#D05800" points="190.339,121.968 191.299,121.968 191.299,122.928 189.379,129.408 188.419,129.408 
		188.419,128.447 	"/>
	<polyline fill="#D05800" points="192.019,115.488 192.979,115.488 192.979,116.447 191.299,122.928 190.339,122.928 
		190.339,121.968 	"/>
	<polyline fill="#D05800" points="193.219,109.248 194.179,109.248 194.179,110.207 192.979,116.447 192.019,116.447 
		192.019,115.488 	"/>
	<polyline fill="#D05800" points="194.179,103.008 195.139,103.008 195.139,103.967 194.179,110.207 193.219,110.207 
		193.219,109.248 	"/>
	<polyline fill="#D05800" points="194.899,97.008 195.859,97.008 195.859,97.967 195.139,103.967 194.179,103.967 194.179,103.008 	
		"/>
	<polyline fill="#D05800" points="195.139,91.248 196.099,91.248 196.099,92.207 195.859,97.967 194.899,97.967 194.899,97.008 	"/>
	
		<line fill="none" stroke="#D05800" stroke-width="0.96" stroke-miterlimit="10" x1="195.619" y1="85.728" x2="195.619" y2="92.207"/>
	<polyline fill="#D05800" points="194.899,80.207 195.859,80.207 196.099,85.728 196.099,86.688 195.139,86.688 194.899,81.168 	"/>
	<polyline fill="#D05800" points="194.419,74.928 195.379,74.928 195.859,80.207 195.859,81.168 194.899,81.168 194.419,75.888 	"/>
	<polyline fill="#D05800" points="193.459,69.647 194.419,69.647 195.379,74.928 195.379,75.888 194.419,75.888 193.459,70.607 	"/>
	<polyline fill="#D05800" points="192.259,64.848 193.219,64.848 194.419,69.647 194.419,70.607 193.459,70.607 192.259,65.808 	"/>
	<polyline fill="#D05800" points="190.579,59.808 191.54,59.808 193.219,64.848 193.219,65.808 192.259,65.808 190.579,60.768 	"/>
	<polyline fill="#D05800" points="132.739,142.607 133.699,142.607 134.179,152.447 134.179,153.408 133.219,153.408 
		132.739,143.567 	"/>
	<polyline fill="#D05800" points="132.259,132.768 133.219,132.768 133.699,142.607 133.699,143.567 132.739,143.567 
		132.259,133.728 	"/>
	<polyline fill="#D05800" points="132.019,112.367 132.979,112.367 133.219,132.768 133.219,133.728 132.259,133.728 
		132.019,113.328 	"/>
	<polyline fill="#D05800" points="132.259,91.728 133.219,91.728 133.219,92.688 132.979,113.328 132.019,113.328 132.019,112.367 	
		"/>
	<polyline fill="#D05800" points="133.219,70.367 134.179,70.367 134.179,71.328 133.219,92.688 132.259,92.688 132.259,91.728 	"/>
	<polyline fill="#D05800" points="160.099,57.408 161.059,57.408 161.779,58.607 161.779,59.567 160.819,59.567 160.099,58.367 	"/>
	<polyline fill="#D05800" points="160.819,58.607 161.779,58.607 162.259,59.808 162.259,60.768 161.299,60.768 160.819,59.567 	"/>
	<polyline fill="#D05800" points="161.299,59.808 162.259,59.808 163.699,61.967 163.699,62.928 162.739,62.928 161.299,60.768 	"/>
	<polyline fill="#D05800" points="162.739,61.967 163.699,61.967 164.899,63.408 164.899,64.367 163.939,64.367 162.739,62.928 	"/>
	<polyline fill="#D05800" points="163.939,63.408 164.899,63.408 166.339,64.367 166.339,65.328 165.379,65.328 163.939,64.367 	"/>
	<polyline fill="#D05800" points="165.379,64.367 166.339,64.367 167.54,64.607 167.54,65.567 166.579,65.567 165.379,65.328 	"/>
	<polyline fill="#D05800" points="168.019,64.367 168.979,64.367 168.979,65.328 167.54,65.567 166.579,65.567 166.579,64.607 	"/>
	<polyline fill="#D05800" points="169.219,63.408 170.179,63.408 170.179,64.367 168.979,65.328 168.019,65.328 168.019,64.367 	"/>
	<polyline fill="#D05800" points="170.659,61.967 171.619,61.967 171.619,62.928 170.179,64.367 169.219,64.367 169.219,63.408 	"/>
	<polyline fill="#D05800" points="172.099,59.808 173.059,59.808 173.059,60.768 171.619,62.928 170.659,62.928 170.659,61.967 	"/>
	<polyline fill="#D05800" points="173.059,58.367 174.019,58.367 174.019,59.328 173.059,60.768 172.099,60.768 172.099,59.808 	"/>
	<polyline fill="#D05800" points="174.259,56.688 175.219,56.688 175.219,57.647 174.019,59.328 173.059,59.328 173.059,58.367 	"/>
	<polyline fill-rule="evenodd" clip-rule="evenodd" fill="#008F68" points="252.979,148.367 253.219,144.768 253.219,141.647 
		252.259,138.527 251.059,135.888 248.899,132.527 246.739,129.888 247.219,127.968 247.699,125.088 247.939,122.207 
		247.939,119.328 247.459,116.688 246.739,113.808 245.779,111.168 244.339,109.008 242.659,107.088 240.5,105.408 238.099,104.207 
		235.219,103.488 232.099,103.248 229.699,103.488 227.54,103.967 225.379,104.688 223.459,105.888 221.54,107.088 219.859,108.768 
		218.179,110.688 216.739,112.848 215.779,116.928 214.819,120.768 216.259,117.168 217.699,114.287 219.139,111.888 
		221.059,109.968 222.739,108.047 224.899,106.848 227.059,105.888 229.459,105.168 232.099,104.928 234.979,104.928 
		237.379,105.647 239.54,106.848 241.699,108.287 243.139,109.968 244.339,112.127 245.299,114.527 246.019,116.928 
		246.259,119.567 246.5,122.207 246.259,124.848 245.54,127.488 245.299,128.688 242.899,126.768 240.259,125.328 237.619,124.367 
		235.219,123.888 233.059,123.888 230.899,124.127 228.739,125.088 226.819,126.527 225.379,128.447 224.419,130.848 
		223.699,133.488 223.459,135.647 223.459,137.808 223.939,139.488 225.379,138.768 225.139,137.328 225.139,135.647 
		225.379,133.488 225.859,131.328 226.819,129.408 228.019,127.728 229.459,126.527 231.139,125.808 233.299,125.567 
		235.219,125.567 237.379,126.047 239.54,126.768 241.939,128.447 244.339,130.127 244.819,130.367 243.379,133.488 
		241.459,136.127 240.019,137.567 238.339,138.768 236.659,139.968 234.979,140.688 233.299,141.408 231.859,141.647 
		230.419,141.888 228.979,141.647 227.779,141.408 226.819,140.688 226.099,139.968 225.379,138.768 223.939,139.488 
		224.659,140.928 225.859,141.888 227.059,142.848 228.5,143.328 230.179,143.567 231.859,143.328 233.779,143.088 235.459,142.367 
		237.619,141.408 239.299,140.207 240.979,138.768 242.659,137.328 244.579,134.688 246.019,131.808 247.699,133.488 
		249.619,136.607 250.819,139.008 251.54,141.647 251.779,144.527 251.54,147.408 250.099,146.447 249.379,145.968 248.179,145.488 
		246.979,145.488 245.54,145.488 244.099,145.968 242.659,146.447 240.259,147.888 239.299,148.848 238.579,150.047 
		237.379,152.447 237.139,153.888 237.139,155.088 237.139,156.287 237.379,157.248 237.859,158.207 238.579,158.928 
		239.54,159.408 240.5,159.888 240.739,159.888 242.419,159.888 243.859,159.647 245.299,159.168 246.5,158.447 247.699,157.488 
		248.899,156.287 250.099,154.848 251.059,152.928 249.619,152.207 248.899,153.888 247.939,155.088 246.979,156.047 
		245.779,157.008 244.819,157.488 243.619,157.968 242.419,158.207 240.979,158.207 239.779,157.488 238.819,156.287 
		238.819,154.848 239.059,152.928 240.019,150.768 241.459,149.088 243.379,147.888 245.779,147.168 247.699,147.168 
		249.139,147.647 249.379,147.647 250.579,149.088 250.819,149.567 249.619,152.207 251.059,152.928 251.299,152.447 
		251.299,154.848 251.059,157.488 251.059,157.728 251.059,160.127 251.299,163.488 252.259,166.848 253.219,169.248 
		254.659,171.647 256.099,174.047 258.019,176.207 259.939,178.127 262.339,180.047 264.979,181.728 267.859,183.408 
		268.579,183.408 269.059,182.928 269.059,182.447 268.579,181.968 265.939,180.527 263.54,178.848 261.139,176.928 
		259.219,175.008 257.54,173.088 256.099,170.928 254.659,168.768 253.699,166.127 252.979,163.248 252.739,160.127 
		252.739,157.728 253.219,155.328 253.219,153.168 252.979,151.248 252.5,149.567 252.979,148.367 	"/>
	<polyline fill-rule="evenodd" clip-rule="evenodd" fill="#25CC97" points="133.459,5.808 132.259,6.768 131.059,7.967 
		129.859,9.647 128.179,11.567 126.5,13.488 124.579,15.168 122.179,16.848 119.299,18.047 121.459,17.808 123.379,18.287 
		125.299,19.008 126.979,20.207 128.899,21.888 130.579,23.808 132.259,26.447 133.699,29.328 134.899,30.047 135.139,30.527 
		135.139,31.008 134.659,31.248 135.859,33.888 136.819,36.768 138.019,39.888 138.979,43.008 139.939,46.607 140.899,50.207 
		141.859,54.287 142.579,58.367 145.699,57.647 145.699,51.168 145.219,44.688 144.5,38.207 143.299,31.967 142.099,25.967 
		140.659,19.967 138.739,14.207 136.819,8.447 136.099,6.768 135.379,6.047 134.419,5.567 133.459,5.808 	"/>
	<polyline fill-rule="evenodd" clip-rule="evenodd" fill="#008F68" points="134.899,30.047 133.699,29.328 132.979,29.088 
		132.019,29.088 131.299,29.567 130.339,30.287 129.619,31.248 128.659,32.928 127.939,34.848 127.219,37.008 126.739,38.447 
		126.259,39.408 125.779,40.367 125.059,41.088 124.579,41.567 123.859,42.047 123.379,42.287 122.419,42.287 122.419,42.047 
		120.5,41.567 118.819,40.127 117.619,38.447 116.659,35.808 116.659,34.127 116.659,32.207 117.379,30.768 118.099,29.328 
		118.099,29.088 119.299,27.888 120.5,27.168 121.459,27.168 122.419,27.647 123.379,28.848 123.859,30.047 123.859,31.248 
		123.379,32.447 122.659,33.168 122.179,33.408 121.459,33.168 120.979,32.447 120.259,32.207 119.779,32.207 119.299,32.688 
		119.54,33.408 120.739,34.607 122.179,35.088 123.379,34.607 124.819,33.408 124.819,33.168 125.54,31.488 125.54,29.808 
		125.059,28.127 123.619,26.447 122.899,25.967 121.939,25.488 121.219,25.488 120.259,25.488 118.579,26.447 117.859,27.168 
		116.899,28.127 115.699,30.047 115.219,31.967 114.979,33.888 115.219,36.287 115.699,37.728 116.179,39.168 116.899,40.367 
		117.619,41.567 118.579,42.287 119.779,43.008 120.979,43.488 122.179,43.728 123.379,43.967 124.339,43.728 125.299,43.488 
		126.019,42.768 126.739,41.808 127.459,40.607 128.179,39.168 128.659,37.488 129.379,35.567 130.099,33.647 130.819,32.447 
		131.54,31.488 132.259,31.008 132.739,30.768 133.459,30.768 133.939,31.248 134.419,31.488 134.659,31.248 135.139,31.008 
		135.139,30.527 134.899,30.047 	"/>
	<polyline fill-rule="evenodd" clip-rule="evenodd" fill="#0BCD96" points="143.059,60.047 145.699,57.647 142.579,58.367 
		143.059,60.047 	"/>
	<polyline fill-rule="evenodd" clip-rule="evenodd" fill="#25CC97" points="51.859,88.367 51.619,86.447 51.859,84.047 
		52.099,81.647 52.819,79.008 50.659,79.488 48.5,79.967 44.179,79.967 43.699,81.647 43.219,83.088 42.5,83.808 41.779,84.287 
		40.579,84.047 37.219,85.008 36.259,84.768 35.299,84.287 34.579,83.328 33.619,82.367 32.899,80.928 32.179,79.488 31.699,77.567 
		30.979,75.408 29.54,76.607 28.099,77.567 26.419,78.287 24.979,78.527 23.299,78.768 21.859,78.527 20.179,78.047 18.5,77.328 
		19.459,78.768 20.179,80.207 20.899,81.647 21.139,83.088 21.379,84.768 21.379,86.447 21.139,88.127 20.659,89.808 22.819,90.047 
		24.5,90.287 26.179,90.527 27.379,91.008 28.579,91.488 29.299,91.967 29.779,92.688 30.019,93.408 30.259,95.808 30.5,95.808 
		29.779,97.967 28.579,99.647 27.379,101.088 25.699,102.047 26.899,104.928 27.619,107.567 27.859,110.447 28.099,113.328 
		30.739,111.888 33.619,110.688 36.739,109.968 39.859,109.728 39.619,108.047 39.859,106.367 40.099,104.688 40.819,102.768 
		42.019,103.728 42.5,104.447 42.739,103.488 43.219,102.527 43.699,102.047 44.659,101.328 43.699,100.848 42.979,100.127 
		42.5,99.168 42.259,98.207 42.019,97.967 41.779,97.728 41.779,97.008 42.019,96.527 42.739,96.527 43.219,96.768 43.699,96.527 
		44.419,96.527 45.379,96.768 46.099,97.008 46.099,96.527 46.579,95.808 47.059,95.328 48.019,95.088 46.819,94.848 46.099,94.367 
		45.859,93.888 45.859,92.688 48.5,90.527 51.859,88.367 	"/>
	<polyline fill-rule="evenodd" clip-rule="evenodd" fill="#008F68" points="73.459,97.248 74.179,97.728 74.899,98.688 
		75.379,99.647 75.379,100.848 75.619,101.328 76.339,101.567 76.819,101.328 77.059,100.848 76.819,98.928 76.339,97.488 
		75.379,96.527 73.939,95.808 71.779,95.328 69.859,95.328 68.419,96.047 67.699,97.008 66.979,97.967 66.739,99.408 
		66.739,101.088 67.219,103.248 67.699,104.928 68.659,106.127 69.859,106.848 70.099,107.088 71.54,107.328 72.979,107.088 
		74.659,106.607 76.579,105.647 78.259,104.688 79.459,103.248 80.419,101.808 80.659,100.127 80.659,98.447 79.939,96.287 
		78.739,93.888 77.299,91.728 75.619,89.808 73.459,88.127 70.819,86.928 67.699,85.967 65.299,85.488 62.899,85.248 60.5,85.248 
		58.579,85.488 56.659,85.967 54.739,86.447 53.299,87.408 51.859,88.607 50.179,90.527 48.979,93.168 48.019,96.287 47.299,99.647 
		47.299,100.127 45.379,98.207 43.219,96.768 42.739,96.527 42.019,96.527 41.779,97.008 41.779,97.728 42.019,97.967 
		42.259,98.207 44.179,99.408 46.099,101.328 46.579,102.047 47.059,102.527 47.299,104.447 47.779,106.127 48.259,107.808 
		48.739,109.248 49.699,110.688 50.659,111.888 51.859,112.848 53.299,113.808 56.419,115.488 58.339,115.968 60.5,116.447 
		62.659,116.928 65.059,117.168 67.699,117.168 70.579,117.168 70.339,115.488 67.699,115.728 65.299,115.488 63.139,115.248 
		60.979,115.008 57.139,114.047 54.019,112.367 52.819,111.647 51.859,110.688 50.179,108.287 49.219,105.647 48.739,102.527 
		48.739,102.287 48.739,101.567 48.979,99.888 49.459,96.768 50.419,93.888 51.619,91.728 53.059,89.808 54.259,88.848 
		55.699,87.888 57.379,87.408 59.059,86.928 60.979,86.928 62.899,86.928 65.059,87.168 67.459,87.408 70.339,88.367 72.979,90.047 
		74.659,91.248 76.099,92.928 77.299,94.848 78.259,96.768 78.979,98.447 79.219,99.888 78.979,101.088 78.259,102.287 
		77.299,103.488 75.859,104.207 74.179,105.168 72.739,105.647 71.54,105.647 70.579,105.408 70.339,105.168 69.619,104.688 
		69.139,103.728 68.659,102.527 68.419,101.088 68.419,99.888 68.659,98.928 68.899,97.967 69.379,97.488 70.339,97.008 
		71.299,97.008 73.459,97.248 	"/>
	<polyline fill-rule="evenodd" clip-rule="evenodd" fill="#0BCD96" points="22.099,95.088 23.059,95.328 23.779,95.808 24.5,96.527 
		24.979,97.488 27.619,96.287 30.259,95.808 30.019,93.408 27.619,93.408 25.219,92.447 24.739,93.408 24.019,94.127 23.059,94.848 
		22.099,95.088 	"/>
	<polyline fill-rule="evenodd" clip-rule="evenodd" fill="#0BCD96" points="38.659,75.647 38.419,76.607 37.699,77.567 
		36.979,78.287 35.779,79.248 36.5,80.688 36.979,82.127 37.219,83.567 37.219,85.008 40.579,84.047 40.579,83.088 40.819,81.888 
		41.059,80.688 41.779,79.248 40.579,78.527 39.619,77.808 39.139,76.848 38.659,75.647 	"/>
	<polyline fill-rule="evenodd" clip-rule="evenodd" fill="#008F68" points="47.54,172.127 50.899,171.408 54.5,169.968 
		58.339,168.047 62.179,164.928 66.019,162.047 68.179,160.848 69.859,159.647 71.779,158.928 73.459,158.207 75.379,157.728 
		77.059,157.488 78.739,157.248 80.419,157.488 83.779,157.968 86.899,159.408 88.579,160.367 90.019,161.567 90.5,161.808 
		90.739,161.808 86.179,157.248 83.54,156.047 80.659,155.567 77.54,155.567 74.419,156.047 71.299,157.248 67.939,158.928 
		64.579,161.088 61.219,163.728 59.299,165.168 57.619,166.607 55.699,167.808 54.019,168.527 52.579,169.488 50.899,169.968 
		49.459,170.447 47.779,170.688 45.139,170.928 42.739,170.447 40.819,169.728 39.379,168.527 38.659,167.567 37.699,166.848 
		37.219,166.127 36.739,165.647 36.019,165.168 35.299,164.688 35.059,164.207 34.819,163.968 34.819,163.488 34.339,162.768 
		33.379,161.328 32.179,158.447 31.459,155.328 31.219,152.447 31.219,149.567 31.459,147.647 31.939,145.968 32.419,144.527 
		33.139,143.088 34.099,142.127 35.059,141.168 36.259,140.688 37.699,139.968 39.139,139.968 40.339,140.207 41.299,140.928 
		42.259,142.127 43.219,146.928 42.979,148.848 42.019,150.047 40.819,151.008 39.139,151.488 38.659,151.968 38.419,152.447 
		38.899,153.168 39.379,153.168 40.579,152.928 41.779,152.447 42.5,151.968 43.219,151.248 43.939,150.527 44.419,149.328 
		44.659,148.367 44.899,146.928 44.899,146.688 43.939,141.647 43.699,141.408 42.5,139.728 41.059,138.527 39.379,138.287 
		37.219,138.527 35.779,139.008 34.339,139.728 32.899,140.688 31.939,141.888 30.979,143.328 30.259,145.248 29.779,147.168 
		29.54,149.328 29.54,153.647 30.259,157.968 25.219,152.928 19.219,148.367 12.979,144.047 5.779,140.447 5.059,140.447 
		4.819,140.688 4.579,141.408 5.059,141.888 9.139,144.047 12.739,145.968 16.339,148.367 19.699,150.768 23.059,153.408 
		25.939,156.047 28.819,158.928 31.459,161.808 31.939,162.287 31.939,162.527 33.139,164.207 33.859,164.928 34.099,165.408 
		34.819,165.888 35.059,166.367 35.299,166.367 36.739,167.808 38.179,169.008 39.619,169.968 41.059,170.928 44.179,171.888 
		45.859,172.127 47.54,172.127 	"/>
	<polyline fill-rule="evenodd" clip-rule="evenodd" fill="#0BCD96" points="177.859,173.088 179.54,174.047 181.699,174.527 
		183.859,174.768 186.5,174.768 189.139,174.527 192.5,173.808 195.859,172.848 199.459,171.408 197.299,171.408 195.379,171.168 
		193.459,170.688 191.779,170.207 190.099,169.488 188.659,168.527 187.459,167.328 186.259,165.888 184.819,164.207 
		183.859,162.768 182.899,161.808 181.939,161.328 180.979,160.367 179.779,159.647 178.819,159.168 177.379,159.168 
		176.179,159.408 174.739,160.127 173.299,161.088 171.619,162.287 167.54,166.127 168.019,166.607 170.419,167.808 
		172.579,169.488 175.219,171.168 177.859,173.088 	"/>
	<polyline fill="#008F68" points="134.179,30.768 135.139,30.768 136.339,33.408 136.339,34.367 135.379,34.367 134.179,31.728 	"/>
	<polyline fill="#008F68" points="135.379,33.408 136.339,33.408 137.299,36.287 137.299,37.248 136.339,37.248 135.379,34.367 	"/>
	<polyline fill="#008F68" points="136.339,36.287 137.299,36.287 138.5,39.408 138.5,40.367 137.54,40.367 136.339,37.248 	"/>
	<polyline fill="#008F68" points="137.54,39.408 138.5,39.408 139.459,42.527 139.459,43.488 138.5,43.488 137.54,40.367 	"/>
	<polyline fill="#008F68" points="138.5,42.527 139.459,42.527 140.419,46.127 140.419,47.088 139.459,47.088 138.5,43.488 	"/>
	<polyline fill="#008F68" points="139.459,46.127 140.419,46.127 141.379,49.728 141.379,50.688 140.419,50.688 139.459,47.088 	"/>
	<polyline fill="#008F68" points="140.419,49.728 141.379,49.728 142.339,53.808 142.339,54.768 141.379,54.768 140.419,50.688 	"/>
	<polyline fill="#008F68" points="141.379,53.808 142.339,53.808 143.059,57.888 143.059,58.848 142.099,58.848 141.379,54.768 	"/>
	<polyline fill="#008F68" points="142.099,57.888 143.059,57.888 143.54,59.567 143.54,60.527 142.579,60.527 142.099,58.848 	"/>
	<polyline fill="#008F68" points="145.219,57.168 146.179,57.168 146.179,58.127 143.54,60.527 142.579,60.527 142.579,59.567 	"/>
	
		<line fill="none" stroke="#008F68" stroke-width="0.96" stroke-miterlimit="10" x1="145.699" y1="50.688" x2="145.699" y2="58.127"/>
	<polyline fill="#008F68" points="144.739,44.207 145.699,44.207 146.179,50.688 146.179,51.647 145.219,51.647 144.739,45.168 	"/>
	<polyline fill="#008F68" points="144.019,37.728 144.979,37.728 145.699,44.207 145.699,45.168 144.739,45.168 144.019,38.688 	"/>
	<polyline fill="#008F68" points="142.819,31.488 143.779,31.488 144.979,37.728 144.979,38.688 144.019,38.688 142.819,32.447 	"/>
	<polyline fill="#008F68" points="141.619,25.488 142.579,25.488 143.779,31.488 143.779,32.447 142.819,32.447 141.619,26.447 	"/>
	<polyline fill="#008F68" points="140.179,19.488 141.139,19.488 142.579,25.488 142.579,26.447 141.619,26.447 140.179,20.447 	"/>
	<polyline fill="#008F68" points="138.259,13.728 139.219,13.728 141.139,19.488 141.139,20.447 140.179,20.447 138.259,14.688 	"/>
	<polyline fill="#008F68" points="136.339,7.967 137.299,7.967 139.219,13.728 139.219,14.688 138.259,14.688 136.339,8.928 	"/>
	<polyline fill="#008F68" points="135.619,6.287 136.579,6.287 137.299,7.967 137.299,8.928 136.339,8.928 135.619,7.248 	"/>
	<polyline fill="#008F68" points="134.899,5.567 135.859,5.567 136.579,6.287 136.579,7.248 135.619,7.248 134.899,6.527 	"/>
	<polyline fill="#008F68" points="133.939,5.088 134.899,5.088 135.859,5.567 135.859,6.527 134.899,6.527 133.939,6.047 	"/>
	<polyline fill="#008F68" points="133.939,5.088 134.899,5.088 134.899,6.047 133.939,6.287 132.979,6.287 132.979,5.328 	"/>
	<polyline fill="#008F68" points="132.979,5.328 133.939,5.328 133.939,6.287 132.739,7.248 131.779,7.248 131.779,6.287 	"/>
	<polyline fill="#008F68" points="131.779,6.287 132.739,6.287 132.739,7.248 131.54,8.447 130.579,8.447 130.579,7.488 	"/>
	<polyline fill="#008F68" points="130.579,7.488 131.54,7.488 131.54,8.447 130.339,10.127 129.379,10.127 129.379,9.168 	"/>
	<polyline fill="#008F68" points="129.379,9.168 130.339,9.168 130.339,10.127 128.659,12.047 127.699,12.047 127.699,11.088 	"/>
	<polyline fill="#008F68" points="127.699,11.088 128.659,11.088 128.659,12.047 126.979,13.967 126.019,13.967 126.019,13.008 	"/>
	<polyline fill="#008F68" points="126.019,13.008 126.979,13.008 126.979,13.967 125.059,15.647 124.099,15.647 124.099,14.688 	"/>
	<polyline fill="#008F68" points="124.099,14.688 125.059,14.688 125.059,15.647 122.659,17.328 121.699,17.328 121.699,16.367 	"/>
	<polyline fill="#008F68" points="121.699,16.367 122.659,16.367 122.659,17.328 119.779,18.527 118.819,18.527 118.819,17.567 	"/>
	<polyline fill="#008F68" points="120.979,17.328 121.939,17.328 121.939,18.287 119.779,18.527 118.819,18.527 118.819,17.567 	"/>
	<polyline fill="#008F68" points="120.979,17.328 121.939,17.328 123.859,17.808 123.859,18.768 122.899,18.768 120.979,18.287 	"/>
	<polyline fill="#008F68" points="122.899,17.808 123.859,17.808 125.779,18.527 125.779,19.488 124.819,19.488 122.899,18.768 	"/>
	<polyline fill="#008F68" points="124.819,18.527 125.779,18.527 127.459,19.728 127.459,20.688 126.5,20.688 124.819,19.488 	"/>
	<polyline fill="#008F68" points="126.5,19.728 127.459,19.728 129.379,21.408 129.379,22.367 128.419,22.367 126.5,20.688 	"/>
	<polyline fill="#008F68" points="128.419,21.408 129.379,21.408 131.059,23.328 131.059,24.287 130.099,24.287 128.419,22.367 	"/>
	<polyline fill="#008F68" points="130.099,23.328 131.059,23.328 132.739,25.967 132.739,26.928 131.779,26.928 130.099,24.287 	"/>
	<polyline fill="#008F68" points="131.779,25.967 132.739,25.967 134.179,28.848 134.179,29.808 133.219,29.808 131.779,26.928 	"/>
	<polyline fill="#008F68" points="41.54,103.248 42.5,103.248 42.979,103.967 42.979,104.928 42.019,104.928 41.54,104.207 	"/>
	<polyline fill="#008F68" points="40.339,102.287 41.299,102.287 42.5,103.248 42.5,104.207 41.54,104.207 40.339,103.248 	"/>
	<polyline fill="#008F68" points="40.339,102.287 41.299,102.287 41.299,103.248 40.579,105.168 39.619,105.168 39.619,104.207 	"/>
	<polyline fill="#008F68" points="39.619,104.207 40.579,104.207 40.579,105.168 40.339,106.848 39.379,106.848 39.379,105.888 	"/>
	<polyline fill="#008F68" points="39.379,105.888 40.339,105.888 40.339,106.848 40.099,108.527 39.139,108.527 39.139,107.567 	"/>
	<polyline fill="#008F68" points="39.139,107.567 40.099,107.567 40.339,109.248 40.339,110.207 39.379,110.207 39.139,108.527 	"/>
	<polyline fill="#008F68" points="39.379,109.248 40.339,109.248 40.339,110.207 37.219,110.447 36.259,110.447 36.259,109.488 	"/>
	<polyline fill="#008F68" points="36.259,109.488 37.219,109.488 37.219,110.447 34.099,111.168 33.139,111.168 33.139,110.207 	"/>
	<polyline fill="#008F68" points="33.139,110.207 34.099,110.207 34.099,111.168 31.219,112.367 30.259,112.367 30.259,111.408 	"/>
	<polyline fill="#008F68" points="30.259,111.408 31.219,111.408 31.219,112.367 28.579,113.808 27.619,113.808 27.619,112.848 	"/>
	<polyline fill="#008F68" points="27.379,109.968 28.339,109.968 28.579,112.848 28.579,113.808 27.619,113.808 27.379,110.928 	"/>
	<polyline fill="#008F68" points="27.139,107.088 28.099,107.088 28.339,109.968 28.339,110.928 27.379,110.928 27.139,108.047 	"/>
	<polyline fill="#008F68" points="26.419,104.447 27.379,104.447 28.099,107.088 28.099,108.047 27.139,108.047 26.419,105.408 	"/>
	<polyline fill="#008F68" points="25.219,101.567 26.179,101.567 27.379,104.447 27.379,105.408 26.419,105.408 25.219,102.527 	"/>
	<polyline fill="#008F68" points="26.899,100.607 27.859,100.607 27.859,101.567 26.179,102.527 25.219,102.527 25.219,101.567 	"/>
	<polyline fill="#008F68" points="28.099,99.168 29.059,99.168 29.059,100.127 27.859,101.567 26.899,101.567 26.899,100.607 	"/>
	<polyline fill="#008F68" points="29.299,97.488 30.259,97.488 30.259,98.447 29.059,100.127 28.099,100.127 28.099,99.168 	"/>
	<polyline fill="#008F68" points="30.019,95.328 30.979,95.328 30.979,96.287 30.259,98.447 29.299,98.447 29.299,97.488 	"/>
	<line fill="none" stroke="#008F68" stroke-width="0.96" stroke-miterlimit="10" x1="29.779" y1="95.808" x2="30.979" y2="95.808"/>
	<polyline fill="#008F68" points="29.779,95.328 30.739,95.328 30.739,96.287 28.099,96.768 27.139,96.768 27.139,95.808 	"/>
	<polyline fill="#008F68" points="27.139,95.808 28.099,95.808 28.099,96.768 25.459,97.967 24.5,97.967 24.5,97.008 	"/>
	<polyline fill="#008F68" points="24.019,96.047 24.979,96.047 25.459,97.008 25.459,97.967 24.5,97.967 24.019,97.008 	"/>
	<polyline fill="#008F68" points="23.299,95.328 24.259,95.328 24.979,96.047 24.979,97.008 24.019,97.008 23.299,96.287 	"/>
	<polyline fill="#008F68" points="22.579,94.848 23.54,94.848 24.259,95.328 24.259,96.287 23.299,96.287 22.579,95.808 	"/>
	<polyline fill="#008F68" points="21.619,94.607 22.579,94.607 23.54,94.848 23.54,95.808 22.579,95.808 21.619,95.567 	"/>
	<polyline fill="#008F68" points="22.579,94.367 23.54,94.367 23.54,95.328 22.579,95.567 21.619,95.567 21.619,94.607 	"/>
	<polyline fill="#008F68" points="23.54,93.647 24.5,93.647 24.5,94.607 23.54,95.328 22.579,95.328 22.579,94.367 	"/>
	<polyline fill="#008F68" points="24.259,92.928 25.219,92.928 25.219,93.888 24.5,94.607 23.54,94.607 23.54,93.647 	"/>
	<polyline fill="#008F68" points="24.739,91.967 25.699,91.967 25.699,92.928 25.219,93.888 24.259,93.888 24.259,92.928 	"/>
	<polyline fill="#008F68" points="24.739,91.967 25.699,91.967 28.099,92.928 28.099,93.888 27.139,93.888 24.739,92.928 	"/>
	<line fill="none" stroke="#008F68" stroke-width="0.96" stroke-miterlimit="10" x1="27.139" y1="93.408" x2="30.5" y2="93.408"/>
	<polyline fill="#008F68" points="29.299,92.207 30.259,92.207 30.5,92.928 30.5,93.888 29.54,93.888 29.299,93.168 	"/>
	<polyline fill="#008F68" points="28.819,91.488 29.779,91.488 30.259,92.207 30.259,93.168 29.299,93.168 28.819,92.447 	"/>
	<polyline fill="#008F68" points="28.099,91.008 29.059,91.008 29.779,91.488 29.779,92.447 28.819,92.447 28.099,91.967 	"/>
	<polyline fill="#008F68" points="26.899,90.527 27.859,90.527 29.059,91.008 29.059,91.967 28.099,91.967 26.899,91.488 	"/>
	<polyline fill="#008F68" points="25.699,90.047 26.659,90.047 27.859,90.527 27.859,91.488 26.899,91.488 25.699,91.008 	"/>
	<polyline fill="#008F68" points="24.019,89.808 24.979,89.808 26.659,90.047 26.659,91.008 25.699,91.008 24.019,90.768 	"/>
	<polyline fill="#008F68" points="22.339,89.567 23.299,89.567 24.979,89.808 24.979,90.768 24.019,90.768 22.339,90.527 	"/>
	<polyline fill="#008F68" points="20.179,89.328 21.139,89.328 23.299,89.567 23.299,90.527 22.339,90.527 20.179,90.287 	"/>
	<polyline fill="#008F68" points="20.659,87.647 21.619,87.647 21.619,88.607 21.139,90.287 20.179,90.287 20.179,89.328 	"/>
	<polyline fill="#008F68" points="20.899,85.967 21.859,85.967 21.859,86.928 21.619,88.607 20.659,88.607 20.659,87.647 	"/>
	<line fill="none" stroke="#008F68" stroke-width="0.96" stroke-miterlimit="10" x1="21.379" y1="84.287" x2="21.379" y2="86.928"/>
	<polyline fill="#008F68" points="20.659,82.607 21.619,82.607 21.859,84.287 21.859,85.248 20.899,85.248 20.659,83.567 	"/>
	<polyline fill="#008F68" points="20.419,81.168 21.379,81.168 21.619,82.607 21.619,83.567 20.659,83.567 20.419,82.127 	"/>
	<polyline fill="#008F68" points="19.699,79.728 20.659,79.728 21.379,81.168 21.379,82.127 20.419,82.127 19.699,80.688 	"/>
	<polyline fill="#008F68" points="18.979,78.287 19.939,78.287 20.659,79.728 20.659,80.688 19.699,80.688 18.979,79.248 	"/>
	<polyline fill="#008F68" points="18.019,76.848 18.979,76.848 19.939,78.287 19.939,79.248 18.979,79.248 18.019,77.808 	"/>
	<polyline fill="#008F68" points="18.019,76.848 18.979,76.848 20.659,77.567 20.659,78.527 19.699,78.527 18.019,77.808 	"/>
	<polyline fill="#008F68" points="19.699,77.567 20.659,77.567 22.339,78.047 22.339,79.008 21.379,79.008 19.699,78.527 	"/>
	<polyline fill="#008F68" points="21.379,78.047 22.339,78.047 23.779,78.287 23.779,79.248 22.819,79.248 21.379,79.008 	"/>
	<polyline fill="#008F68" points="24.5,78.047 25.459,78.047 25.459,79.008 23.779,79.248 22.819,79.248 22.819,78.287 	"/>
	<polyline fill="#008F68" points="25.939,77.808 26.899,77.808 26.899,78.768 25.459,79.008 24.5,79.008 24.5,78.047 	"/>
	<polyline fill="#008F68" points="27.619,77.088 28.579,77.088 28.579,78.047 26.899,78.768 25.939,78.768 25.939,77.808 	"/>
	<polyline fill="#008F68" points="29.059,76.127 30.019,76.127 30.019,77.088 28.579,78.047 27.619,78.047 27.619,77.088 	"/>
	<polyline fill="#008F68" points="30.5,74.928 31.459,74.928 31.459,75.888 30.019,77.088 29.059,77.088 29.059,76.127 	"/>
	<polyline fill="#008F68" points="30.5,74.928 31.459,74.928 32.179,77.088 32.179,78.047 31.219,78.047 30.5,75.888 	"/>
	<polyline fill="#008F68" points="31.219,77.088 32.179,77.088 32.659,79.008 32.659,79.967 31.699,79.967 31.219,78.047 	"/>
	<polyline fill="#008F68" points="31.699,79.008 32.659,79.008 33.379,80.447 33.379,81.408 32.419,81.408 31.699,79.967 	"/>
	<polyline fill="#008F68" points="32.419,80.447 33.379,80.447 34.099,81.888 34.099,82.848 33.139,82.848 32.419,81.408 	"/>
	<polyline fill="#008F68" points="33.139,81.888 34.099,81.888 35.059,82.848 35.059,83.808 34.099,83.808 33.139,82.848 	"/>
	<polyline fill="#008F68" points="34.099,82.848 35.059,82.848 35.779,83.808 35.779,84.768 34.819,84.768 34.099,83.808 	"/>
	<polyline fill="#008F68" points="34.819,83.808 35.779,83.808 36.739,84.287 36.739,85.248 35.779,85.248 34.819,84.768 	"/>
	<polyline fill="#008F68" points="35.779,84.287 36.739,84.287 37.699,84.527 37.699,85.488 36.739,85.488 35.779,85.248 	"/>
	<line fill="none" stroke="#008F68" stroke-width="0.96" stroke-miterlimit="10" x1="37.219" y1="83.088" x2="37.219" y2="85.488"/>
	<polyline fill="#008F68" points="36.5,81.647 37.459,81.647 37.699,83.088 37.699,84.047 36.739,84.047 36.5,82.607 	"/>
	<polyline fill="#008F68" points="36.019,80.207 36.979,80.207 37.459,81.647 37.459,82.607 36.5,82.607 36.019,81.168 	"/>
	<polyline fill="#008F68" points="35.299,78.768 36.259,78.768 36.979,80.207 36.979,81.168 36.019,81.168 35.299,79.728 	"/>
	<polyline fill="#008F68" points="36.5,77.808 37.459,77.808 37.459,78.768 36.259,79.728 35.299,79.728 35.299,78.768 	"/>
	<polyline fill="#008F68" points="37.219,77.088 38.179,77.088 38.179,78.047 37.459,78.768 36.5,78.768 36.5,77.808 	"/>
	<polyline fill="#008F68" points="37.939,76.127 38.899,76.127 38.899,77.088 38.179,78.047 37.219,78.047 37.219,77.088 	"/>
	<polyline fill="#008F68" points="38.179,75.168 39.139,75.168 39.139,76.127 38.899,77.088 37.939,77.088 37.939,76.127 	"/>
	<polyline fill="#008F68" points="38.179,75.168 39.139,75.168 39.619,76.367 39.619,77.328 38.659,77.328 38.179,76.127 	"/>
	<polyline fill="#008F68" points="38.659,76.367 39.619,76.367 40.099,77.328 40.099,78.287 39.139,78.287 38.659,77.328 	"/>
	<polyline fill="#008F68" points="39.139,77.328 40.099,77.328 41.059,78.047 41.059,79.008 40.099,79.008 39.139,78.287 	"/>
	<polyline fill="#008F68" points="40.099,78.047 41.059,78.047 42.259,78.768 42.259,79.728 41.299,79.728 40.099,79.008 	"/>
	<polyline fill="#008F68" points="41.299,78.768 42.259,78.768 42.259,79.728 41.54,81.168 40.579,81.168 40.579,80.207 	"/>
	<polyline fill="#008F68" points="40.579,80.207 41.54,80.207 41.54,81.168 41.299,82.367 40.339,82.367 40.339,81.408 	"/>
	<polyline fill="#008F68" points="40.339,81.408 41.299,81.408 41.299,82.367 41.059,83.567 40.099,83.567 40.099,82.607 	"/>
	<line fill="none" stroke="#008F68" stroke-width="0.96" stroke-miterlimit="10" x1="40.579" y1="82.607" x2="40.579" y2="84.527"/>
	<polyline fill="#008F68" points="40.099,83.567 41.059,83.567 42.259,83.808 42.259,84.768 41.299,84.768 40.099,84.527 	"/>
	<polyline fill="#008F68" points="42.019,83.328 42.979,83.328 42.979,84.287 42.259,84.768 41.299,84.768 41.299,83.808 	"/>
	<polyline fill="#008F68" points="42.739,82.607 43.699,82.607 43.699,83.567 42.979,84.287 42.019,84.287 42.019,83.328 	"/>
	<polyline fill="#008F68" points="43.219,81.168 44.179,81.168 44.179,82.127 43.699,83.567 42.739,83.567 42.739,82.607 	"/>
	<polyline fill="#008F68" points="43.699,79.488 44.659,79.488 44.659,80.447 44.179,82.127 43.219,82.127 43.219,81.168 	"/>
	<line fill="none" stroke="#008F68" stroke-width="0.96" stroke-miterlimit="10" x1="43.699" y1="79.968" x2="48.979" y2="79.968"/>
	<polyline fill="#008F68" points="50.179,79.008 51.139,79.008 51.139,79.967 48.979,80.447 48.019,80.447 48.019,79.488 	"/>
	<polyline fill="#008F68" points="52.339,78.527 53.299,78.527 53.299,79.488 51.139,79.967 50.179,79.967 50.179,79.008 	"/>
	<polyline fill="#008F68" points="52.339,78.527 53.299,78.527 53.299,79.488 52.579,82.127 51.619,82.127 51.619,81.168 	"/>
	<polyline fill="#008F68" points="51.619,81.168 52.579,81.168 52.579,82.127 52.339,84.527 51.379,84.527 51.379,83.567 	"/>
	<polyline fill="#008F68" points="51.379,83.567 52.339,83.567 52.339,84.527 52.099,86.928 51.139,86.928 51.139,85.967 	"/>
	<polyline fill="#008F68" points="51.139,85.967 52.099,85.967 52.339,87.888 52.339,88.848 51.379,88.848 51.139,86.928 	"/>
	<polyline fill="#008F68" points="51.379,87.888 52.339,87.888 52.339,88.848 48.979,91.008 48.019,91.008 48.019,90.047 	"/>
	<polyline fill="#008F68" points="48.019,90.047 48.979,90.047 48.979,91.008 46.339,93.168 45.379,93.168 45.379,92.207 	"/>
	<line fill="none" stroke="#008F68" stroke-width="0.96" stroke-miterlimit="10" x1="45.859" y1="92.207" x2="45.859" y2="94.367"/>
	<polyline fill="#008F68" points="45.379,93.408 46.339,93.408 46.579,93.888 46.579,94.848 45.619,94.848 45.379,94.367 	"/>
	<polyline fill="#008F68" points="45.619,93.888 46.579,93.888 47.299,94.367 47.299,95.328 46.339,95.328 45.619,94.848 	"/>
	<polyline fill="#008F68" points="46.339,94.367 47.299,94.367 48.5,94.607 48.5,95.567 47.54,95.567 46.339,95.328 	"/>
	<polyline fill="#008F68" points="47.54,94.607 48.5,94.607 48.5,95.567 47.54,95.808 46.579,95.808 46.579,94.848 	"/>
	<polyline fill="#008F68" points="46.579,94.848 47.54,94.848 47.54,95.808 47.059,96.287 46.099,96.287 46.099,95.328 	"/>
	<polyline fill="#008F68" points="46.099,95.328 47.059,95.328 47.059,96.287 46.579,97.008 45.619,97.008 45.619,96.047 	"/>
	<line fill="none" stroke="#008F68" stroke-width="0.96" stroke-miterlimit="10" x1="46.099" y1="96.047" x2="46.099" y2="97.488"/>
	<polyline fill="#008F68" points="44.899,96.287 45.859,96.287 46.579,96.527 46.579,97.488 45.619,97.488 44.899,97.248 	"/>
	<polyline fill="#008F68" points="43.939,96.047 44.899,96.047 45.859,96.287 45.859,97.248 44.899,97.248 43.939,97.008 	"/>
	<line fill="none" stroke="#008F68" stroke-width="0.96" stroke-miterlimit="10" x1="43.219" y1="96.527" x2="44.899" y2="96.527"/>
	<polyline fill="#008F68" points="43.219,96.047 44.179,96.047 44.179,97.008 43.699,97.248 42.739,97.248 42.739,96.287 	"/>
	<polyline fill="#008F68" points="174.739,170.688 175.699,170.688 178.339,172.607 178.339,173.567 177.379,173.567 
		174.739,171.647 	"/>
	<polyline fill="#008F68" points="172.099,169.008 173.059,169.008 175.699,170.688 175.699,171.647 174.739,171.647 
		172.099,169.968 	"/>
	<polyline fill="#008F68" points="169.939,167.328 170.899,167.328 173.059,169.008 173.059,169.968 172.099,169.968 
		169.939,168.287 	"/>
	<polyline fill="#008F68" points="167.54,166.127 168.5,166.127 170.899,167.328 170.899,168.287 169.939,168.287 167.54,167.088 	
		"/>
	<polyline fill="#008F68" points="167.059,165.647 168.019,165.647 168.5,166.127 168.5,167.088 167.54,167.088 167.059,166.607 	
		"/>
	<polyline fill="#008F68" points="171.139,161.808 172.099,161.808 172.099,162.768 168.019,166.607 167.059,166.607 
		167.059,165.647 	"/>
	<polyline fill="#008F68" points="172.819,160.607 173.779,160.607 173.779,161.567 172.099,162.768 171.139,162.768 
		171.139,161.808 	"/>
	<polyline fill="#008F68" points="174.259,159.647 175.219,159.647 175.219,160.607 173.779,161.567 172.819,161.567 
		172.819,160.607 	"/>
	<polyline fill="#008F68" points="175.699,158.928 176.659,158.928 176.659,159.888 175.219,160.607 174.259,160.607 
		174.259,159.647 	"/>
	<polyline fill="#008F68" points="176.899,158.688 177.859,158.688 177.859,159.647 176.659,159.888 175.699,159.888 
		175.699,158.928 	"/>
	
		<line fill="none" stroke="#008F68" stroke-width="0.96" stroke-miterlimit="10" x1="176.899" y1="159.168" x2="179.299" y2="159.168"/>
	<polyline fill="#008F68" points="178.339,158.688 179.299,158.688 180.259,159.168 180.259,160.127 179.299,160.127 
		178.339,159.647 	"/>
	<polyline fill="#008F68" points="179.299,159.168 180.259,159.168 181.459,159.888 181.459,160.848 180.5,160.848 179.299,160.127 
			"/>
	<polyline fill="#008F68" points="180.5,159.888 181.459,159.888 182.419,160.848 182.419,161.808 181.459,161.808 180.5,160.848 	
		"/>
	<polyline fill="#008F68" points="181.459,160.848 182.419,160.848 183.379,161.328 183.379,162.287 182.419,162.287 
		181.459,161.808 	"/>
	<polyline fill="#008F68" points="182.419,161.328 183.379,161.328 184.339,162.287 184.339,163.248 183.379,163.248 
		182.419,162.287 	"/>
	<polyline fill="#008F68" points="183.379,162.287 184.339,162.287 185.299,163.728 185.299,164.688 184.339,164.688 
		183.379,163.248 	"/>
	<polyline fill="#008F68" points="184.339,163.728 185.299,163.728 186.739,165.408 186.739,166.367 185.779,166.367 
		184.339,164.688 	"/>
	<polyline fill="#008F68" points="185.779,165.408 186.739,165.408 187.939,166.848 187.939,167.808 186.979,167.808 
		185.779,166.367 	"/>
	<polyline fill="#008F68" points="186.979,166.848 187.939,166.848 189.139,168.047 189.139,169.008 188.179,169.008 
		186.979,167.808 	"/>
	<polyline fill="#008F68" points="188.179,168.047 189.139,168.047 190.579,169.008 190.579,169.968 189.619,169.968 
		188.179,169.008 	"/>
	<polyline fill="#008F68" points="189.619,169.008 190.579,169.008 192.259,169.728 192.259,170.688 191.299,170.688 
		189.619,169.968 	"/>
	<polyline fill="#008F68" points="191.299,169.728 192.259,169.728 193.939,170.207 193.939,171.168 192.979,171.168 
		191.299,170.688 	"/>
	<polyline fill="#008F68" points="192.979,170.207 193.939,170.207 195.859,170.688 195.859,171.647 194.899,171.647 
		192.979,171.168 	"/>
	<polyline fill="#008F68" points="194.899,170.688 195.859,170.688 197.779,170.928 197.779,171.888 196.819,171.888 
		194.899,171.647 	"/>
	
		<line fill="none" stroke="#008F68" stroke-width="0.96" stroke-miterlimit="10" x1="196.819" y1="171.408" x2="199.939" y2="171.408"/>
	<polyline fill="#008F68" points="198.979,170.928 199.939,170.928 199.939,171.888 196.339,173.328 195.379,173.328 
		195.379,172.367 	"/>
	<polyline fill="#008F68" points="195.379,172.367 196.339,172.367 196.339,173.328 192.979,174.287 192.019,174.287 
		192.019,173.328 	"/>
	<polyline fill="#008F68" points="192.019,173.328 192.979,173.328 192.979,174.287 189.619,175.008 188.659,175.008 
		188.659,174.047 	"/>
	<polyline fill="#008F68" points="188.659,174.047 189.619,174.047 189.619,175.008 186.979,175.248 186.019,175.248 
		186.019,174.287 	"/>
	
		<line fill="none" stroke="#008F68" stroke-width="0.96" stroke-miterlimit="10" x1="183.379" y1="174.768" x2="186.979" y2="174.768"/>
	<polyline fill="#008F68" points="181.219,174.047 182.179,174.047 184.339,174.287 184.339,175.248 183.379,175.248 
		181.219,175.008 	"/>
	<polyline fill="#008F68" points="179.059,173.567 180.019,173.567 182.179,174.047 182.179,175.008 181.219,175.008 
		179.059,174.527 	"/>
	<polyline fill="#008F68" points="177.379,172.607 178.339,172.607 180.019,173.567 180.019,174.527 179.059,174.527 
		177.379,173.567 	"/>
	<polyline fill="#008F68" points="42.019,103.967 42.979,103.967 42.979,104.928 42.739,105.888 41.779,105.888 41.779,104.928 	"/>
	<polyline fill="#008F68" points="42.259,103.008 43.219,103.008 43.219,103.967 42.979,104.928 42.019,104.928 42.019,103.967 	"/>
	<polyline fill="#008F68" points="42.739,102.047 43.699,102.047 43.699,103.008 43.219,103.967 42.259,103.967 42.259,103.008 	"/>
	<polyline fill="#008F68" points="43.219,101.567 44.179,101.567 44.179,102.527 43.699,103.008 42.739,103.008 42.739,102.047 	"/>
	<polyline fill="#008F68" points="44.179,100.848 45.139,100.848 45.139,101.808 44.179,102.527 43.219,102.527 43.219,101.567 	"/>
	<polyline fill="#008F68" points="43.219,100.367 44.179,100.367 45.139,100.848 45.139,101.808 44.179,101.808 43.219,101.328 	"/>
	<polyline fill="#008F68" points="42.5,99.647 43.459,99.647 44.179,100.367 44.179,101.328 43.219,101.328 42.5,100.607 	"/>
	<polyline fill="#008F68" points="42.019,98.688 42.979,98.688 43.459,99.647 43.459,100.607 42.5,100.607 42.019,99.647 	"/>
	<polyline fill="#008F68" points="41.779,97.728 42.739,97.728 42.979,98.688 42.979,99.647 42.019,99.647 41.779,98.688 	"/>
	<polyline fill-rule="evenodd" clip-rule="evenodd" fill="#0BCD96" points="33.859,163.248 33.379,162.768 32.899,162.527 
		32.899,162.287 32.659,162.047 32.419,161.808 30.259,160.848 27.859,160.367 25.459,160.367 23.299,160.848 20.899,161.328 
		18.979,161.328 16.819,160.607 14.659,159.408 16.099,161.808 18.019,164.207 20.179,166.367 23.059,168.047 24.5,168.768 
		26.179,169.248 27.619,169.488 29.299,169.488 30.979,169.008 32.659,168.527 34.339,167.567 36.259,166.367 36.019,165.888 
		35.779,165.408 35.299,164.688 34.579,163.968 34.819,163.968 34.579,163.968 33.859,163.248 	"/>
	<polyline fill="#009067" points="32.419,162.047 33.379,162.047 33.859,162.287 33.859,163.248 32.899,163.248 32.419,163.008 	"/>
	
		<line fill="none" stroke="#009067" stroke-width="0.96" stroke-miterlimit="10" x1="32.899" y1="161.808" x2="32.899" y2="163.008"/>
	<polyline fill="#009067" points="32.179,161.567 33.139,161.567 33.379,161.808 33.379,162.768 32.419,162.768 32.179,162.527 	"/>
	<polyline fill="#009067" points="31.939,161.328 32.899,161.328 33.139,161.567 33.139,162.527 32.179,162.527 31.939,162.287 	"/>
	<polyline fill="#009067" points="29.779,160.367 30.739,160.367 32.899,161.328 32.899,162.287 31.939,162.287 29.779,161.328 	"/>
	<polyline fill="#009067" points="27.379,159.888 28.339,159.888 30.739,160.367 30.739,161.328 29.779,161.328 27.379,160.848 	"/>
	
		<line fill="none" stroke="#009067" stroke-width="0.96" stroke-miterlimit="10" x1="24.979" y1="160.367" x2="28.339" y2="160.367"/>
	<polyline fill="#009067" points="24.979,159.888 25.939,159.888 25.939,160.848 23.779,161.328 22.819,161.328 22.819,160.367 	"/>
	<polyline fill="#009067" points="22.819,160.367 23.779,160.367 23.779,161.328 21.379,161.808 20.419,161.808 20.419,160.848 	"/>
	<line fill="none" stroke="#009067" stroke-width="0.96" stroke-miterlimit="10" x1="18.5" y1="161.328" x2="21.379" y2="161.328"/>
	<polyline fill="#009067" points="16.339,160.127 17.299,160.127 19.459,160.848 19.459,161.808 18.5,161.808 16.339,161.088 	"/>
	<polyline fill="#009067" points="14.179,158.928 15.139,158.928 17.299,160.127 17.299,161.088 16.339,161.088 14.179,159.888 	"/>
	<polyline fill="#009067" points="14.179,158.928 15.139,158.928 16.579,161.328 16.579,162.287 15.619,162.287 14.179,159.888 	"/>
	<polyline fill="#009067" points="15.619,161.328 16.579,161.328 18.5,163.728 18.5,164.688 17.54,164.688 15.619,162.287 	"/>
	<polyline fill="#009067" points="17.54,163.728 18.5,163.728 20.659,165.888 20.659,166.848 19.699,166.848 17.54,164.688 	"/>
	<polyline fill="#009067" points="19.699,165.888 20.659,165.888 23.54,167.567 23.54,168.527 22.579,168.527 19.699,166.848 	"/>
	<polyline fill="#009067" points="22.579,167.567 23.54,167.567 24.979,168.287 24.979,169.248 24.019,169.248 22.579,168.527 	"/>
	<polyline fill="#009067" points="24.019,168.287 24.979,168.287 26.659,168.768 26.659,169.728 25.699,169.728 24.019,169.248 	"/>
	<polyline fill="#009067" points="25.699,168.768 26.659,168.768 28.099,169.008 28.099,169.968 27.139,169.968 25.699,169.728 	"/>
	
		<line fill="none" stroke="#009067" stroke-width="0.96" stroke-miterlimit="10" x1="27.139" y1="169.488" x2="29.779" y2="169.488"/>
	<polyline fill="#009067" points="30.5,168.527 31.459,168.527 31.459,169.488 29.779,169.968 28.819,169.968 28.819,169.008 	"/>
	<polyline fill="#009067" points="32.179,168.047 33.139,168.047 33.139,169.008 31.459,169.488 30.5,169.488 30.5,168.527 	"/>
	<polyline fill="#009067" points="33.859,167.088 34.819,167.088 34.819,168.047 33.139,169.008 32.179,169.008 32.179,168.047 	"/>
	<polyline fill="#009067" points="35.779,165.888 36.739,165.888 36.739,166.848 34.819,168.047 33.859,168.047 33.859,167.088 	"/>
	<polyline fill="#009067" points="35.54,165.408 36.5,165.408 36.739,165.888 36.739,166.848 35.779,166.848 35.54,166.367 	"/>
	<polyline fill="#009067" points="35.299,164.928 36.259,164.928 36.5,165.408 36.5,166.367 35.54,166.367 35.299,165.888 	"/>
	<polyline fill="#009067" points="34.819,164.207 35.779,164.207 36.259,164.928 36.259,165.888 35.299,165.888 34.819,165.168 	"/>
	<polyline fill="#009067" points="34.099,163.488 35.059,163.488 35.779,164.207 35.779,165.168 34.819,165.168 34.099,164.447 	"/>
	
		<line fill="none" stroke="#009067" stroke-width="0.96" stroke-miterlimit="10" x1="34.099" y1="163.968" x2="35.299" y2="163.968"/>
	
		<line fill="none" stroke="#009067" stroke-width="0.96" stroke-miterlimit="10" x1="34.099" y1="163.968" x2="35.299" y2="163.968"/>
	<polyline fill="#009067" points="33.379,162.768 34.339,162.768 35.059,163.488 35.059,164.447 34.099,164.447 33.379,163.728 	"/>
	<polyline fill="#009067" points="32.899,162.287 33.859,162.287 34.339,162.768 34.339,163.728 33.379,163.728 32.899,163.248 	"/>
</g>
</svg>
