<?xml version="1.0" encoding="utf-8"?>
<!-- Generator: Adobe Illustrator 16.0.0, SVG Export Plug-In . SVG Version: 6.00 Build 0)  -->
<!DOCTYPE svg PUBLIC "-//W3C//DTD SVG 1.1//EN" "http://www.w3.org/Graphics/SVG/1.1/DTD/svg11.dtd">
<svg version="1.1" id="Layer_1" xmlns="http://www.w3.org/2000/svg" xmlns:xlink="http://www.w3.org/1999/xlink" x="0px" y="0px"
	 width="89.06px" height="48.08px" viewBox="0 0 89.06 48.08" enable-background="new 0 0 89.06 48.08" xml:space="preserve">
<g>
	<polyline fill-rule="evenodd" clip-rule="evenodd" fill="#FB0000" points="85.984,16.576 77.104,10.336 73.744,12.977 
		70.384,15.616 66.544,18.977 62.704,22.816 60.304,24.496 57.664,25.936 54.784,27.137 51.664,28.336 48.064,29.296 44.464,30.016 
		40.624,30.736 36.304,30.977 31.984,30.977 27.424,30.977 22.624,31.216 17.824,31.696 13.504,34.096 9.424,36.736 5.824,39.855 
		2.704,43.216 23.104,38.416 26.464,37.936 29.824,37.936 32.944,37.936 36.064,38.416 42.064,40.336 48.304,41.296 55.024,41.776 
		61.504,41.776 66.544,38.176 71.824,34.576 74.224,32.896 76.144,30.977 77.824,29.296 79.024,27.376 80.224,25.456 81.904,23.057 
		83.824,19.936 85.984,16.576 	"/>
	<polyline fill="#B10000" points="79.744,24.977 80.704,24.977 80.704,25.936 79.504,27.855 78.544,27.855 78.544,26.896 	"/>
	<polyline fill="#B10000" points="81.424,22.576 82.384,22.576 82.384,23.536 80.704,25.936 79.744,25.936 79.744,24.977 	"/>
	<polyline fill="#B10000" points="83.344,19.456 84.304,19.456 84.304,20.416 82.384,23.536 81.424,23.536 81.424,22.576 	"/>
	<polyline fill="#B10000" points="85.504,16.096 86.464,16.096 86.464,17.057 84.304,20.416 83.344,20.416 83.344,19.456 	"/>
	<polyline fill="#B10000" points="76.624,9.855 77.584,9.855 86.464,16.096 86.464,17.057 85.504,17.057 76.624,10.816 	"/>
	<polyline fill="#AF0202" points="78.544,26.896 79.504,26.896 79.504,27.855 78.304,29.776 77.344,29.776 77.344,28.816 	"/>
	<polyline fill="#AF0202" points="77.344,28.816 78.304,28.816 78.304,29.776 76.624,31.456 75.664,31.456 75.664,30.496 	"/>
	<polyline fill="#AF0202" points="75.664,30.496 76.624,30.496 76.624,31.456 74.704,33.376 73.744,33.376 73.744,32.416 	"/>
	<polyline fill="#AF0202" points="73.744,32.416 74.704,32.416 74.704,33.376 72.304,35.057 71.344,35.057 71.344,34.096 	"/>
	<polyline fill="#AF0202" points="71.344,34.096 72.304,34.096 72.304,35.057 67.024,38.656 66.064,38.656 66.064,37.696 	"/>
	<polyline fill="#AF0202" points="66.064,37.696 67.024,37.696 67.024,38.656 61.984,42.256 61.024,42.256 61.024,41.296 	"/>
	<line fill="none" stroke="#AF0202" stroke-width="0.96" stroke-miterlimit="10" x1="54.544" y1="41.776" x2="61.984" y2="41.776"/>
	<polyline fill="#AF0202" points="47.824,40.816 48.784,40.816 55.504,41.296 55.504,42.256 54.544,42.256 47.824,41.776 	"/>
	<polyline fill="#AF0202" points="41.584,39.855 42.544,39.855 48.784,40.816 48.784,41.776 47.824,41.776 41.584,40.816 	"/>
	<polyline fill="#AF0202" points="35.584,37.936 36.544,37.936 42.544,39.855 42.544,40.816 41.584,40.816 35.584,38.896 	"/>
	<polyline fill="#AF0202" points="32.464,37.456 33.424,37.456 36.544,37.936 36.544,38.896 35.584,38.896 32.464,38.416 	"/>
	<line fill="none" stroke="#AF0202" stroke-width="0.96" stroke-miterlimit="10" x1="29.344" y1="37.936" x2="33.424" y2="37.936"/>
	<line fill="none" stroke="#AF0202" stroke-width="0.96" stroke-miterlimit="10" x1="25.984" y1="37.936" x2="30.304" y2="37.936"/>
	<polyline fill="#AF0202" points="25.984,37.456 26.944,37.456 26.944,38.416 23.584,38.896 22.624,38.896 22.624,37.936 	"/>
	<polyline fill="#AF0202" points="22.624,37.936 23.584,37.936 23.584,38.896 3.184,43.696 2.224,43.696 2.224,42.736 	"/>
	<polyline fill="#AF0202" points="5.344,39.376 6.304,39.376 6.304,40.336 3.184,43.696 2.224,43.696 2.224,42.736 	"/>
	<polyline fill="#AF0202" points="8.944,36.256 9.904,36.256 9.904,37.216 6.304,40.336 5.344,40.336 5.344,39.376 	"/>
	<polyline fill="#AF0202" points="13.024,33.616 13.984,33.616 13.984,34.576 9.904,37.216 8.944,37.216 8.944,36.256 	"/>
	<polyline fill="#AF0202" points="17.344,31.216 18.304,31.216 18.304,32.176 13.984,34.576 13.024,34.576 13.024,33.616 	"/>
	<polyline fill="#AF0202" points="22.144,30.736 23.104,30.736 23.104,31.696 18.304,32.176 17.344,32.176 17.344,31.216 	"/>
	<polyline fill="#AF0202" points="26.944,30.496 27.904,30.496 27.904,31.456 23.104,31.696 22.144,31.696 22.144,30.736 	"/>
	<line fill="none" stroke="#AF0202" stroke-width="0.96" stroke-miterlimit="10" x1="26.944" y1="30.977" x2="32.464" y2="30.977"/>
	<line fill="none" stroke="#AF0202" stroke-width="0.96" stroke-miterlimit="10" x1="31.504" y1="30.977" x2="36.784" y2="30.977"/>
	<polyline fill="#AF0202" points="40.144,30.256 41.104,30.256 41.104,31.216 36.784,31.456 35.824,31.456 35.824,30.496 	"/>
	<polyline fill="#AF0202" points="43.984,29.536 44.944,29.536 44.944,30.496 41.104,31.216 40.144,31.216 40.144,30.256 	"/>
	<polyline fill="#AF0202" points="47.584,28.816 48.544,28.816 48.544,29.776 44.944,30.496 43.984,30.496 43.984,29.536 	"/>
	<polyline fill="#AF0202" points="51.184,27.855 52.144,27.855 52.144,28.816 48.544,29.776 47.584,29.776 47.584,28.816 	"/>
	<polyline fill="#AF0202" points="54.304,26.656 55.264,26.656 55.264,27.616 52.144,28.816 51.184,28.816 51.184,27.855 	"/>
	<polyline fill="#AF0202" points="57.184,25.456 58.144,25.456 58.144,26.416 55.264,27.616 54.304,27.616 54.304,26.656 	"/>
	<polyline fill="#AF0202" points="59.824,24.016 60.784,24.016 60.784,24.977 58.144,26.416 57.184,26.416 57.184,25.456 	"/>
	<polyline fill="#AF0202" points="62.224,22.336 63.184,22.336 63.184,23.296 60.784,24.977 59.824,24.977 59.824,24.016 	"/>
	<polyline fill="#AF0202" points="66.064,18.496 67.024,18.496 67.024,19.456 63.184,23.296 62.224,23.296 62.224,22.336 	"/>
	<polyline fill="#AF0202" points="69.904,15.137 70.864,15.137 70.864,16.096 67.024,19.456 66.064,19.456 66.064,18.496 	"/>
	<polyline fill="#AF0202" points="73.264,12.496 74.224,12.496 74.224,13.456 70.864,16.096 69.904,16.096 69.904,15.137 	"/>
	<polyline fill="#AF0202" points="76.624,9.855 77.584,9.855 77.584,10.816 74.224,13.456 73.264,13.456 73.264,12.496 	"/>
	<polyline fill-rule="evenodd" clip-rule="evenodd" fill="#0BCD96" points="85.024,2.176 83.824,1.936 84.304,3.616 84.544,5.296 
		84.784,8.896 85.264,7.216 85.504,5.776 85.504,3.855 85.024,2.176 	"/>
	<polyline fill-rule="evenodd" clip-rule="evenodd" fill="#25CC97" points="81.904,6.977 80.464,7.696 79.264,8.416 78.064,9.376 
		77.104,10.336 79.264,12.496 81.424,14.176 83.584,15.376 85.984,16.576 86.464,15.137 86.464,13.696 86.464,12.016 85.984,10.576 
		85.264,9.376 84.784,8.896 83.824,10.096 84.784,8.896 83.104,7.696 81.904,6.977 	"/>
	<polyline fill="#128D6A" points="84.304,8.416 85.264,8.416 85.264,9.376 84.304,10.576 83.344,10.576 83.344,9.616 	"/>
	<polyline fill="#128D6A" points="84.064,4.816 85.024,4.816 85.264,8.416 85.264,9.376 84.304,9.376 84.064,5.776 	"/>
	<polyline fill="#128D6A" points="83.824,3.137 84.784,3.137 85.024,4.816 85.024,5.776 84.064,5.776 83.824,4.096 	"/>
	<polyline fill="#128D6A" points="83.344,1.456 84.304,1.456 84.784,3.137 84.784,4.096 83.824,4.096 83.344,2.416 	"/>
	<polyline fill="#128D6A" points="83.344,1.456 84.304,1.456 85.504,1.696 85.504,2.656 84.544,2.656 83.344,2.416 	"/>
	<polyline fill="#128D6A" points="84.544,1.696 85.504,1.696 85.984,3.376 85.984,4.336 85.024,4.336 84.544,2.656 	"/>
	<line fill="none" stroke="#128D6A" stroke-width="0.96" stroke-miterlimit="10" x1="85.504" y1="3.376" x2="85.504" y2="6.256"/>
	<polyline fill="#128D6A" points="85.024,5.296 85.984,5.296 85.984,6.256 85.744,7.696 84.784,7.696 84.784,6.736 	"/>
	<polyline fill="#128D6A" points="84.784,6.736 85.744,6.736 85.744,7.696 85.264,9.376 84.304,9.376 84.304,8.416 	"/>
	<polyline fill="#1D8C6B" points="76.624,9.855 77.584,9.855 79.744,12.016 79.744,12.977 78.784,12.977 76.624,10.816 	"/>
	<polyline fill="#1D8C6B" points="78.784,12.016 79.744,12.016 81.904,13.696 81.904,14.656 80.944,14.656 78.784,12.977 	"/>
	<polyline fill="#1D8C6B" points="80.944,13.696 81.904,13.696 84.064,14.896 84.064,15.855 83.104,15.855 80.944,14.656 	"/>
	<polyline fill="#1D8C6B" points="83.104,14.896 84.064,14.896 86.464,16.096 86.464,17.057 85.504,17.057 83.104,15.855 	"/>
	<polyline fill="#1D8C6B" points="85.984,14.656 86.944,14.656 86.944,15.616 86.464,17.057 85.504,17.057 85.504,16.096 	"/>
	<line fill="none" stroke="#1D8C6B" stroke-width="0.96" stroke-miterlimit="10" x1="86.464" y1="13.216" x2="86.464" y2="15.616"/>
	<line fill="none" stroke="#1D8C6B" stroke-width="0.96" stroke-miterlimit="10" x1="86.464" y1="11.536" x2="86.464" y2="14.176"/>
	<polyline fill="#1D8C6B" points="85.504,10.096 86.464,10.096 86.944,11.536 86.944,12.496 85.984,12.496 85.504,11.057 	"/>
	<polyline fill="#1D8C6B" points="84.784,8.896 85.744,8.896 86.464,10.096 86.464,11.057 85.504,11.057 84.784,9.855 	"/>
	<polyline fill="#1D8C6B" points="84.304,8.416 85.264,8.416 85.744,8.896 85.744,9.855 84.784,9.855 84.304,9.376 	"/>
	<polyline fill="#1D8C6B" points="82.624,7.216 83.584,7.216 85.264,8.416 85.264,9.376 84.304,9.376 82.624,8.176 	"/>
	<polyline fill="#1D8C6B" points="81.424,6.496 82.384,6.496 83.584,7.216 83.584,8.176 82.624,8.176 81.424,7.456 	"/>
	<polyline fill="#1D8C6B" points="81.424,6.496 82.384,6.496 82.384,7.456 80.944,8.176 79.984,8.176 79.984,7.216 	"/>
	<polyline fill="#1D8C6B" points="79.984,7.216 80.944,7.216 80.944,8.176 79.744,8.896 78.784,8.896 78.784,7.936 	"/>
	<polyline fill="#1D8C6B" points="78.784,7.936 79.744,7.936 79.744,8.896 78.544,9.855 77.584,9.855 77.584,8.896 	"/>
	<polyline fill="#1D8C6B" points="77.584,8.896 78.544,8.896 78.544,9.855 77.584,10.816 76.624,10.816 76.624,9.855 	"/>
</g>
</svg>
