<?xml version="1.0" encoding="utf-8"?>
<!-- Generator: Adobe Illustrator 16.0.0, SVG Export Plug-In . SVG Version: 6.00 Build 0)  -->
<!DOCTYPE svg PUBLIC "-//W3C//DTD SVG 1.1//EN" "http://www.w3.org/Graphics/SVG/1.1/DTD/svg11.dtd">
<svg version="1.1" id="Layer_1" xmlns="http://www.w3.org/2000/svg" xmlns:xlink="http://www.w3.org/1999/xlink" x="0px" y="0px"
	 width="205.735px" height="195.885px" viewBox="0 0 205.735 195.885" enable-background="new 0 0 205.735 195.885"
	 xml:space="preserve">
<g>
	<polyline fill-rule="evenodd" clip-rule="evenodd" fill="#009D70" points="133.226,20.378 116.426,20.378 101.306,14.858 
		87.865,23.498 97.945,31.418 104.905,33.818 110.665,28.778 114.985,28.778 117.386,37.658 123.625,45.578 131.545,45.578 
		131.545,51.338 145.945,51.338 155.545,70.298 169.226,75.338 170.426,78.938 180.266,78.698 183.386,74.618 183.386,60.218 
		178.585,54.698 178.585,47.498 168.505,42.938 160.585,35.498 159.386,34.538 150.025,34.538 140.426,22.778 133.226,20.378 	"/>
	<polyline fill-rule="evenodd" clip-rule="evenodd" fill="#008B62" points="116.426,20.378 133.226,20.378 140.426,22.778 
		150.025,34.538 159.386,34.538 153.865,29.498 147.865,21.098 137.306,18.938 128.665,10.058 113.545,8.138 87.146,11.738 
		74.665,15.098 64.585,13.178 53.306,24.218 41.545,32.378 36.025,53.498 37.705,50.858 42.505,50.858 51.386,45.098 57.625,45.098 
		64.346,26.858 84.025,20.378 87.865,23.498 101.306,14.858 116.426,20.378 	"/>
	<polyline fill-rule="evenodd" clip-rule="evenodd" fill="#00CE95" points="117.386,37.658 114.985,28.778 110.665,28.778 
		104.905,33.818 97.945,31.418 87.865,23.498 84.025,20.378 64.346,26.858 57.625,45.098 51.386,45.098 46.825,54.218 
		46.825,63.578 50.186,75.578 47.785,83.978 37.945,96.218 37.945,105.818 47.065,116.618 55.945,118.298 64.585,119.978 
		71.065,115.658 64.585,119.978 55.945,118.298 65.785,128.378 69.865,138.458 77.065,149.498 77.065,139.178 77.065,138.218 
		77.545,137.978 72.025,131.258 72.025,114.938 62.186,98.618 68.905,85.898 68.905,71.738 74.905,66.698 72.745,66.698 
		67.226,62.138 67.226,53.738 67.226,62.138 72.745,66.698 74.905,66.698 77.306,64.538 77.306,62.858 78.025,60.698 79.226,58.778 
		81.146,56.618 83.306,54.218 85.466,52.298 87.386,50.618 89.545,49.178 91.466,48.458 93.386,47.738 95.306,47.498 97.226,47.738 
		98.426,47.498 99.146,47.258 99.625,46.538 99.625,45.578 99.625,44.378 99.146,42.938 98.426,41.258 97.226,39.338 98.426,41.258 
		99.146,42.938 99.625,44.378 99.625,45.578 99.625,46.538 99.146,47.258 98.426,47.498 97.226,47.738 95.306,47.498 93.386,47.738 
		91.466,48.458 89.545,49.178 87.386,50.618 85.466,52.298 83.306,54.218 81.146,56.618 79.226,58.778 78.025,60.698 77.306,62.858 
		77.306,64.538 85.466,65.258 89.065,62.858 92.665,61.178 95.785,59.978 98.905,59.498 102.025,59.738 104.426,60.218 
		106.585,60.698 108.505,61.418 109.945,62.378 117.386,56.858 131.545,51.338 131.545,45.578 123.625,45.578 117.386,37.658 	"/>
	<polyline fill-rule="evenodd" clip-rule="evenodd" fill="#37E9A3" points="84.266,66.218 85.466,65.258 77.306,64.538 
		75.865,66.698 74.905,66.698 68.905,71.738 68.905,85.898 62.186,98.618 72.025,114.938 72.025,131.258 77.545,137.978 
		78.745,139.178 104.426,139.178 118.825,143.258 118.585,142.058 118.825,143.258 119.545,143.498 131.545,140.858 
		124.825,138.938 123.865,138.938 119.306,137.978 114.025,136.778 109.466,135.338 104.665,133.418 100.346,131.498 
		95.785,129.098 91.705,126.458 87.625,123.578 83.785,120.458 79.945,116.858 78.505,112.538 77.545,107.978 77.545,107.738 
		77.065,103.658 76.825,103.418 76.825,103.178 76.825,100.778 77.065,98.378 77.545,95.738 78.025,93.338 78.745,90.938 
		79.945,88.298 81.146,85.658 82.585,83.258 81.146,85.658 79.945,88.298 78.745,90.938 78.025,93.338 77.545,95.738 77.065,98.378 
		76.825,100.778 76.825,103.178 76.825,103.418 77.065,103.658 77.545,107.738 79.705,105.578 81.625,102.938 84.985,98.138 
		87.865,92.858 88.825,90.218 89.785,87.338 89.785,75.578 91.705,72.698 94.346,69.818 97.466,66.938 101.545,64.058 
		109.945,64.058 109.945,62.378 108.505,61.418 106.585,60.698 104.426,60.218 102.025,59.738 98.905,59.498 95.785,59.978 
		92.665,61.178 89.065,62.858 85.466,65.258 84.266,66.218 81.146,68.618 78.025,71.738 81.146,68.618 84.266,66.218 	"/>
	<polyline fill-rule="evenodd" clip-rule="evenodd" fill="#37E9A3" points="89.785,75.578 89.785,87.338 88.825,90.218 
		87.865,92.858 84.985,98.138 81.625,102.938 79.705,105.578 77.545,107.738 77.545,107.978 78.505,112.538 79.945,116.858 
		83.785,120.458 87.625,123.578 91.705,126.458 95.785,129.098 100.346,131.498 104.665,133.418 109.466,135.338 114.025,136.778 
		140.665,125.258 150.266,108.458 140.665,125.258 114.025,136.778 119.306,137.978 125.785,136.778 132.025,136.058 
		138.266,136.298 144.505,137.018 147.386,137.018 150.025,136.778 152.186,136.058 154.105,135.098 155.545,133.898 
		156.266,132.218 156.985,130.298 156.985,128.138 156.505,126.938 156.266,125.978 156.266,123.578 156.745,122.378 
		157.226,121.178 159.146,118.778 160.585,116.858 161.785,114.938 162.985,113.258 163.705,111.578 164.426,109.898 
		164.905,108.458 165.146,107.018 165.146,105.578 161.065,99.818 157.226,94.538 153.386,90.218 149.306,86.378 142.585,85.178 
		149.065,101.498 142.585,85.178 129.386,79.658 114.985,86.858 118.346,87.098 121.466,87.578 124.346,88.538 127.466,89.738 
		130.346,91.418 133.226,93.338 135.865,95.738 138.505,98.138 139.945,101.738 141.386,104.378 141.865,107.258 142.105,109.658 
		141.865,110.858 141.625,112.058 141.865,110.858 142.105,109.658 141.865,107.258 141.386,104.378 139.945,101.738 
		138.985,105.578 138.025,109.178 136.825,112.778 135.146,116.138 133.466,119.258 131.545,122.138 129.146,124.778 
		126.745,127.178 121.466,128.378 116.426,128.618 111.386,128.378 106.346,127.178 102.985,125.498 100.105,123.578 
		97.226,121.658 94.585,119.498 91.226,116.378 88.105,113.018 91.226,116.378 94.585,119.498 92.426,115.178 91.705,112.778 
		90.985,110.378 90.266,106.538 90.025,102.698 90.266,106.538 90.985,110.378 92.186,106.778 93.625,103.418 96.025,99.578 
		98.905,95.978 100.825,94.058 114.985,86.858 129.386,79.658 142.585,85.178 149.306,86.378 143.065,73.658 121.945,64.058 
		111.625,64.058 109.945,64.058 101.545,64.058 97.466,66.938 94.346,69.818 91.705,72.698 89.785,75.578 	"/>
	<polyline fill-rule="evenodd" clip-rule="evenodd" fill="#68F5BE" points="139.945,101.738 138.505,98.138 135.865,95.738 
		133.226,93.338 130.346,91.418 127.466,89.738 124.346,88.538 121.466,87.578 118.346,87.098 114.985,86.858 100.825,94.058 
		98.905,95.978 96.025,99.578 93.625,103.418 96.266,113.978 104.426,121.658 108.266,121.658 111.865,121.178 115.466,120.698 
		118.346,119.498 123.386,110.858 123.386,103.178 118.825,96.938 114.505,97.658 116.186,99.098 117.625,100.538 118.585,101.978 
		119.545,103.178 119.065,106.538 118.346,109.658 117.386,111.338 116.426,113.258 115.226,114.698 113.545,116.138 
		110.905,116.618 108.745,116.618 107.065,116.138 105.865,115.418 107.065,116.138 108.745,116.618 110.905,116.618 
		113.545,116.138 115.226,114.698 116.426,113.258 117.386,111.338 118.346,109.658 114.985,102.218 109.466,102.218 
		107.306,106.298 114.025,106.298 109.466,111.578 107.306,111.578 104.905,111.338 102.745,110.618 100.346,109.178 
		100.346,103.178 102.505,100.298 104.905,98.138 107.785,96.218 110.905,94.778 112.825,96.218 114.505,97.658 118.825,96.938 
		128.905,99.098 130.825,102.458 129.865,105.098 128.665,107.498 127.705,109.898 126.505,111.818 125.545,113.738 
		124.346,115.178 123.146,116.618 121.945,117.818 120.266,118.778 118.346,119.498 115.466,120.698 111.865,121.178 
		108.266,121.658 104.426,121.658 96.266,113.978 93.625,103.418 92.186,106.778 90.985,110.378 91.705,112.778 92.426,115.178 
		94.585,119.498 97.226,121.658 100.105,123.578 102.985,125.498 106.346,127.178 111.386,128.378 116.426,128.618 121.466,128.378 
		126.745,127.178 129.146,124.778 131.545,122.138 133.466,119.258 135.146,116.138 136.825,112.778 138.025,109.178 
		138.985,105.578 139.945,101.738 	"/>
	<polyline fill-rule="evenodd" clip-rule="evenodd" fill="#B6F0DD" points="130.825,102.458 128.905,99.098 118.825,96.938 
		123.386,103.178 123.386,110.858 118.346,119.498 120.266,118.778 121.945,117.818 123.146,116.618 124.346,115.178 
		125.545,113.738 126.505,111.818 127.705,109.898 128.665,107.498 129.865,105.098 130.825,102.458 	"/>
	<polyline fill-rule="evenodd" clip-rule="evenodd" fill="#B4F1DD" points="119.545,103.178 118.585,101.978 117.625,100.538 
		116.186,99.098 114.505,97.658 112.825,96.218 110.905,94.778 107.785,96.218 104.905,98.138 102.505,100.298 100.346,103.178 
		100.346,109.178 102.745,110.618 104.905,111.338 107.306,111.578 109.466,111.578 114.025,106.298 107.306,106.298 
		109.466,102.218 114.985,102.218 118.346,109.658 119.065,106.538 119.545,103.178 	"/>
	<polyline fill-rule="evenodd" clip-rule="evenodd" fill="#0BCD96" points="109.945,62.378 109.945,64.058 111.625,64.058 
		110.905,63.098 109.945,62.378 	"/>
	<polyline fill-rule="evenodd" clip-rule="evenodd" fill="#00CE95" points="109.945,62.378 110.905,63.098 111.625,64.058 
		121.945,64.058 143.065,73.658 149.306,86.378 153.386,90.218 157.226,94.538 161.065,99.818 165.146,105.578 165.146,107.018 
		164.905,108.458 164.426,109.898 163.705,111.578 162.985,113.258 161.785,114.938 160.585,116.858 159.146,118.778 
		157.226,121.178 156.745,122.378 156.266,123.578 156.266,125.978 156.505,126.938 156.985,128.138 156.985,130.298 
		156.266,132.218 155.545,133.898 154.105,135.098 152.186,136.058 150.025,136.778 147.386,137.018 144.505,137.018 
		138.266,136.298 132.025,136.058 125.785,136.778 119.306,137.978 123.865,138.938 124.825,138.938 131.545,140.858 
		119.545,143.498 130.105,146.618 119.545,143.498 118.825,143.738 119.306,146.138 119.785,148.538 120.505,150.698 
		121.466,152.618 122.665,154.298 123.865,155.738 125.306,157.178 126.745,158.138 129.865,159.098 132.985,159.338 
		135.625,159.098 138.266,158.138 140.905,156.698 143.306,154.778 145.466,151.898 147.625,148.778 148.346,146.858 
		149.065,145.178 150.266,144.218 151.226,143.498 152.665,143.258 154.105,143.258 155.785,143.978 157.466,144.938 
		160.346,144.458 162.745,143.738 165.146,142.778 167.065,141.578 168.985,140.378 170.665,138.938 172.346,137.258 
		173.545,135.338 175.466,133.178 176.905,131.018 177.625,128.858 177.865,126.458 177.625,124.058 176.905,121.418 
		175.466,118.778 173.545,116.138 174.025,112.298 175.226,108.458 177.386,104.378 180.025,100.538 174.025,91.418 170.426,78.938 
		169.226,75.338 155.545,70.298 145.945,51.338 131.545,51.338 117.386,56.858 109.945,62.378 	"/>
	<polyline fill-rule="evenodd" clip-rule="evenodd" fill="#009D70" points="46.825,54.218 51.386,45.098 42.505,50.858 
		37.705,50.858 36.025,53.498 35.545,55.418 37.226,61.658 33.865,68.858 29.545,75.098 29.306,83.018 29.306,89.258 29.306,83.018 
		25.705,89.978 27.625,93.338 29.545,91.658 27.625,93.338 31.466,100.058 36.025,88.058 31.466,100.058 30.266,102.698 
		32.426,113.498 34.346,124.298 41.306,133.178 34.346,124.298 32.426,113.498 33.865,136.538 37.945,141.818 54.025,141.818 
		65.785,150.458 65.785,149.978 65.785,128.378 55.945,118.298 47.065,116.618 37.945,105.818 37.945,96.218 47.785,83.978 
		50.186,75.578 46.825,63.578 46.825,54.218 	"/>
	<polyline fill-rule="evenodd" clip-rule="evenodd" fill="#009D70" points="30.266,102.698 31.466,100.058 27.625,93.338 
		21.865,98.618 18.745,121.898 8.186,135.818 30.025,165.098 63.386,179.018 73.226,179.018 65.785,150.458 54.025,141.818 
		37.945,141.818 33.865,136.538 32.426,113.498 30.266,102.698 	"/>
	<polyline fill-rule="evenodd" clip-rule="evenodd" fill="#00CE95" points="76.825,103.418 77.065,103.658 76.825,103.418 	"/>
	<polyline fill-rule="evenodd" clip-rule="evenodd" fill="#008B62" points="69.865,138.458 65.785,128.378 65.785,149.978 
		65.785,150.458 73.226,179.018 83.785,189.098 109.466,185.018 122.905,178.058 101.306,173.978 88.585,173.978 77.065,159.578 
		77.065,149.498 69.865,138.458 	"/>
	<polyline fill-rule="evenodd" clip-rule="evenodd" fill="#0BCD96" points="78.745,139.178 77.545,137.978 77.065,138.218 
		77.065,139.178 78.745,139.178 	"/>
	<polyline fill-rule="evenodd" clip-rule="evenodd" fill="#009D70" points="78.745,139.178 77.065,139.178 77.065,149.498 
		77.065,159.578 88.585,173.978 101.306,173.978 122.905,178.058 135.865,181.898 144.505,178.538 153.386,167.978 164.426,161.498 
		161.545,159.578 161.065,159.098 160.105,159.578 158.905,160.058 157.945,160.058 156.985,159.578 155.065,159.338 
		153.146,158.378 151.705,157.418 150.025,155.978 148.585,155.738 146.905,155.978 145.226,156.698 143.545,157.898 
		141.625,158.858 140.186,159.818 138.505,160.298 136.825,160.778 135.386,160.778 133.945,160.778 132.745,160.298 
		131.306,159.578 128.905,159.098 126.745,158.138 125.306,157.178 123.865,155.738 122.665,154.298 121.466,152.618 
		120.505,150.698 119.785,148.538 119.306,146.138 118.825,143.738 118.825,143.258 104.426,139.178 78.745,139.178 	"/>
	<polyline fill-rule="evenodd" clip-rule="evenodd" fill="#009D70" points="126.745,158.138 128.905,159.098 131.306,159.578 
		132.745,160.298 133.945,160.778 135.386,160.778 136.825,160.778 138.505,160.298 140.186,159.818 141.625,158.858 
		143.545,157.898 145.226,156.698 146.905,155.978 148.585,155.738 150.025,155.978 151.705,157.418 153.146,158.378 
		155.065,159.338 156.985,159.578 157.945,160.058 158.905,160.058 160.105,159.578 161.065,159.098 162.505,158.378 
		163.705,157.418 164.665,156.458 166.105,155.258 167.306,153.578 169.466,154.298 171.386,154.538 173.545,154.538 
		175.705,154.538 177.865,154.058 180.025,153.578 182.186,152.618 184.346,151.658 186.266,150.698 187.945,149.498 
		189.386,148.538 190.346,147.098 191.785,144.938 192.745,142.538 192.985,139.898 192.745,136.778 192.025,133.658 
		190.825,130.058 189.146,126.218 186.985,121.898 184.346,111.818 189.146,93.338 190.585,79.658 183.386,74.618 180.266,78.698 
		170.426,78.938 174.025,91.418 180.025,100.538 177.386,104.378 175.226,108.458 174.025,112.298 173.545,116.138 175.466,118.778 
		176.905,121.418 177.625,124.058 177.865,126.458 177.625,128.858 176.905,131.018 175.466,133.178 173.545,135.338 
		172.346,137.258 170.665,138.938 168.985,140.378 167.065,141.578 165.146,142.778 162.745,143.738 160.346,144.458 
		157.466,144.938 155.785,143.978 154.105,143.258 152.665,143.258 151.226,143.498 150.266,144.218 149.065,145.178 
		148.346,146.858 147.625,148.778 145.466,151.898 143.306,154.778 140.905,156.698 138.266,158.138 135.625,159.098 
		132.985,159.338 129.865,159.098 126.745,158.138 	"/>
	<polyline fill-rule="evenodd" clip-rule="evenodd" fill="#00CE95" points="118.825,143.258 118.825,143.738 119.545,143.498 
		118.825,143.258 	"/>
	<polyline fill-rule="evenodd" clip-rule="evenodd" fill="#009D70" points="159.386,34.538 160.585,35.498 159.386,34.538 	"/>
	<polyline fill-rule="evenodd" clip-rule="evenodd" fill="#008C61" points="184.346,111.818 186.985,121.898 189.146,126.218 
		190.825,130.058 192.025,133.658 192.745,136.778 192.985,139.898 192.745,142.538 191.785,144.938 190.346,147.098 
		189.386,148.538 187.945,149.498 186.266,150.698 184.346,151.658 182.186,152.618 180.025,153.578 177.865,154.058 
		175.705,154.538 173.545,154.538 171.386,154.538 169.466,154.298 167.306,153.578 166.105,155.258 164.665,156.458 
		163.705,157.418 162.505,158.378 161.545,159.578 164.426,161.498 182.665,161.498 199.705,143.018 191.545,93.578 189.146,93.338 
		184.346,111.818 	"/>
	<polyline fill-rule="evenodd" clip-rule="evenodd" fill="#0BCD96" points="161.545,159.578 162.505,158.378 161.065,159.098 
		161.545,159.578 	"/>
	<polyline fill="#008C61" points="50.905,44.618 51.865,44.618 51.865,45.578 47.306,54.698 46.346,54.698 46.346,53.738 	"/>
	<line fill="none" stroke="#008C61" stroke-width="0.96" stroke-miterlimit="10" x1="46.825" y1="53.738" x2="46.825" y2="64.058"/>
	<polyline fill="#008C61" points="46.346,63.098 47.306,63.098 50.665,75.098 50.665,76.058 49.705,76.058 46.346,64.058 	"/>
	<polyline fill="#008C61" points="49.705,75.098 50.665,75.098 50.665,76.058 48.266,84.458 47.306,84.458 47.306,83.498 	"/>
	<polyline fill="#008C61" points="47.306,83.498 48.266,83.498 48.266,84.458 38.426,96.698 37.466,96.698 37.466,95.738 	"/>
	
		<line fill="none" stroke="#008C61" stroke-width="0.96" stroke-miterlimit="10" x1="37.945" y1="95.738" x2="37.945" y2="106.298"/>
	<polyline fill="#008C61" points="37.466,105.338 38.426,105.338 47.545,116.138 47.545,117.098 46.585,117.098 37.466,106.298 	"/>
	<polyline fill="#008C61" points="46.585,116.138 47.545,116.138 56.426,117.818 56.426,118.778 55.466,118.778 46.585,117.098 	"/>
	<polyline fill="#008C61" points="87.386,23.018 88.346,23.018 98.426,30.938 98.426,31.898 97.466,31.898 87.386,23.978 	"/>
	<polyline fill="#008C61" points="97.466,30.938 98.426,30.938 105.386,33.338 105.386,34.298 104.426,34.298 97.466,31.898 	"/>
	<polyline fill="#008C61" points="110.186,28.298 111.146,28.298 111.146,29.258 105.386,34.298 104.426,34.298 104.426,33.338 	"/>
	
		<line fill="none" stroke="#008C61" stroke-width="0.96" stroke-miterlimit="10" x1="110.186" y1="28.778" x2="115.466" y2="28.778"/>
	<polyline fill="#008C61" points="114.505,28.298 115.466,28.298 117.865,37.178 117.865,38.138 116.905,38.138 114.505,29.258 	"/>
	<polyline fill="#008C61" points="116.905,37.178 117.865,37.178 124.105,45.098 124.105,46.058 123.146,46.058 116.905,38.138 	"/>
	
		<line fill="none" stroke="#008C61" stroke-width="0.96" stroke-miterlimit="10" x1="123.146" y1="45.578" x2="132.025" y2="45.578"/>
	
		<line fill="none" stroke="#008C61" stroke-width="0.96" stroke-miterlimit="10" x1="131.545" y1="45.098" x2="131.545" y2="51.818"/>
	<polyline fill="#008C61" points="41.065,31.898 42.025,31.898 42.025,32.858 36.505,53.978 35.545,53.978 35.545,53.018 	"/>
	<polyline fill="#008C61" points="52.825,23.738 53.785,23.738 53.785,24.698 42.025,32.858 41.065,32.858 41.065,31.898 	"/>
	<polyline fill="#008C61" points="64.105,12.698 65.065,12.698 65.065,13.658 53.785,24.698 52.825,24.698 52.825,23.738 	"/>
	<polyline fill="#008C61" points="64.105,12.698 65.065,12.698 75.146,14.618 75.146,15.578 74.186,15.578 64.105,13.658 	"/>
	<polyline fill="#008C61" points="86.665,11.258 87.625,11.258 87.625,12.218 75.146,15.578 74.186,15.578 74.186,14.618 	"/>
	<polyline fill="#008C61" points="113.065,7.658 114.025,7.658 114.025,8.618 87.625,12.218 86.665,12.218 86.665,11.258 	"/>
	<polyline fill="#008C61" points="113.065,7.658 114.025,7.658 129.146,9.578 129.146,10.538 128.186,10.538 113.065,8.618 	"/>
	<polyline fill="#008C61" points="128.186,9.578 129.146,9.578 137.785,18.458 137.785,19.418 136.825,19.418 128.186,10.538 	"/>
	<polyline fill="#008C61" points="136.825,18.458 137.785,18.458 148.346,20.618 148.346,21.578 147.386,21.578 136.825,19.418 	"/>
	<polyline fill="#008C61" points="147.386,20.618 148.346,20.618 154.346,29.018 154.346,29.978 153.386,29.978 147.386,21.578 	"/>
	<polyline fill="#008C61" points="153.386,29.018 154.346,29.018 159.865,34.058 159.865,35.018 158.905,35.018 153.386,29.978 	"/>
	<line fill="none" stroke="#008C61" stroke-width="0.96" stroke-miterlimit="10" x1="50.905" y1="45.098" x2="58.105" y2="45.098"/>
	<polyline fill="#008C61" points="63.865,26.378 64.825,26.378 64.825,27.338 58.105,45.578 57.146,45.578 57.146,44.618 	"/>
	<polyline fill="#008C61" points="83.545,19.898 84.505,19.898 84.505,20.858 64.825,27.338 63.865,27.338 63.865,26.378 	"/>
	<polyline fill="#008C61" points="83.545,19.898 84.505,19.898 88.346,23.018 88.346,23.978 87.386,23.978 83.545,20.858 	"/>
	<polyline fill="#008C61" points="84.985,64.778 85.945,64.778 85.945,65.738 84.745,66.698 83.785,66.698 83.785,65.738 	"/>
	<polyline fill="#008C61" points="83.785,65.738 84.745,65.738 84.745,66.698 81.625,69.098 80.665,69.098 80.665,68.138 	"/>
	<polyline fill="#008C61" points="80.665,68.138 81.625,68.138 81.625,69.098 78.505,72.218 77.545,72.218 77.545,71.258 	"/>
	<polyline fill="#008C61" points="108.025,60.938 108.985,60.938 110.426,61.898 110.426,62.858 109.466,62.858 108.025,61.898 	"/>
	<polyline fill="#008C61" points="106.105,60.218 107.065,60.218 108.985,60.938 108.985,61.898 108.025,61.898 106.105,61.178 	"/>
	<polyline fill="#008C61" points="103.945,59.738 104.905,59.738 107.065,60.218 107.065,61.178 106.105,61.178 103.945,60.698 	"/>
	<polyline fill="#008C61" points="101.545,59.258 102.505,59.258 104.905,59.738 104.905,60.698 103.945,60.698 101.545,60.218 	"/>
	<polyline fill="#008C61" points="98.426,59.018 99.386,59.018 102.505,59.258 102.505,60.218 101.545,60.218 98.426,59.978 	"/>
	<polyline fill="#008C61" points="98.426,59.018 99.386,59.018 99.386,59.978 96.266,60.458 95.306,60.458 95.306,59.498 	"/>
	<polyline fill="#008C61" points="95.306,59.498 96.266,59.498 96.266,60.458 93.146,61.658 92.186,61.658 92.186,60.698 	"/>
	<polyline fill="#008C61" points="92.186,60.698 93.146,60.698 93.146,61.658 89.545,63.338 88.585,63.338 88.585,62.378 	"/>
	<polyline fill="#008C61" points="88.585,62.378 89.545,62.378 89.545,63.338 85.945,65.738 84.985,65.738 84.985,64.778 	"/>
	<line fill="none" stroke="#008C61" stroke-width="0.96" stroke-miterlimit="10" x1="72.266" y1="66.698" x2="75.386" y2="66.698"/>
	<polyline fill="#008C61" points="66.745,61.658 67.705,61.658 73.226,66.218 73.226,67.178 72.266,67.178 66.745,62.618 	"/>
	<line fill="none" stroke="#008C61" stroke-width="0.96" stroke-miterlimit="10" x1="67.226" y1="53.258" x2="67.226" y2="62.618"/>
	<line fill="none" stroke="#008C61" stroke-width="0.96" stroke-miterlimit="10" x1="74.426" y1="66.698" x2="76.346" y2="66.698"/>
	<polyline fill="#008C61" points="96.745,38.858 97.705,38.858 98.905,40.778 98.905,41.738 97.945,41.738 96.745,39.818 	"/>
	<polyline fill="#008C61" points="97.945,40.778 98.905,40.778 99.625,42.458 99.625,43.418 98.665,43.418 97.945,41.738 	"/>
	<polyline fill="#008C61" points="98.665,42.458 99.625,42.458 100.105,43.898 100.105,44.858 99.146,44.858 98.665,43.418 	"/>
	<line fill="none" stroke="#008C61" stroke-width="0.96" stroke-miterlimit="10" x1="99.625" y1="43.898" x2="99.625" y2="46.058"/>
	<line fill="none" stroke="#008C61" stroke-width="0.96" stroke-miterlimit="10" x1="99.625" y1="45.098" x2="99.625" y2="47.018"/>
	<polyline fill="#008C61" points="99.146,46.058 100.105,46.058 100.105,47.018 99.625,47.738 98.665,47.738 98.665,46.778 	"/>
	<polyline fill="#008C61" points="98.665,46.778 99.625,46.778 99.625,47.738 98.905,47.978 97.945,47.978 97.945,47.018 	"/>
	<polyline fill="#008C61" points="97.945,47.018 98.905,47.018 98.905,47.978 97.705,48.218 96.745,48.218 96.745,47.258 	"/>
	<polyline fill="#008C61" points="94.825,47.018 95.785,47.018 97.705,47.258 97.705,48.218 96.745,48.218 94.825,47.978 	"/>
	<polyline fill="#008C61" points="94.825,47.018 95.785,47.018 95.785,47.978 93.865,48.218 92.905,48.218 92.905,47.258 	"/>
	<polyline fill="#008C61" points="92.905,47.258 93.865,47.258 93.865,48.218 91.945,48.938 90.985,48.938 90.985,47.978 	"/>
	<polyline fill="#008C61" points="90.985,47.978 91.945,47.978 91.945,48.938 90.025,49.658 89.065,49.658 89.065,48.698 	"/>
	<polyline fill="#008C61" points="89.065,48.698 90.025,48.698 90.025,49.658 87.865,51.098 86.905,51.098 86.905,50.138 	"/>
	<polyline fill="#008C61" points="86.905,50.138 87.865,50.138 87.865,51.098 85.945,52.778 84.985,52.778 84.985,51.818 	"/>
	<polyline fill="#008C61" points="84.985,51.818 85.945,51.818 85.945,52.778 83.785,54.698 82.825,54.698 82.825,53.738 	"/>
	<polyline fill="#008C61" points="82.825,53.738 83.785,53.738 83.785,54.698 81.625,57.098 80.665,57.098 80.665,56.138 	"/>
	<polyline fill="#008C61" points="80.665,56.138 81.625,56.138 81.625,57.098 79.705,59.258 78.745,59.258 78.745,58.298 	"/>
	<polyline fill="#008C61" points="78.745,58.298 79.705,58.298 79.705,59.258 78.505,61.178 77.545,61.178 77.545,60.218 	"/>
	<polyline fill="#008C61" points="77.545,60.218 78.505,60.218 78.505,61.178 77.785,63.338 76.825,63.338 76.825,62.378 	"/>
	<line fill="none" stroke="#008C61" stroke-width="0.96" stroke-miterlimit="10" x1="77.306" y1="62.378" x2="77.306" y2="65.018"/>
	<polyline fill="#008C61" points="76.825,64.058 77.785,64.058 77.785,65.018 75.386,67.178 74.426,67.178 74.426,66.218 	"/>
	<polyline fill="#008C61" points="74.426,66.218 75.386,66.218 75.386,67.178 69.386,72.218 68.426,72.218 68.426,71.258 	"/>
	<line fill="none" stroke="#008C61" stroke-width="0.96" stroke-miterlimit="10" x1="68.905" y1="71.258" x2="68.905" y2="86.378"/>
	<polyline fill="#008C61" points="68.426,85.418 69.386,85.418 69.386,86.378 62.665,99.098 61.705,99.098 61.705,98.138 	"/>
	<polyline fill="#008C61" points="61.705,98.138 62.665,98.138 72.505,114.458 72.505,115.418 71.545,115.418 61.705,99.098 	"/>
	
		<line fill="none" stroke="#008C61" stroke-width="0.96" stroke-miterlimit="10" x1="72.025" y1="114.458" x2="72.025" y2="131.738"/>
	<polyline fill="#008C61" points="71.545,130.778 72.505,130.778 78.025,137.498 78.025,138.458 77.065,138.458 71.545,131.738 	"/>
	<polyline fill="#008C61" points="77.065,137.498 78.025,137.498 79.226,138.698 79.226,139.658 78.266,139.658 77.065,138.458 	"/>
	
		<line fill="none" stroke="#008C61" stroke-width="0.96" stroke-miterlimit="10" x1="78.266" y1="139.178" x2="104.905" y2="139.178"/>
	<polyline fill="#008C61" points="103.945,138.698 104.905,138.698 119.306,142.778 119.306,143.738 118.346,143.738 
		103.945,139.658 	"/>
	
		<line fill="none" stroke="#008C61" stroke-width="0.96" stroke-miterlimit="10" x1="109.466" y1="64.058" x2="112.105" y2="64.058"/>
	
		<line fill="none" stroke="#008C61" stroke-width="0.96" stroke-miterlimit="10" x1="101.065" y1="64.058" x2="110.426" y2="64.058"/>
	<polyline fill="#008C61" points="101.065,63.578 102.025,63.578 102.025,64.538 97.945,67.418 96.985,67.418 96.985,66.458 	"/>
	<polyline fill="#008C61" points="96.985,66.458 97.945,66.458 97.945,67.418 94.825,70.298 93.865,70.298 93.865,69.338 	"/>
	<polyline fill="#008C61" points="93.865,69.338 94.825,69.338 94.825,70.298 92.186,73.178 91.226,73.178 91.226,72.218 	"/>
	<polyline fill="#008C61" points="91.226,72.218 92.186,72.218 92.186,73.178 90.266,76.058 89.306,76.058 89.306,75.098 	"/>
	<line fill="none" stroke="#008C61" stroke-width="0.96" stroke-miterlimit="10" x1="89.785" y1="75.098" x2="89.785" y2="87.818"/>
	<polyline fill="#008C61" points="89.306,86.858 90.266,86.858 90.266,87.818 89.306,90.698 88.346,90.698 88.346,89.738 	"/>
	<polyline fill="#008C61" points="88.346,89.738 89.306,89.738 89.306,90.698 88.346,93.338 87.386,93.338 87.386,92.378 	"/>
	<polyline fill="#008C61" points="87.386,92.378 88.346,92.378 88.346,93.338 85.466,98.618 84.505,98.618 84.505,97.658 	"/>
	<polyline fill="#008C61" points="84.505,97.658 85.466,97.658 85.466,98.618 82.105,103.418 81.146,103.418 81.146,102.458 	"/>
	<polyline fill="#008C61" points="81.146,102.458 82.105,102.458 82.105,103.418 80.186,106.058 79.226,106.058 79.226,105.098 	"/>
	<polyline fill="#008C61" points="79.226,105.098 80.186,105.098 80.186,106.058 78.025,108.218 77.065,108.218 77.065,107.258 	"/>
	<polyline fill="#008C61" points="76.825,64.058 77.785,64.058 85.945,64.778 85.945,65.738 84.985,65.738 76.825,65.018 	"/>
	<polyline fill="#008C61" points="110.426,62.618 111.386,62.618 112.105,63.578 112.105,64.538 111.146,64.538 110.426,63.578 	"/>
	<polyline fill="#008C61" points="109.466,61.898 110.426,61.898 111.386,62.618 111.386,63.578 110.426,63.578 109.466,62.858 	"/>
	<polyline fill="#008C61" points="131.065,50.858 132.025,50.858 132.025,51.818 117.865,57.338 116.905,57.338 116.905,56.378 	"/>
	<polyline fill="#008C61" points="116.905,56.378 117.865,56.378 117.865,57.338 110.426,62.858 109.466,62.858 109.466,61.898 	"/>
	<polyline fill="#008C61" points="125.306,136.298 126.266,136.298 126.266,137.258 119.785,138.458 118.825,138.458 
		118.825,137.498 	"/>
	<polyline fill="#008C61" points="131.545,135.578 132.505,135.578 132.505,136.538 126.266,137.258 125.306,137.258 
		125.306,136.298 	"/>
	<polyline fill="#008C61" points="131.545,135.578 132.505,135.578 138.745,135.818 138.745,136.778 137.785,136.778 
		131.545,136.538 	"/>
	<polyline fill="#008C61" points="137.785,135.818 138.745,135.818 144.985,136.538 144.985,137.498 144.025,137.498 
		137.785,136.778 	"/>
	
		<line fill="none" stroke="#008C61" stroke-width="0.96" stroke-miterlimit="10" x1="144.025" y1="137.018" x2="147.865" y2="137.018"/>
	<polyline fill="#008C61" points="149.545,136.298 150.505,136.298 150.505,137.258 147.865,137.498 146.905,137.498 
		146.905,136.538 	"/>
	<polyline fill="#008C61" points="151.705,135.578 152.665,135.578 152.665,136.538 150.505,137.258 149.545,137.258 
		149.545,136.298 	"/>
	<polyline fill="#008C61" points="153.625,134.618 154.585,134.618 154.585,135.578 152.665,136.538 151.705,136.538 
		151.705,135.578 	"/>
	<polyline fill="#008C61" points="155.065,133.418 156.025,133.418 156.025,134.378 154.585,135.578 153.625,135.578 
		153.625,134.618 	"/>
	<polyline fill="#008C61" points="155.785,131.738 156.745,131.738 156.745,132.698 156.025,134.378 155.065,134.378 
		155.065,133.418 	"/>
	<polyline fill="#008C61" points="156.505,129.818 157.466,129.818 157.466,130.778 156.745,132.698 155.785,132.698 
		155.785,131.738 	"/>
	
		<line fill="none" stroke="#008C61" stroke-width="0.96" stroke-miterlimit="10" x1="156.985" y1="127.658" x2="156.985" y2="130.778"/>
	<polyline fill="#008C61" points="156.025,126.458 156.985,126.458 157.466,127.658 157.466,128.618 156.505,128.618 
		156.025,127.418 	"/>
	<polyline fill="#008C61" points="155.785,125.498 156.745,125.498 156.985,126.458 156.985,127.418 156.025,127.418 
		155.785,126.458 	"/>
	
		<line fill="none" stroke="#008C61" stroke-width="0.96" stroke-miterlimit="10" x1="156.266" y1="123.098" x2="156.266" y2="126.458"/>
	<polyline fill="#008C61" points="156.266,121.898 157.226,121.898 157.226,122.858 156.745,124.058 155.785,124.058 
		155.785,123.098 	"/>
	<polyline fill="#008C61" points="156.745,120.698 157.705,120.698 157.705,121.658 157.226,122.858 156.266,122.858 
		156.266,121.898 	"/>
	<polyline fill="#008C61" points="158.665,118.298 159.625,118.298 159.625,119.258 157.705,121.658 156.745,121.658 
		156.745,120.698 	"/>
	<polyline fill="#008C61" points="160.105,116.378 161.065,116.378 161.065,117.338 159.625,119.258 158.665,119.258 
		158.665,118.298 	"/>
	<polyline fill="#008C61" points="161.306,114.458 162.266,114.458 162.266,115.418 161.065,117.338 160.105,117.338 
		160.105,116.378 	"/>
	<polyline fill="#008C61" points="162.505,112.778 163.466,112.778 163.466,113.738 162.266,115.418 161.306,115.418 
		161.306,114.458 	"/>
	<polyline fill="#008C61" points="163.226,111.098 164.186,111.098 164.186,112.058 163.466,113.738 162.505,113.738 
		162.505,112.778 	"/>
	<polyline fill="#008C61" points="163.945,109.418 164.905,109.418 164.905,110.378 164.186,112.058 163.226,112.058 
		163.226,111.098 	"/>
	<polyline fill="#008C61" points="164.426,107.978 165.386,107.978 165.386,108.938 164.905,110.378 163.945,110.378 
		163.945,109.418 	"/>
	<polyline fill="#008C61" points="164.665,106.538 165.625,106.538 165.625,107.498 165.386,108.938 164.426,108.938 
		164.426,107.978 	"/>
	
		<line fill="none" stroke="#008C61" stroke-width="0.96" stroke-miterlimit="10" x1="165.146" y1="105.098" x2="165.146" y2="107.498"/>
	<polyline fill="#008C61" points="160.585,99.338 161.545,99.338 165.625,105.098 165.625,106.058 164.665,106.058 160.585,100.298 
			"/>
	<polyline fill="#008C61" points="156.745,94.058 157.705,94.058 161.545,99.338 161.545,100.298 160.585,100.298 156.745,95.018 	
		"/>
	<polyline fill="#008C61" points="152.905,89.738 153.865,89.738 157.705,94.058 157.705,95.018 156.745,95.018 152.905,90.698 	"/>
	<polyline fill="#008C61" points="148.825,85.898 149.785,85.898 153.865,89.738 153.865,90.698 152.905,90.698 148.825,86.858 	"/>
	<polyline fill="#008C61" points="142.585,73.178 143.545,73.178 149.785,85.898 149.785,86.858 148.825,86.858 142.585,74.138 	"/>
	<polyline fill="#008C61" points="121.466,63.578 122.426,63.578 143.545,73.178 143.545,74.138 142.585,74.138 121.466,64.538 	"/>
	
		<line fill="none" stroke="#008C61" stroke-width="0.96" stroke-miterlimit="10" x1="111.146" y1="64.058" x2="122.426" y2="64.058"/>
	<polyline fill="#008C61" points="118.105,141.578 119.065,141.578 119.306,142.778 119.306,143.738 118.346,143.738 
		118.105,142.538 	"/>
	<polyline fill="#008C61" points="163.945,161.018 164.905,161.018 164.905,161.978 153.865,168.458 152.905,168.458 
		152.905,167.498 	"/>
	<polyline fill="#008C61" points="152.905,167.498 153.865,167.498 153.865,168.458 144.985,179.018 144.025,179.018 
		144.025,178.058 	"/>
	<polyline fill="#008C61" points="144.025,178.058 144.985,178.058 144.985,179.018 136.346,182.378 135.386,182.378 
		135.386,181.418 	"/>
	<polyline fill="#008C61" points="122.426,177.578 123.386,177.578 136.346,181.418 136.346,182.378 135.386,182.378 
		122.426,178.538 	"/>
	<polyline fill="#008C61" points="119.065,143.018 120.025,143.018 130.585,146.138 130.585,147.098 129.625,147.098 
		119.065,143.978 	"/>
	<polyline fill="#008C61" points="124.825,156.698 125.785,156.698 127.226,157.658 127.226,158.618 126.266,158.618 
		124.825,157.658 	"/>
	<polyline fill="#008C61" points="123.386,155.258 124.346,155.258 125.785,156.698 125.785,157.658 124.825,157.658 
		123.386,156.218 	"/>
	<polyline fill="#008C61" points="122.186,153.818 123.146,153.818 124.346,155.258 124.346,156.218 123.386,156.218 
		122.186,154.778 	"/>
	<polyline fill="#008C61" points="120.985,152.138 121.945,152.138 123.146,153.818 123.146,154.778 122.186,154.778 
		120.985,153.098 	"/>
	<polyline fill="#008C61" points="120.025,150.218 120.985,150.218 121.945,152.138 121.945,153.098 120.985,153.098 
		120.025,151.178 	"/>
	<polyline fill="#008C61" points="119.306,148.058 120.266,148.058 120.985,150.218 120.985,151.178 120.025,151.178 
		119.306,149.018 	"/>
	<polyline fill="#008C61" points="118.825,145.658 119.785,145.658 120.266,148.058 120.266,149.018 119.306,149.018 
		118.825,146.618 	"/>
	<polyline fill="#008C61" points="118.346,143.258 119.306,143.258 119.785,145.658 119.785,146.618 118.825,146.618 
		118.346,144.218 	"/>
	<polyline fill="#008C61" points="55.466,117.818 56.426,117.818 66.266,127.898 66.266,128.858 65.306,128.858 55.466,118.778 	"/>
	<polyline fill="#008C61" points="29.065,91.178 30.025,91.178 30.025,92.138 28.105,93.818 27.146,93.818 27.146,92.858 	"/>
	<polyline fill="#008C61" points="35.545,87.578 36.505,87.578 36.505,88.538 31.945,100.538 30.985,100.538 30.985,99.578 	"/>
	<polyline fill="#008C61" points="160.105,35.018 161.065,35.018 168.985,42.458 168.985,43.418 168.025,43.418 160.105,35.978 	"/>
	<polyline fill="#008C61" points="168.025,42.458 168.985,42.458 179.065,47.018 179.065,47.978 178.105,47.978 168.025,43.418 	"/>
	
		<line fill="none" stroke="#008C61" stroke-width="0.96" stroke-miterlimit="10" x1="178.585" y1="47.018" x2="178.585" y2="55.178"/>
	<polyline fill="#008C61" points="178.105,54.218 179.065,54.218 183.865,59.738 183.865,60.698 182.905,60.698 178.105,55.178 	"/>
	
		<line fill="none" stroke="#008C61" stroke-width="0.96" stroke-miterlimit="10" x1="183.386" y1="59.738" x2="183.386" y2="75.098"/>
	<polyline fill="#008C61" points="158.905,34.058 159.865,34.058 161.065,35.018 161.065,35.978 160.105,35.978 158.905,35.018 	"/>
	<polyline fill="#008C61" points="158.905,34.058 159.865,34.058 161.065,35.018 161.065,35.978 160.105,35.978 158.905,35.018 	"/>
	<polyline fill="#008C61" points="168.745,74.858 169.705,74.858 170.905,78.458 170.905,79.418 169.945,79.418 168.745,75.818 	"/>
	<polyline fill="#008C61" points="155.065,69.818 156.025,69.818 169.705,74.858 169.705,75.818 168.745,75.818 155.065,70.778 	"/>
	<polyline fill="#008C61" points="145.466,50.858 146.426,50.858 156.025,69.818 156.025,70.778 155.065,70.778 145.466,51.818 	"/>
	
		<line fill="none" stroke="#008C61" stroke-width="0.96" stroke-miterlimit="10" x1="131.065" y1="51.338" x2="146.426" y2="51.338"/>
	<polyline fill="#008C61" points="182.905,74.138 183.865,74.138 183.865,75.098 180.745,79.178 179.785,79.178 179.785,78.218 	"/>
	<polyline fill="#008C61" points="179.785,78.218 180.745,78.218 180.745,79.178 170.905,79.418 169.945,79.418 169.945,78.458 	"/>
	<polyline fill="#008C61" points="126.266,157.658 127.226,157.658 130.346,158.618 130.346,159.578 129.386,159.578 
		126.266,158.618 	"/>
	<polyline fill="#008C61" points="129.386,158.618 130.346,158.618 133.466,158.858 133.466,159.818 132.505,159.818 
		129.386,159.578 	"/>
	<polyline fill="#008C61" points="135.146,158.618 136.105,158.618 136.105,159.578 133.466,159.818 132.505,159.818 
		132.505,158.858 	"/>
	<polyline fill="#008C61" points="137.785,157.658 138.745,157.658 138.745,158.618 136.105,159.578 135.146,159.578 
		135.146,158.618 	"/>
	<polyline fill="#008C61" points="140.426,156.218 141.386,156.218 141.386,157.178 138.745,158.618 137.785,158.618 
		137.785,157.658 	"/>
	<polyline fill="#008C61" points="142.825,154.298 143.785,154.298 143.785,155.258 141.386,157.178 140.426,157.178 
		140.426,156.218 	"/>
	<polyline fill="#008C61" points="144.985,151.418 145.945,151.418 145.945,152.378 143.785,155.258 142.825,155.258 
		142.825,154.298 	"/>
	<polyline fill="#008C61" points="147.146,148.298 148.105,148.298 148.105,149.258 145.945,152.378 144.985,152.378 
		144.985,151.418 	"/>
	<polyline fill="#008C61" points="147.865,146.378 148.825,146.378 148.825,147.338 148.105,149.258 147.146,149.258 
		147.146,148.298 	"/>
	<polyline fill="#008C61" points="148.585,144.698 149.545,144.698 149.545,145.658 148.825,147.338 147.865,147.338 
		147.865,146.378 	"/>
	<polyline fill="#008C61" points="149.785,143.738 150.745,143.738 150.745,144.698 149.545,145.658 148.585,145.658 
		148.585,144.698 	"/>
	<polyline fill="#008C61" points="150.745,143.018 151.705,143.018 151.705,143.978 150.745,144.698 149.785,144.698 
		149.785,143.738 	"/>
	<polyline fill="#008C61" points="152.186,142.778 153.146,142.778 153.146,143.738 151.705,143.978 150.745,143.978 
		150.745,143.018 	"/>
	
		<line fill="none" stroke="#008C61" stroke-width="0.96" stroke-miterlimit="10" x1="152.186" y1="143.258" x2="154.585" y2="143.258"/>
	<polyline fill="#008C61" points="153.625,142.778 154.585,142.778 156.266,143.498 156.266,144.458 155.306,144.458 
		153.625,143.738 	"/>
	<polyline fill="#008C61" points="155.306,143.498 156.266,143.498 157.945,144.458 157.945,145.418 156.985,145.418 
		155.306,144.458 	"/>
	<polyline fill="#008C61" points="159.865,143.978 160.825,143.978 160.825,144.938 157.945,145.418 156.985,145.418 
		156.985,144.458 	"/>
	<polyline fill="#008C61" points="162.266,143.258 163.226,143.258 163.226,144.218 160.825,144.938 159.865,144.938 
		159.865,143.978 	"/>
	<polyline fill="#008C61" points="164.665,142.298 165.625,142.298 165.625,143.258 163.226,144.218 162.266,144.218 
		162.266,143.258 	"/>
	<polyline fill="#008C61" points="166.585,141.098 167.545,141.098 167.545,142.058 165.625,143.258 164.665,143.258 
		164.665,142.298 	"/>
	<polyline fill="#008C61" points="168.505,139.898 169.466,139.898 169.466,140.858 167.545,142.058 166.585,142.058 
		166.585,141.098 	"/>
	<polyline fill="#008C61" points="170.186,138.458 171.146,138.458 171.146,139.418 169.466,140.858 168.505,140.858 
		168.505,139.898 	"/>
	<polyline fill="#008C61" points="171.865,136.778 172.825,136.778 172.825,137.738 171.146,139.418 170.186,139.418 
		170.186,138.458 	"/>
	<polyline fill="#008C61" points="173.065,134.858 174.025,134.858 174.025,135.818 172.825,137.738 171.865,137.738 
		171.865,136.778 	"/>
	<polyline fill="#008C61" points="174.985,132.698 175.945,132.698 175.945,133.658 174.025,135.818 173.065,135.818 
		173.065,134.858 	"/>
	<polyline fill="#008C61" points="176.426,130.538 177.386,130.538 177.386,131.498 175.945,133.658 174.985,133.658 
		174.985,132.698 	"/>
	<polyline fill="#008C61" points="177.146,128.378 178.105,128.378 178.105,129.338 177.386,131.498 176.426,131.498 
		176.426,130.538 	"/>
	<polyline fill="#008C61" points="177.386,125.978 178.346,125.978 178.346,126.938 178.105,129.338 177.146,129.338 
		177.146,128.378 	"/>
	<polyline fill="#008C61" points="177.146,123.578 178.105,123.578 178.346,125.978 178.346,126.938 177.386,126.938 
		177.146,124.538 	"/>
	<polyline fill="#008C61" points="176.426,120.938 177.386,120.938 178.105,123.578 178.105,124.538 177.146,124.538 
		176.426,121.898 	"/>
	<polyline fill="#008C61" points="174.985,118.298 175.945,118.298 177.386,120.938 177.386,121.898 176.426,121.898 
		174.985,119.258 	"/>
	<polyline fill="#008C61" points="173.065,115.658 174.025,115.658 175.945,118.298 175.945,119.258 174.985,119.258 
		173.065,116.618 	"/>
	<polyline fill="#008C61" points="173.545,111.818 174.505,111.818 174.505,112.778 174.025,116.618 173.065,116.618 
		173.065,115.658 	"/>
	<polyline fill="#008C61" points="174.745,107.978 175.705,107.978 175.705,108.938 174.505,112.778 173.545,112.778 
		173.545,111.818 	"/>
	<polyline fill="#008C61" points="176.905,103.898 177.865,103.898 177.865,104.858 175.705,108.938 174.745,108.938 
		174.745,107.978 	"/>
	<polyline fill="#008C61" points="179.545,100.058 180.505,100.058 180.505,101.018 177.865,104.858 176.905,104.858 
		176.905,103.898 	"/>
	<polyline fill="#008C61" points="173.545,90.938 174.505,90.938 180.505,100.058 180.505,101.018 179.545,101.018 173.545,91.898 	
		"/>
	<polyline fill="#008C61" points="169.945,78.458 170.905,78.458 174.505,90.938 174.505,91.898 173.545,91.898 169.945,79.418 	"/>
	<polyline fill="#008C61" points="182.905,74.138 183.865,74.138 191.065,79.178 191.065,80.138 190.105,80.138 182.905,75.098 	"/>
	<polyline fill="#008C61" points="190.105,79.178 191.065,79.178 191.065,80.138 189.625,93.818 188.665,93.818 188.665,92.858 	"/>
	<polyline fill="#008C61" points="188.665,92.858 189.625,92.858 189.625,93.818 184.825,112.298 183.865,112.298 183.865,111.338 	
		"/>
	<polyline fill="#008C61" points="183.865,111.338 184.825,111.338 187.466,121.418 187.466,122.378 186.505,122.378 
		183.865,112.298 	"/>
	<polyline fill="#008C61" points="186.505,121.418 187.466,121.418 189.625,125.738 189.625,126.698 188.665,126.698 
		186.505,122.378 	"/>
	<polyline fill="#008C61" points="188.665,125.738 189.625,125.738 191.306,129.578 191.306,130.538 190.346,130.538 
		188.665,126.698 	"/>
	<polyline fill="#008C61" points="190.346,129.578 191.306,129.578 192.505,133.178 192.505,134.138 191.545,134.138 
		190.346,130.538 	"/>
	<polyline fill="#008C61" points="191.545,133.178 192.505,133.178 193.226,136.298 193.226,137.258 192.266,137.258 
		191.545,134.138 	"/>
	<polyline fill="#008C61" points="192.266,136.298 193.226,136.298 193.466,139.418 193.466,140.378 192.505,140.378 
		192.266,137.258 	"/>
	<polyline fill="#008C61" points="192.505,139.418 193.466,139.418 193.466,140.378 193.226,143.018 192.266,143.018 
		192.266,142.058 	"/>
	<polyline fill="#008C61" points="192.266,142.058 193.226,142.058 193.226,143.018 192.266,145.418 191.306,145.418 
		191.306,144.458 	"/>
	<polyline fill="#008C61" points="191.306,144.458 192.266,144.458 192.266,145.418 190.825,147.578 189.865,147.578 
		189.865,146.618 	"/>
	<polyline fill="#008C61" points="189.865,146.618 190.825,146.618 190.825,147.578 189.865,149.018 188.905,149.018 
		188.905,148.058 	"/>
	<polyline fill="#008C61" points="188.905,148.058 189.865,148.058 189.865,149.018 188.426,149.978 187.466,149.978 
		187.466,149.018 	"/>
	<polyline fill="#008C61" points="187.466,149.018 188.426,149.018 188.426,149.978 186.745,151.178 185.785,151.178 
		185.785,150.218 	"/>
	<polyline fill="#008C61" points="185.785,150.218 186.745,150.218 186.745,151.178 184.825,152.138 183.865,152.138 
		183.865,151.178 	"/>
	<polyline fill="#008C61" points="183.865,151.178 184.825,151.178 184.825,152.138 182.665,153.098 181.705,153.098 
		181.705,152.138 	"/>
	<polyline fill="#008C61" points="181.705,152.138 182.665,152.138 182.665,153.098 180.505,154.058 179.545,154.058 
		179.545,153.098 	"/>
	<polyline fill="#008C61" points="179.545,153.098 180.505,153.098 180.505,154.058 178.346,154.538 177.386,154.538 
		177.386,153.578 	"/>
	<polyline fill="#008C61" points="177.386,153.578 178.346,153.578 178.346,154.538 176.186,155.018 175.226,155.018 
		175.226,154.058 	"/>
	
		<line fill="none" stroke="#008C61" stroke-width="0.96" stroke-miterlimit="10" x1="173.065" y1="154.538" x2="176.186" y2="154.538"/>
	
		<line fill="none" stroke="#008C61" stroke-width="0.96" stroke-miterlimit="10" x1="170.905" y1="154.538" x2="174.025" y2="154.538"/>
	<polyline fill="#008C61" points="168.985,153.818 169.945,153.818 171.865,154.058 171.865,155.018 170.905,155.018 
		168.985,154.778 	"/>
	<polyline fill="#008C61" points="166.825,153.098 167.785,153.098 169.945,153.818 169.945,154.778 168.985,154.778 
		166.825,154.058 	"/>
	<polyline fill="#008C61" points="166.825,153.098 167.785,153.098 167.785,154.058 166.585,155.738 165.625,155.738 
		165.625,154.778 	"/>
	<polyline fill="#008C61" points="165.625,154.778 166.585,154.778 166.585,155.738 165.146,156.938 164.186,156.938 
		164.186,155.978 	"/>
	<polyline fill="#008C61" points="164.186,155.978 165.146,155.978 165.146,156.938 164.186,157.898 163.226,157.898 
		163.226,156.938 	"/>
	<polyline fill="#008C61" points="163.226,156.938 164.186,156.938 164.186,157.898 162.985,158.858 162.025,158.858 
		162.025,157.898 	"/>
	<polyline fill="#008C61" points="162.025,157.898 162.985,157.898 162.985,158.858 161.545,159.578 160.585,159.578 
		160.585,158.618 	"/>
	<polyline fill="#008C61" points="191.065,93.098 192.025,93.098 200.186,142.538 200.186,143.498 199.226,143.498 191.065,94.058 	
		"/>
	<polyline fill="#008C61" points="199.226,142.538 200.186,142.538 200.186,143.498 183.146,161.978 182.186,161.978 
		182.186,161.018 	"/>
	
		<line fill="none" stroke="#008C61" stroke-width="0.96" stroke-miterlimit="10" x1="163.945" y1="161.498" x2="183.146" y2="161.498"/>
	<polyline fill="#008C61" points="161.065,159.098 162.025,159.098 164.905,161.018 164.905,161.978 163.945,161.978 
		161.065,160.058 	"/>
	<polyline fill="#008C61" points="160.585,158.618 161.545,158.618 162.025,159.098 162.025,160.058 161.065,160.058 
		160.585,159.578 	"/>
	<polyline fill="#008C61" points="100.825,14.378 101.785,14.378 101.785,15.338 88.346,23.978 87.386,23.978 87.386,23.018 	"/>
	<polyline fill="#008C61" points="100.825,14.378 101.785,14.378 116.905,19.898 116.905,20.858 115.945,20.858 100.825,15.338 	"/>
	
		<line fill="none" stroke="#008C61" stroke-width="0.96" stroke-miterlimit="10" x1="115.945" y1="20.378" x2="133.705" y2="20.378"/>
	<polyline fill="#008C61" points="132.745,19.898 133.705,19.898 140.905,22.298 140.905,23.258 139.945,23.258 132.745,20.858 	"/>
	<polyline fill="#008C61" points="139.945,22.298 140.905,22.298 150.505,34.058 150.505,35.018 149.545,35.018 139.945,23.258 	"/>
	
		<line fill="none" stroke="#008C61" stroke-width="0.96" stroke-miterlimit="10" x1="149.545" y1="34.538" x2="159.865" y2="34.538"/>
	<polyline fill="#008C61" points="37.226,50.378 38.186,50.378 38.186,51.338 36.505,53.978 35.545,53.978 35.545,53.018 	"/>
	<line fill="none" stroke="#008C61" stroke-width="0.96" stroke-miterlimit="10" x1="37.226" y1="50.858" x2="42.985" y2="50.858"/>
	<polyline fill="#008C61" points="50.905,44.618 51.865,44.618 51.865,45.578 42.985,51.338 42.025,51.338 42.025,50.378 	"/>
	<polyline fill="#008C61" points="29.065,74.618 30.025,74.618 30.025,75.578 29.785,83.498 28.825,83.498 28.825,82.538 	"/>
	<polyline fill="#008C61" points="33.386,68.378 34.346,68.378 34.346,69.338 30.025,75.578 29.065,75.578 29.065,74.618 	"/>
	<polyline fill="#008C61" points="36.745,61.178 37.705,61.178 37.705,62.138 34.346,69.338 33.386,69.338 33.386,68.378 	"/>
	<polyline fill="#008C61" points="35.065,54.938 36.025,54.938 37.705,61.178 37.705,62.138 36.745,62.138 35.065,55.898 	"/>
	<polyline fill="#008C61" points="35.545,53.018 36.505,53.018 36.505,53.978 36.025,55.898 35.065,55.898 35.065,54.938 	"/>
	<polyline fill="#008C61" points="25.226,89.498 26.186,89.498 28.105,92.858 28.105,93.818 27.146,93.818 25.226,90.458 	"/>
	<polyline fill="#008C61" points="28.825,82.538 29.785,82.538 29.785,83.498 26.186,90.458 25.226,90.458 25.226,89.498 	"/>
	<line fill="none" stroke="#008C61" stroke-width="0.96" stroke-miterlimit="10" x1="29.306" y1="82.538" x2="29.306" y2="89.738"/>
	<polyline fill="#008C61" points="29.785,102.218 30.745,102.218 32.905,113.018 32.905,113.978 31.945,113.978 29.785,103.178 	"/>
	<polyline fill="#008C61" points="30.985,99.578 31.945,99.578 31.945,100.538 30.745,103.178 29.785,103.178 29.785,102.218 	"/>
	<polyline fill="#008C61" points="27.146,92.858 28.105,92.858 31.945,99.578 31.945,100.538 30.985,100.538 27.146,93.818 	"/>
	<polyline fill="#008C61" points="33.865,123.818 34.825,123.818 41.785,132.698 41.785,133.658 40.825,133.658 33.865,124.778 	"/>
	<polyline fill="#008C61" points="31.945,113.018 32.905,113.018 34.825,123.818 34.825,124.778 33.865,124.778 31.945,113.978 	"/>
	<polyline fill="#008C61" points="53.545,141.338 54.505,141.338 66.266,149.978 66.266,150.938 65.306,150.938 53.545,142.298 	"/>
	
		<line fill="none" stroke="#008C61" stroke-width="0.96" stroke-miterlimit="10" x1="37.466" y1="141.818" x2="54.505" y2="141.818"/>
	<polyline fill="#008C61" points="33.386,136.058 34.346,136.058 38.426,141.338 38.426,142.298 37.466,142.298 33.386,137.018 	"/>
	<polyline fill="#008C61" points="31.945,113.018 32.905,113.018 34.346,136.058 34.346,137.018 33.386,137.018 31.945,113.978 	"/>
	
		<line fill="none" stroke="#008C61" stroke-width="0.96" stroke-miterlimit="10" x1="62.905" y1="179.018" x2="73.705" y2="179.018"/>
	<polyline fill="#008C61" points="29.545,164.618 30.505,164.618 63.865,178.538 63.865,179.498 62.905,179.498 29.545,165.578 	"/>
	<polyline fill="#008C61" points="7.705,135.338 8.665,135.338 30.505,164.618 30.505,165.578 29.545,165.578 7.705,136.298 	"/>
	<polyline fill="#008C61" points="18.266,121.418 19.226,121.418 19.226,122.378 8.665,136.298 7.705,136.298 7.705,135.338 	"/>
	<polyline fill="#008C61" points="21.386,98.138 22.346,98.138 22.346,99.098 19.226,122.378 18.266,122.378 18.266,121.418 	"/>
	<polyline fill="#008C61" points="27.146,92.858 28.105,92.858 28.105,93.818 22.346,99.098 21.386,99.098 21.386,98.138 	"/>
	<polyline fill="#008C61" points="113.545,136.298 114.505,136.298 119.785,137.498 119.785,138.458 118.825,138.458 
		113.545,137.258 	"/>
	<polyline fill="#008C61" points="131.065,140.378 132.025,140.378 132.025,141.338 120.025,143.978 119.065,143.978 
		119.065,143.018 	"/>
	<polyline fill="#008C61" points="124.346,138.458 125.306,138.458 132.025,140.378 132.025,141.338 131.065,141.338 
		124.346,139.418 	"/>
	
		<line fill="none" stroke="#008C61" stroke-width="0.96" stroke-miterlimit="10" x1="123.386" y1="138.938" x2="125.306" y2="138.938"/>
	<polyline fill="#008C61" points="118.825,137.498 119.785,137.498 124.346,138.458 124.346,139.418 123.386,139.418 
		118.825,138.458 	"/>
	<polyline fill="#008C61" points="140.186,124.778 141.146,124.778 141.146,125.738 114.505,137.258 113.545,137.258 
		113.545,136.298 	"/>
	<polyline fill="#008C61" points="149.785,107.978 150.745,107.978 150.745,108.938 141.146,125.738 140.186,125.738 
		140.186,124.778 	"/>
	<polyline fill="#008C61" points="108.985,134.858 109.945,134.858 114.505,136.298 114.505,137.258 113.545,137.258 
		108.985,135.818 	"/>
	<polyline fill="#008C61" points="104.186,132.938 105.146,132.938 109.945,134.858 109.945,135.818 108.985,135.818 
		104.186,133.898 	"/>
	<polyline fill="#008C61" points="99.865,131.018 100.825,131.018 105.146,132.938 105.146,133.898 104.186,133.898 99.865,131.978 
			"/>
	<polyline fill="#008C61" points="95.306,128.618 96.266,128.618 100.825,131.018 100.825,131.978 99.865,131.978 95.306,129.578 	
		"/>
	<polyline fill="#008C61" points="91.226,125.978 92.186,125.978 96.266,128.618 96.266,129.578 95.306,129.578 91.226,126.938 	"/>
	<polyline fill="#008C61" points="87.146,123.098 88.105,123.098 92.186,125.978 92.186,126.938 91.226,126.938 87.146,124.058 	"/>
	<polyline fill="#008C61" points="83.306,119.978 84.266,119.978 88.105,123.098 88.105,124.058 87.146,124.058 83.306,120.938 	"/>
	<polyline fill="#008C61" points="79.466,116.378 80.426,116.378 84.266,119.978 84.266,120.938 83.306,120.938 79.466,117.338 	"/>
	<polyline fill="#008C61" points="78.025,112.058 78.985,112.058 80.426,116.378 80.426,117.338 79.466,117.338 78.025,113.018 	"/>
	<polyline fill="#008C61" points="77.065,107.498 78.025,107.498 78.985,112.058 78.985,113.018 78.025,113.018 77.065,108.458 	"/>
	
		<line fill="none" stroke="#008C61" stroke-width="0.96" stroke-miterlimit="10" x1="77.545" y1="107.258" x2="77.545" y2="108.458"/>
	<polyline fill="#008C61" points="76.585,103.178 77.545,103.178 78.025,107.258 78.025,108.218 77.065,108.218 76.585,104.138 	"/>
	<polyline fill="#008C61" points="76.346,102.938 77.306,102.938 77.545,103.178 77.545,104.138 76.585,104.138 76.346,103.898 	"/>
	
		<line fill="none" stroke="#008C61" stroke-width="0.96" stroke-miterlimit="10" x1="76.825" y1="102.698" x2="76.825" y2="103.898"/>
	
		<line fill="none" stroke="#008C61" stroke-width="0.96" stroke-miterlimit="10" x1="76.825" y1="100.298" x2="76.825" y2="103.658"/>
	<polyline fill="#008C61" points="76.585,97.898 77.545,97.898 77.545,98.858 77.306,101.258 76.346,101.258 76.346,100.298 	"/>
	<polyline fill="#008C61" points="77.065,95.258 78.025,95.258 78.025,96.218 77.545,98.858 76.585,98.858 76.585,97.898 	"/>
	<polyline fill="#008C61" points="77.545,92.858 78.505,92.858 78.505,93.818 78.025,96.218 77.065,96.218 77.065,95.258 	"/>
	<polyline fill="#008C61" points="78.266,90.458 79.226,90.458 79.226,91.418 78.505,93.818 77.545,93.818 77.545,92.858 	"/>
	<polyline fill="#008C61" points="79.466,87.818 80.426,87.818 80.426,88.778 79.226,91.418 78.266,91.418 78.266,90.458 	"/>
	<polyline fill="#008C61" points="80.665,85.178 81.625,85.178 81.625,86.138 80.426,88.778 79.466,88.778 79.466,87.818 	"/>
	<polyline fill="#008C61" points="82.105,82.778 83.065,82.778 83.065,83.738 81.625,86.138 80.665,86.138 80.665,85.178 	"/>
	<polyline fill="#008C61" points="65.306,127.898 66.266,127.898 70.346,137.978 70.346,138.938 69.386,138.938 65.306,128.858 	"/>
	<polyline fill="#008C61" points="69.386,137.978 70.346,137.978 77.545,149.018 77.545,149.978 76.585,149.978 69.386,138.938 	"/>
	
		<line fill="none" stroke="#008C61" stroke-width="0.96" stroke-miterlimit="10" x1="77.065" y1="137.738" x2="77.065" y2="139.658"/>
	
		<line fill="none" stroke="#008C61" stroke-width="0.96" stroke-miterlimit="10" x1="77.065" y1="138.698" x2="77.065" y2="149.978"/>
	<polyline fill="#008C61" points="70.585,115.178 71.545,115.178 71.545,116.138 65.065,120.458 64.105,120.458 64.105,119.498 	"/>
	<polyline fill="#008C61" points="55.466,117.818 56.426,117.818 65.065,119.498 65.065,120.458 64.105,120.458 55.466,118.778 	"/>
	<polyline fill="#008C61" points="122.426,177.578 123.386,177.578 123.386,178.538 109.945,185.498 108.985,185.498 
		108.985,184.538 	"/>
	<polyline fill="#008C61" points="108.985,184.538 109.945,184.538 109.945,185.498 84.266,189.578 83.306,189.578 83.306,188.618 	
		"/>
	<polyline fill="#008C61" points="72.745,178.538 73.705,178.538 84.266,188.618 84.266,189.578 83.306,189.578 72.745,179.498 	"/>
	<polyline fill="#008C61" points="65.306,149.978 66.266,149.978 73.705,178.538 73.705,179.498 72.745,179.498 65.306,150.938 	"/>
	
		<line fill="none" stroke="#008C61" stroke-width="0.96" stroke-miterlimit="10" x1="77.065" y1="149.018" x2="77.065" y2="160.058"/>
	<polyline fill="#008C61" points="76.585,159.098 77.545,159.098 89.065,173.498 89.065,174.458 88.105,174.458 76.585,160.058 	"/>
	
		<line fill="none" stroke="#008C61" stroke-width="0.96" stroke-miterlimit="10" x1="88.105" y1="173.978" x2="101.785" y2="173.978"/>
	<polyline fill="#008C61" points="100.825,173.498 101.785,173.498 123.386,177.578 123.386,178.538 122.426,178.538 
		100.825,174.458 	"/>
	
		<line fill="none" stroke="#008C61" stroke-width="0.96" stroke-miterlimit="10" x1="65.785" y1="149.498" x2="65.785" y2="150.938"/>
	
		<line fill="none" stroke="#008C61" stroke-width="0.96" stroke-miterlimit="10" x1="65.785" y1="127.898" x2="65.785" y2="150.458"/>
	<polyline fill="#008C61" points="160.585,158.618 161.545,158.618 161.545,159.578 160.585,160.058 159.625,160.058 
		159.625,159.098 	"/>
	<polyline fill="#008C61" points="159.625,159.098 160.585,159.098 160.585,160.058 159.386,160.538 158.426,160.538 
		158.426,159.578 	"/>
	
		<line fill="none" stroke="#008C61" stroke-width="0.96" stroke-miterlimit="10" x1="157.466" y1="160.058" x2="159.386" y2="160.058"/>
	<polyline fill="#008C61" points="156.505,159.098 157.466,159.098 158.426,159.578 158.426,160.538 157.466,160.538 
		156.505,160.058 	"/>
	<polyline fill="#008C61" points="154.585,158.858 155.545,158.858 157.466,159.098 157.466,160.058 156.505,160.058 
		154.585,159.818 	"/>
	<polyline fill="#008C61" points="152.665,157.898 153.625,157.898 155.545,158.858 155.545,159.818 154.585,159.818 
		152.665,158.858 	"/>
	<polyline fill="#008C61" points="151.226,156.938 152.186,156.938 153.625,157.898 153.625,158.858 152.665,158.858 
		151.226,157.898 	"/>
	<polyline fill="#008C61" points="149.545,155.498 150.505,155.498 152.186,156.938 152.186,157.898 151.226,157.898 
		149.545,156.458 	"/>
	<polyline fill="#008C61" points="148.105,155.258 149.065,155.258 150.505,155.498 150.505,156.458 149.545,156.458 
		148.105,156.218 	"/>
	<polyline fill="#008C61" points="148.105,155.258 149.065,155.258 149.065,156.218 147.386,156.458 146.426,156.458 
		146.426,155.498 	"/>
	<polyline fill="#008C61" points="146.426,155.498 147.386,155.498 147.386,156.458 145.705,157.178 144.745,157.178 
		144.745,156.218 	"/>
	<polyline fill="#008C61" points="144.745,156.218 145.705,156.218 145.705,157.178 144.025,158.378 143.065,158.378 
		143.065,157.418 	"/>
	<polyline fill="#008C61" points="143.065,157.418 144.025,157.418 144.025,158.378 142.105,159.338 141.146,159.338 
		141.146,158.378 	"/>
	<polyline fill="#008C61" points="141.146,158.378 142.105,158.378 142.105,159.338 140.665,160.298 139.705,160.298 
		139.705,159.338 	"/>
	<polyline fill="#008C61" points="139.705,159.338 140.665,159.338 140.665,160.298 138.985,160.778 138.025,160.778 
		138.025,159.818 	"/>
	<polyline fill="#008C61" points="138.025,159.818 138.985,159.818 138.985,160.778 137.306,161.258 136.346,161.258 
		136.346,160.298 	"/>
	
		<line fill="none" stroke="#008C61" stroke-width="0.96" stroke-miterlimit="10" x1="134.905" y1="160.778" x2="137.306" y2="160.778"/>
	
		<line fill="none" stroke="#008C61" stroke-width="0.96" stroke-miterlimit="10" x1="133.466" y1="160.778" x2="135.865" y2="160.778"/>
	<polyline fill="#008C61" points="132.266,159.818 133.226,159.818 134.426,160.298 134.426,161.258 133.466,161.258 
		132.266,160.778 	"/>
	<polyline fill="#008C61" points="130.825,159.098 131.785,159.098 133.226,159.818 133.226,160.778 132.266,160.778 
		130.825,160.058 	"/>
	<polyline fill="#008C61" points="128.426,158.618 129.386,158.618 131.785,159.098 131.785,160.058 130.825,160.058 
		128.426,159.578 	"/>
	<polyline fill="#008C61" points="126.266,157.658 127.226,157.658 129.386,158.618 129.386,159.578 128.426,159.578 
		126.266,158.618 	"/>
	
		<line fill="none" stroke="#008C61" stroke-width="0.96" stroke-miterlimit="10" x1="118.825" y1="142.778" x2="118.825" y2="144.218"/>
	<polyline fill="#008C61" points="118.346,142.778 119.306,142.778 120.025,143.018 120.025,143.978 119.065,143.978 
		118.346,143.738 	"/>
	<polyline fill="#008C61" points="119.065,143.018 120.025,143.018 120.025,143.978 119.306,144.218 118.346,144.218 
		118.346,143.258 	"/>
	<polyline fill="#009E6F" points="141.386,110.378 142.346,110.378 142.346,111.338 142.105,112.538 141.146,112.538 
		141.146,111.578 	"/>
	<polyline fill="#009E6F" points="141.625,109.178 142.585,109.178 142.585,110.138 142.346,111.338 141.386,111.338 
		141.386,110.378 	"/>
	<polyline fill="#009E6F" points="141.386,106.778 142.346,106.778 142.585,109.178 142.585,110.138 141.625,110.138 
		141.386,107.738 	"/>
	<polyline fill="#009E6F" points="140.905,103.898 141.865,103.898 142.346,106.778 142.346,107.738 141.386,107.738 
		140.905,104.858 	"/>
	<polyline fill="#009E6F" points="139.466,101.258 140.426,101.258 141.865,103.898 141.865,104.858 140.905,104.858 
		139.466,102.218 	"/>
	<polyline fill="#009E6F" points="142.105,84.698 143.065,84.698 149.545,101.018 149.545,101.978 148.585,101.978 142.105,85.658 	
		"/>
	<polyline fill="#009E6F" points="128.905,79.178 129.865,79.178 143.065,84.698 143.065,85.658 142.105,85.658 128.905,80.138 	"/>
	<polyline fill="#009E6F" points="128.905,79.178 129.865,79.178 129.865,80.138 115.466,87.338 114.505,87.338 114.505,86.378 	"/>
	<polyline fill="#009E6F" points="118.346,96.458 119.306,96.458 119.306,97.418 114.985,98.138 114.025,98.138 114.025,97.178 	"/>
	<polyline fill="#009E6F" points="114.025,97.178 114.985,97.178 116.665,98.618 116.665,99.578 115.705,99.578 114.025,98.138 	"/>
	<polyline fill="#009E6F" points="115.705,98.618 116.665,98.618 118.105,100.058 118.105,101.018 117.146,101.018 115.705,99.578 	
		"/>
	<polyline fill="#009E6F" points="117.146,100.058 118.105,100.058 119.065,101.498 119.065,102.458 118.105,102.458 
		117.146,101.018 	"/>
	<polyline fill="#009E6F" points="118.105,101.498 119.065,101.498 120.025,102.698 120.025,103.658 119.065,103.658 
		118.105,102.458 	"/>
	<polyline fill="#009E6F" points="119.065,102.698 120.025,102.698 120.025,103.658 119.545,107.018 118.585,107.018 
		118.585,106.058 	"/>
	<polyline fill="#009E6F" points="118.585,106.058 119.545,106.058 119.545,107.018 118.825,110.138 117.865,110.138 
		117.865,109.178 	"/>
	<polyline fill="#009E6F" points="117.865,109.178 118.825,109.178 118.825,110.138 117.865,111.818 116.905,111.818 
		116.905,110.858 	"/>
	<polyline fill="#009E6F" points="116.905,110.858 117.865,110.858 117.865,111.818 116.905,113.738 115.945,113.738 
		115.945,112.778 	"/>
	<polyline fill="#009E6F" points="115.945,112.778 116.905,112.778 116.905,113.738 115.705,115.178 114.745,115.178 
		114.745,114.218 	"/>
	<polyline fill="#009E6F" points="114.745,114.218 115.705,114.218 115.705,115.178 114.025,116.618 113.065,116.618 
		113.065,115.658 	"/>
	<polyline fill="#009E6F" points="113.065,115.658 114.025,115.658 114.025,116.618 111.386,117.098 110.426,117.098 
		110.426,116.138 	"/>
	
		<line fill="none" stroke="#009E6F" stroke-width="0.96" stroke-miterlimit="10" x1="108.266" y1="116.618" x2="111.386" y2="116.618"/>
	<polyline fill="#009E6F" points="106.585,115.658 107.545,115.658 109.226,116.138 109.226,117.098 108.266,117.098 
		106.585,116.618 	"/>
	<polyline fill="#009E6F" points="105.386,114.938 106.346,114.938 107.545,115.658 107.545,116.618 106.585,116.618 
		105.386,115.898 	"/>
	<polyline fill="#009E6F" points="113.545,105.818 114.505,105.818 114.505,106.778 109.945,112.058 108.985,112.058 
		108.985,111.098 	"/>
	
		<line fill="none" stroke="#009E6F" stroke-width="0.96" stroke-miterlimit="10" x1="106.825" y1="111.578" x2="109.945" y2="111.578"/>
	<polyline fill="#009E6F" points="104.426,110.858 105.386,110.858 107.785,111.098 107.785,112.058 106.825,112.058 
		104.426,111.818 	"/>
	<polyline fill="#009E6F" points="102.266,110.138 103.226,110.138 105.386,110.858 105.386,111.818 104.426,111.818 
		102.266,111.098 	"/>
	<polyline fill="#009E6F" points="99.865,108.698 100.825,108.698 103.226,110.138 103.226,111.098 102.266,111.098 99.865,109.658 
			"/>
	
		<line fill="none" stroke="#009E6F" stroke-width="0.96" stroke-miterlimit="10" x1="100.346" y1="102.698" x2="100.346" y2="109.658"/>
	<polyline fill="#009E6F" points="102.025,99.818 102.985,99.818 102.985,100.778 100.825,103.658 99.865,103.658 99.865,102.698 	
		"/>
	<polyline fill="#009E6F" points="104.426,97.658 105.386,97.658 105.386,98.618 102.985,100.778 102.025,100.778 102.025,99.818 	
		"/>
	<polyline fill="#009E6F" points="107.306,95.738 108.266,95.738 108.266,96.698 105.386,98.618 104.426,98.618 104.426,97.658 	"/>
	<polyline fill="#009E6F" points="110.426,94.298 111.386,94.298 111.386,95.258 108.266,96.698 107.306,96.698 107.306,95.738 	"/>
	<polyline fill="#009E6F" points="110.426,94.298 111.386,94.298 113.306,95.738 113.306,96.698 112.346,96.698 110.426,95.258 	"/>
	<polyline fill="#009E6F" points="112.346,95.738 113.306,95.738 114.985,97.178 114.985,98.138 114.025,98.138 112.346,96.698 	"/>
	<polyline fill="#009E6F" points="89.545,102.218 90.505,102.218 90.745,106.058 90.745,107.018 89.785,107.018 89.545,103.178 	"/>
	<polyline fill="#009E6F" points="89.785,106.058 90.745,106.058 91.466,109.898 91.466,110.858 90.505,110.858 89.785,107.018 	"/>
	<polyline fill="#009E6F" points="87.625,112.538 88.585,112.538 91.705,115.898 91.705,116.858 90.745,116.858 87.625,113.498 	"/>
	<polyline fill="#009E6F" points="90.745,115.898 91.705,115.898 95.065,119.018 95.065,119.978 94.105,119.978 90.745,116.858 	"/>
	<polyline fill="#009E6F" points="117.865,119.018 118.825,119.018 118.825,119.978 115.945,121.178 114.985,121.178 
		114.985,120.218 	"/>
	<polyline fill="#009E6F" points="114.985,120.218 115.945,120.218 115.945,121.178 112.346,121.658 111.386,121.658 
		111.386,120.698 	"/>
	<polyline fill="#009E6F" points="111.386,120.698 112.346,120.698 112.346,121.658 108.745,122.138 107.785,122.138 
		107.785,121.178 	"/>
	
		<line fill="none" stroke="#009E6F" stroke-width="0.96" stroke-miterlimit="10" x1="103.945" y1="121.658" x2="108.745" y2="121.658"/>
	<polyline fill="#009E6F" points="95.785,113.498 96.745,113.498 104.905,121.178 104.905,122.138 103.945,122.138 95.785,114.458 	
		"/>
	<polyline fill="#009E6F" points="93.146,102.938 94.105,102.938 96.745,113.498 96.745,114.458 95.785,114.458 93.146,103.898 	"/>
	<polyline fill="#009E6F" points="90.505,109.898 91.466,109.898 92.186,112.298 92.186,113.258 91.226,113.258 90.505,110.858 	"/>
	<polyline fill="#009E6F" points="91.226,112.298 92.186,112.298 92.905,114.698 92.905,115.658 91.945,115.658 91.226,113.258 	"/>
	<polyline fill="#009E6F" points="91.945,114.698 92.905,114.698 95.065,119.018 95.065,119.978 94.105,119.978 91.945,115.658 	"/>
	<polyline fill="#009E6F" points="94.105,119.018 95.065,119.018 97.705,121.178 97.705,122.138 96.745,122.138 94.105,119.978 	"/>
	<polyline fill="#009E6F" points="96.745,121.178 97.705,121.178 100.585,123.098 100.585,124.058 99.625,124.058 96.745,122.138 	
		"/>
	<polyline fill="#009E6F" points="99.625,123.098 100.585,123.098 103.466,125.018 103.466,125.978 102.505,125.978 99.625,124.058 
			"/>
	<polyline fill="#009E6F" points="102.505,125.018 103.466,125.018 106.825,126.698 106.825,127.658 105.865,127.658 
		102.505,125.978 	"/>
	<polyline fill="#009E6F" points="105.865,126.698 106.825,126.698 111.865,127.898 111.865,128.858 110.905,128.858 
		105.865,127.658 	"/>
	<polyline fill="#009E6F" points="110.905,127.898 111.865,127.898 116.905,128.138 116.905,129.098 115.945,129.098 
		110.905,128.858 	"/>
	<polyline fill="#009E6F" points="120.985,127.898 121.945,127.898 121.945,128.858 116.905,129.098 115.945,129.098 
		115.945,128.138 	"/>
	<polyline fill="#009E6F" points="126.266,126.698 127.226,126.698 127.226,127.658 121.945,128.858 120.985,128.858 
		120.985,127.898 	"/>
	<polyline fill="#009E6F" points="128.665,124.298 129.625,124.298 129.625,125.258 127.226,127.658 126.266,127.658 
		126.266,126.698 	"/>
	<polyline fill="#009E6F" points="131.065,121.658 132.025,121.658 132.025,122.618 129.625,125.258 128.665,125.258 
		128.665,124.298 	"/>
	<polyline fill="#009E6F" points="132.985,118.778 133.945,118.778 133.945,119.738 132.025,122.618 131.065,122.618 
		131.065,121.658 	"/>
	<polyline fill="#009E6F" points="134.665,115.658 135.625,115.658 135.625,116.618 133.945,119.738 132.985,119.738 
		132.985,118.778 	"/>
	<polyline fill="#009E6F" points="136.346,112.298 137.306,112.298 137.306,113.258 135.625,116.618 134.665,116.618 
		134.665,115.658 	"/>
	<polyline fill="#009E6F" points="137.545,108.698 138.505,108.698 138.505,109.658 137.306,113.258 136.346,113.258 
		136.346,112.298 	"/>
	<polyline fill="#009E6F" points="138.505,105.098 139.466,105.098 139.466,106.058 138.505,109.658 137.545,109.658 
		137.545,108.698 	"/>
	<polyline fill="#009E6F" points="139.466,101.258 140.426,101.258 140.426,102.218 139.466,106.058 138.505,106.058 
		138.505,105.098 	"/>
	<polyline fill="#009E6F" points="114.505,86.378 115.466,86.378 115.466,87.338 101.306,94.538 100.346,94.538 100.346,93.578 	"/>
	<polyline fill="#009E6F" points="100.346,93.578 101.306,93.578 101.306,94.538 99.386,96.458 98.426,96.458 98.426,95.498 	"/>
	<polyline fill="#009E6F" points="98.426,95.498 99.386,95.498 99.386,96.458 96.505,100.058 95.545,100.058 95.545,99.098 	"/>
	<polyline fill="#009E6F" points="95.545,99.098 96.505,99.098 96.505,100.058 94.105,103.898 93.146,103.898 93.146,102.938 	"/>
	<polyline fill="#009E6F" points="93.146,102.938 94.105,102.938 94.105,103.898 92.665,107.258 91.705,107.258 91.705,106.298 	"/>
	<polyline fill="#009E6F" points="91.705,106.298 92.665,106.298 92.665,107.258 91.466,110.858 90.505,110.858 90.505,109.898 	"/>
	<polyline fill="#009E6F" points="138.025,97.658 138.985,97.658 140.426,101.258 140.426,102.218 139.466,102.218 138.025,98.618 	
		"/>
	<polyline fill="#009E6F" points="135.386,95.258 136.346,95.258 138.985,97.658 138.985,98.618 138.025,98.618 135.386,96.218 	"/>
	<polyline fill="#009E6F" points="132.745,92.858 133.705,92.858 136.346,95.258 136.346,96.218 135.386,96.218 132.745,93.818 	"/>
	<polyline fill="#009E6F" points="129.865,90.938 130.825,90.938 133.705,92.858 133.705,93.818 132.745,93.818 129.865,91.898 	"/>
	<polyline fill="#009E6F" points="126.985,89.258 127.945,89.258 130.825,90.938 130.825,91.898 129.865,91.898 126.985,90.218 	"/>
	<polyline fill="#009E6F" points="123.865,88.058 124.825,88.058 127.945,89.258 127.945,90.218 126.985,90.218 123.865,89.018 	"/>
	<polyline fill="#009E6F" points="120.985,87.098 121.945,87.098 124.825,88.058 124.825,89.018 123.865,89.018 120.985,88.058 	"/>
	<polyline fill="#009E6F" points="117.865,86.618 118.825,86.618 121.945,87.098 121.945,88.058 120.985,88.058 117.865,87.578 	"/>
	<polyline fill="#009E6F" points="114.505,86.378 115.466,86.378 118.825,86.618 118.825,87.578 117.865,87.578 114.505,87.338 	"/>
	<polyline fill="#009E6F" points="119.785,118.298 120.745,118.298 120.745,119.258 118.825,119.978 117.865,119.978 
		117.865,119.018 	"/>
	<polyline fill="#009E6F" points="121.466,117.338 122.426,117.338 122.426,118.298 120.745,119.258 119.785,119.258 
		119.785,118.298 	"/>
	<polyline fill="#009E6F" points="122.665,116.138 123.625,116.138 123.625,117.098 122.426,118.298 121.466,118.298 
		121.466,117.338 	"/>
	<polyline fill="#009E6F" points="123.865,114.698 124.825,114.698 124.825,115.658 123.625,117.098 122.665,117.098 
		122.665,116.138 	"/>
	<polyline fill="#009E6F" points="125.065,113.258 126.025,113.258 126.025,114.218 124.825,115.658 123.865,115.658 
		123.865,114.698 	"/>
	<polyline fill="#009E6F" points="126.025,111.338 126.985,111.338 126.985,112.298 126.025,114.218 125.065,114.218 
		125.065,113.258 	"/>
	<polyline fill="#009E6F" points="127.226,109.418 128.186,109.418 128.186,110.378 126.985,112.298 126.025,112.298 
		126.025,111.338 	"/>
	<polyline fill="#009E6F" points="128.186,107.018 129.146,107.018 129.146,107.978 128.186,110.378 127.226,110.378 
		127.226,109.418 	"/>
	<polyline fill="#009E6F" points="129.386,104.618 130.346,104.618 130.346,105.578 129.146,107.978 128.186,107.978 
		128.186,107.018 	"/>
	<polyline fill="#009E6F" points="130.346,101.978 131.306,101.978 131.306,102.938 130.346,105.578 129.386,105.578 
		129.386,104.618 	"/>
	<polyline fill="#009E6F" points="128.426,98.618 129.386,98.618 131.306,101.978 131.306,102.938 130.346,102.938 128.426,99.578 	
		"/>
	<polyline fill="#009E6F" points="118.346,96.458 119.306,96.458 129.386,98.618 129.386,99.578 128.426,99.578 118.346,97.418 	"/>
	<polyline fill="#009E6F" points="122.905,110.378 123.865,110.378 123.865,111.338 118.825,119.978 117.865,119.978 
		117.865,119.018 	"/>
	
		<line fill="none" stroke="#009E6F" stroke-width="0.96" stroke-miterlimit="10" x1="123.386" y1="102.698" x2="123.386" y2="111.338"/>
	<polyline fill="#009E6F" points="118.346,96.458 119.306,96.458 123.865,102.698 123.865,103.658 122.905,103.658 118.346,97.418 	
		"/>
	<polyline fill="#0C8764" points="96.025,89.738 96.985,89.738 96.985,90.698 96.025,93.578 95.065,93.578 95.065,92.618 	"/>
	<polyline fill="#0C8764" points="97.226,87.098 98.186,87.098 98.186,88.058 96.985,90.698 96.025,90.698 96.025,89.738 	"/>
	<polyline fill="#0C8764" points="98.905,84.458 99.865,84.458 99.865,85.418 98.186,88.058 97.226,88.058 97.226,87.098 	"/>
	<polyline fill="#0C8764" points="100.585,82.058 101.545,82.058 101.545,83.018 99.865,85.418 98.905,85.418 98.905,84.458 	"/>
	<polyline fill="#0C8764" points="102.745,79.658 103.705,79.658 103.705,80.618 101.545,83.018 100.585,83.018 100.585,82.058 	"/>
	<polyline fill="#0C8764" points="105.146,77.498 106.105,77.498 106.105,78.458 103.705,80.618 102.745,80.618 102.745,79.658 	"/>
	<polyline fill="#0C8764" points="107.785,75.338 108.745,75.338 108.745,76.298 106.105,78.458 105.146,78.458 105.146,77.498 	"/>
	<polyline fill="#0C8764" points="110.665,73.178 111.625,73.178 111.625,74.138 108.745,76.298 107.785,76.298 107.785,75.338 	"/>
	<polyline fill="#0C8764" points="114.505,71.738 115.466,71.738 115.466,72.698 111.625,74.138 110.665,74.138 110.665,73.178 	"/>
	<polyline fill="#0C8764" points="118.585,70.298 119.545,70.298 119.545,71.258 115.466,72.698 114.505,72.698 114.505,71.738 	"/>
	<polyline fill="#0C8764" points="123.146,69.578 124.105,69.578 124.105,70.538 119.545,71.258 118.585,71.258 118.585,70.298 	"/>
	<polyline fill="#0C8764" points="127.945,69.098 128.905,69.098 128.905,70.058 124.105,70.538 123.146,70.538 123.146,69.578 	"/>
</g>
</svg>
