<?xml version="1.0" encoding="utf-8"?>
<!-- Generator: Adobe Illustrator 16.0.0, SVG Export Plug-In . SVG Version: 6.00 Build 0)  -->
<!DOCTYPE svg PUBLIC "-//W3C//DTD SVG 1.1//EN" "http://www.w3.org/Graphics/SVG/1.1/DTD/svg11.dtd">
<svg version="1.1" id="Layer_1" xmlns="http://www.w3.org/2000/svg" xmlns:xlink="http://www.w3.org/1999/xlink" x="0px" y="0px"
	 width="109.405px" height="99.96px" viewBox="0 0 109.405 99.96" enable-background="new 0 0 109.405 99.96" xml:space="preserve">
<g>
	<polyline fill-rule="evenodd" clip-rule="evenodd" fill="#F80000" points="96.148,28.8 93.988,26.4 91.588,24.48 89.188,22.561 
		86.548,21.121 83.908,20.16 81.028,19.2 77.908,18.96 74.788,18.72 68.548,18.72 62.788,19.2 57.508,19.92 52.468,21.121 
		46.468,20.4 40.708,20.4 35.428,20.88 30.388,22.081 26.068,23.76 21.988,25.92 18.148,28.561 15.028,31.92 12.148,35.76 
		9.508,39.601 7.348,43.92 5.668,48 4.228,52.32 3.268,56.88 2.548,61.68 2.308,66.48 2.308,68.88 2.548,71.28 3.028,73.44 
		3.508,75.36 4.468,77.521 5.428,79.44 6.628,81.36 7.828,83.041 9.508,84.72 11.188,86.16 13.108,87.601 15.268,89.041 
		19.828,91.44 22.708,92.64 25.348,93.601 31.348,95.281 37.588,96.48 44.068,97.44 50.548,97.92 57.508,97.92 64.468,97.68 
		71.668,96.96 79.108,95.76 83.668,93.601 87.988,91.2 91.828,88.32 95.428,84.96 98.308,81.36 100.948,77.521 103.108,72.96 
		104.788,68.16 105.748,62.64 106.228,57.36 105.988,52.081 105.268,47.041 103.828,42.24 101.908,37.44 99.268,33.121 96.148,28.8 
			"/>
	<polyline fill="#AF0202" points="95.668,28.32 96.628,28.32 99.748,32.64 99.748,33.601 98.788,33.601 95.668,29.28 	"/>
	<polyline fill="#AF0202" points="98.788,32.64 99.748,32.64 102.388,36.96 102.388,37.92 101.428,37.92 98.788,33.601 	"/>
	<polyline fill="#AF0202" points="101.428,36.96 102.388,36.96 104.308,41.76 104.308,42.72 103.348,42.72 101.428,37.92 	"/>
	<polyline fill="#AF0202" points="103.348,41.76 104.308,41.76 105.748,46.561 105.748,47.521 104.788,47.521 103.348,42.72 	"/>
	<polyline fill="#AF0202" points="104.788,46.561 105.748,46.561 106.468,51.601 106.468,52.561 105.508,52.561 104.788,47.521 	"/>
	<polyline fill="#AF0202" points="105.508,51.601 106.468,51.601 106.708,56.88 106.708,57.84 105.748,57.84 105.508,52.561 	"/>
	<polyline fill="#AF0202" points="105.748,56.88 106.708,56.88 106.708,57.84 106.228,63.121 105.268,63.121 105.268,62.16 	"/>
	<polyline fill="#AF0202" points="105.268,62.16 106.228,62.16 106.228,63.121 105.268,68.64 104.308,68.64 104.308,67.68 	"/>
	<polyline fill="#AF0202" points="104.308,67.68 105.268,67.68 105.268,68.64 103.588,73.44 102.628,73.44 102.628,72.48 	"/>
	<polyline fill="#AF0202" points="102.628,72.48 103.588,72.48 103.588,73.44 101.428,78 100.468,78 100.468,77.041 	"/>
	<polyline fill="#AF0202" points="100.468,77.041 101.428,77.041 101.428,78 98.788,81.84 97.828,81.84 97.828,80.88 	"/>
	<polyline fill="#AF0202" points="97.828,80.88 98.788,80.88 98.788,81.84 95.908,85.44 94.948,85.44 94.948,84.48 	"/>
	<polyline fill="#AF0202" points="94.948,84.48 95.908,84.48 95.908,85.44 92.308,88.8 91.348,88.8 91.348,87.84 	"/>
	<polyline fill="#AF0202" points="91.348,87.84 92.308,87.84 92.308,88.8 88.468,91.68 87.508,91.68 87.508,90.72 	"/>
	<polyline fill="#AF0202" points="87.508,90.72 88.468,90.72 88.468,91.68 84.148,94.081 83.188,94.081 83.188,93.121 	"/>
	<polyline fill="#AF0202" points="83.188,93.121 84.148,93.121 84.148,94.081 79.588,96.241 78.628,96.241 78.628,95.281 	"/>
	<polyline fill="#AF0202" points="78.628,95.281 79.588,95.281 79.588,96.241 72.148,97.44 71.188,97.44 71.188,96.48 	"/>
	<polyline fill="#AF0202" points="71.188,96.48 72.148,96.48 72.148,97.44 64.948,98.161 63.988,98.161 63.988,97.201 	"/>
	<polyline fill="#AF0202" points="63.988,97.201 64.948,97.201 64.948,98.161 57.988,98.4 57.028,98.4 57.028,97.44 	"/>
	<line fill="none" stroke="#AF0202" stroke-width="0.96" stroke-miterlimit="10" x1="50.068" y1="97.92" x2="57.988" y2="97.92"/>
	<polyline fill="#AF0202" points="43.588,96.96 44.548,96.96 51.028,97.44 51.028,98.4 50.068,98.4 43.588,97.92 	"/>
	<polyline fill="#AF0202" points="37.108,96 38.068,96 44.548,96.96 44.548,97.92 43.588,97.92 37.108,96.96 	"/>
	<polyline fill="#AF0202" points="30.868,94.8 31.828,94.8 38.068,96 38.068,96.96 37.108,96.96 30.868,95.76 	"/>
	<polyline fill="#AF0202" points="24.868,93.121 25.828,93.121 31.828,94.8 31.828,95.76 30.868,95.76 24.868,94.081 	"/>
	<polyline fill="#AF0202" points="22.228,92.16 23.188,92.16 25.828,93.121 25.828,94.081 24.868,94.081 22.228,93.121 	"/>
	<polyline fill="#AF0202" points="19.348,90.96 20.308,90.96 23.188,92.16 23.188,93.121 22.228,93.121 19.348,91.92 	"/>
	<polyline fill="#AF0202" points="14.788,88.561 15.748,88.561 20.308,90.96 20.308,91.92 19.348,91.92 14.788,89.521 	"/>
	<polyline fill="#AF0202" points="12.628,87.121 13.588,87.121 15.748,88.561 15.748,89.521 14.788,89.521 12.628,88.081 	"/>
	<polyline fill="#AF0202" points="10.708,85.68 11.668,85.68 13.588,87.121 13.588,88.081 12.628,88.081 10.708,86.64 	"/>
	<polyline fill="#AF0202" points="9.028,84.24 9.988,84.24 11.668,85.68 11.668,86.64 10.708,86.64 9.028,85.2 	"/>
	<polyline fill="#AF0202" points="7.348,82.561 8.308,82.561 9.988,84.24 9.988,85.2 9.028,85.2 7.348,83.521 	"/>
	<polyline fill="#AF0202" points="6.148,80.88 7.108,80.88 8.308,82.561 8.308,83.521 7.348,83.521 6.148,81.84 	"/>
	<polyline fill="#AF0202" points="4.948,78.96 5.908,78.96 7.108,80.88 7.108,81.84 6.148,81.84 4.948,79.92 	"/>
	<polyline fill="#AF0202" points="3.988,77.041 4.948,77.041 5.908,78.96 5.908,79.92 4.948,79.92 3.988,78 	"/>
	<polyline fill="#AF0202" points="3.028,74.88 3.988,74.88 4.948,77.041 4.948,78 3.988,78 3.028,75.84 	"/>
	<polyline fill="#AF0202" points="2.548,72.96 3.508,72.96 3.988,74.88 3.988,75.84 3.028,75.84 2.548,73.92 	"/>
	<polyline fill="#AF0202" points="2.068,70.8 3.028,70.8 3.508,72.96 3.508,73.92 2.548,73.92 2.068,71.76 	"/>
	<polyline fill="#AF0202" points="1.828,68.4 2.788,68.4 3.028,70.8 3.028,71.76 2.068,71.76 1.828,69.36 	"/>
	<line fill="none" stroke="#AF0202" stroke-width="0.96" stroke-miterlimit="10" x1="2.308" y1="66" x2="2.308" y2="69.36"/>
	<polyline fill="#AF0202" points="2.068,61.2 3.028,61.2 3.028,62.16 2.788,66.96 1.828,66.96 1.828,66 	"/>
	<polyline fill="#AF0202" points="2.788,56.4 3.748,56.4 3.748,57.36 3.028,62.16 2.068,62.16 2.068,61.2 	"/>
	<polyline fill="#AF0202" points="3.748,51.84 4.708,51.84 4.708,52.8 3.748,57.36 2.788,57.36 2.788,56.4 	"/>
	<polyline fill="#AF0202" points="5.188,47.521 6.148,47.521 6.148,48.48 4.708,52.8 3.748,52.8 3.748,51.84 	"/>
	<polyline fill="#AF0202" points="6.868,43.44 7.828,43.44 7.828,44.4 6.148,48.48 5.188,48.48 5.188,47.521 	"/>
	<polyline fill="#AF0202" points="9.028,39.121 9.988,39.121 9.988,40.081 7.828,44.4 6.868,44.4 6.868,43.44 	"/>
	<polyline fill="#AF0202" points="11.668,35.28 12.628,35.28 12.628,36.24 9.988,40.081 9.028,40.081 9.028,39.121 	"/>
	<polyline fill="#AF0202" points="14.548,31.44 15.508,31.44 15.508,32.4 12.628,36.24 11.668,36.24 11.668,35.28 	"/>
	<polyline fill="#AF0202" points="17.668,28.081 18.628,28.081 18.628,29.041 15.508,32.4 14.548,32.4 14.548,31.44 	"/>
	<polyline fill="#AF0202" points="21.508,25.44 22.468,25.44 22.468,26.4 18.628,29.041 17.668,29.041 17.668,28.081 	"/>
	<polyline fill="#AF0202" points="25.588,23.28 26.548,23.28 26.548,24.24 22.468,26.4 21.508,26.4 21.508,25.44 	"/>
	<polyline fill="#AF0202" points="29.908,21.601 30.868,21.601 30.868,22.561 26.548,24.24 25.588,24.24 25.588,23.28 	"/>
	<polyline fill="#AF0202" points="34.948,20.4 35.908,20.4 35.908,21.36 30.868,22.561 29.908,22.561 29.908,21.601 	"/>
	<polyline fill="#AF0202" points="40.228,19.92 41.188,19.92 41.188,20.88 35.908,21.36 34.948,21.36 34.948,20.4 	"/>
	<line fill="none" stroke="#AF0202" stroke-width="0.96" stroke-miterlimit="10" x1="40.228" y1="20.4" x2="46.948" y2="20.4"/>
	<polyline fill="#AF0202" points="45.988,19.92 46.948,19.92 52.948,20.64 52.948,21.601 51.988,21.601 45.988,20.88 	"/>
	<polyline fill="#AF0202" points="57.028,19.44 57.988,19.44 57.988,20.4 52.948,21.601 51.988,21.601 51.988,20.64 	"/>
	<polyline fill="#AF0202" points="62.308,18.72 63.268,18.72 63.268,19.68 57.988,20.4 57.028,20.4 57.028,19.44 	"/>
	<polyline fill="#AF0202" points="68.068,18.24 69.028,18.24 69.028,19.2 63.268,19.68 62.308,19.68 62.308,18.72 	"/>
	<line fill="none" stroke="#AF0202" stroke-width="0.96" stroke-miterlimit="10" x1="68.068" y1="18.72" x2="75.268" y2="18.72"/>
	<polyline fill="#AF0202" points="74.308,18.24 75.268,18.24 78.388,18.48 78.388,19.44 77.428,19.44 74.308,19.2 	"/>
	<polyline fill="#AF0202" points="77.428,18.48 78.388,18.48 81.508,18.72 81.508,19.68 80.548,19.68 77.428,19.44 	"/>
	<polyline fill="#AF0202" points="80.548,18.72 81.508,18.72 84.388,19.68 84.388,20.64 83.428,20.64 80.548,19.68 	"/>
	<polyline fill="#AF0202" points="83.428,19.68 84.388,19.68 87.028,20.64 87.028,21.601 86.068,21.601 83.428,20.64 	"/>
	<polyline fill="#AF0202" points="86.068,20.64 87.028,20.64 89.668,22.081 89.668,23.041 88.708,23.041 86.068,21.601 	"/>
	<polyline fill="#AF0202" points="88.708,22.081 89.668,22.081 92.068,24 92.068,24.96 91.108,24.96 88.708,23.041 	"/>
	<polyline fill="#AF0202" points="91.108,24 92.068,24 94.468,25.92 94.468,26.88 93.508,26.88 91.108,24.96 	"/>
	<polyline fill="#AF0202" points="93.508,25.92 94.468,25.92 96.628,28.32 96.628,29.28 95.668,29.28 93.508,26.88 	"/>
	<polyline fill="#B10000" points="39.268,24.72 40.228,24.72 40.228,25.68 34.468,26.4 33.508,26.4 33.508,25.44 	"/>
	<polyline fill="#B10000" points="44.788,24.24 45.748,24.24 45.748,25.2 40.228,25.68 39.268,25.68 39.268,24.72 	"/>
	<polyline fill="#B10000" points="44.788,24.24 45.748,24.24 50.788,24.72 50.788,25.68 49.828,25.68 44.788,25.2 	"/>
	<polyline fill="#B10000" points="49.828,24.72 50.788,24.72 55.588,25.44 55.588,26.4 54.628,26.4 49.828,25.68 	"/>
	<polyline fill="#B10000" points="57.268,24.24 58.228,24.24 58.228,25.2 55.588,26.4 54.628,26.4 54.628,25.44 	"/>
	<polyline fill="#B10000" points="59.908,23.28 60.868,23.28 60.868,24.24 58.228,25.2 57.268,25.2 57.268,24.24 	"/>
	<polyline fill="#B10000" points="62.548,22.561 63.508,22.561 63.508,23.521 60.868,24.24 59.908,24.24 59.908,23.28 	"/>
	<polyline fill="#B10000" points="64.708,22.081 65.668,22.081 65.668,23.041 63.508,23.521 62.548,23.521 62.548,22.561 	"/>
	<polyline fill="#B10000" points="67.108,21.601 68.068,21.601 68.068,22.561 65.668,23.041 64.708,23.041 64.708,22.081 	"/>
	<line fill="none" stroke="#B10000" stroke-width="0.96" stroke-miterlimit="10" x1="67.108" y1="22.081" x2="69.988" y2="22.081"/>
	<line fill="none" stroke="#B10000" stroke-width="0.96" stroke-miterlimit="10" x1="69.028" y1="22.081" x2="72.148" y2="22.081"/>
	<polyline fill="#B10000" points="71.188,21.601 72.148,21.601 73.828,22.081 73.828,23.041 72.868,23.041 71.188,22.561 	"/>
	<polyline fill-rule="evenodd" clip-rule="evenodd" fill="#25CC97" points="45.748,26.4 45.748,29.28 45.748,31.68 45.748,34.081 
		46.228,35.76 47.908,33.601 49.828,31.2 51.748,29.041 54.148,26.88 57.268,27.36 60.388,28.081 63.508,29.28 66.628,30.48 
		66.148,29.041 65.188,27.36 63.988,25.92 62.548,24.48 58.468,22.561 62.548,24.48 66.868,24 70.708,23.521 66.628,21.601 
		62.308,19.92 60.868,19.92 59.428,19.92 58.468,20.16 57.508,20.64 58.468,20.16 59.428,19.92 60.868,19.92 62.308,19.92 
		64.708,19.2 67.588,18 65.908,17.521 64.228,17.28 60.628,17.521 57.508,18.24 54.148,19.92 52.228,19.44 50.308,18.96 
		48.148,18.72 45.748,18.96 43.588,19.44 41.428,20.4 39.028,21.36 36.388,22.8 44.068,22.8 40.228,25.2 38.548,26.64 37.108,28.32 
		41.428,26.88 45.748,26.4 45.748,25.68 45.988,24.96 46.468,24 46.948,23.28 46.468,24 45.988,24.96 45.748,25.68 45.748,26.4 	"/>
	<polyline fill="#0C8764" points="46.468,22.8 47.428,22.8 47.428,23.76 46.948,24.48 45.988,24.48 45.988,23.521 	"/>
	<polyline fill="#0C8764" points="45.988,23.521 46.948,23.521 46.948,24.48 46.468,25.44 45.508,25.44 45.508,24.48 	"/>
	<polyline fill="#0C8764" points="45.508,24.48 46.468,24.48 46.468,25.44 46.228,26.16 45.268,26.16 45.268,25.2 	"/>
	<line fill="none" stroke="#0C8764" stroke-width="0.96" stroke-miterlimit="10" x1="45.748" y1="25.2" x2="45.748" y2="26.88"/>
	<polyline fill="#0C8764" points="57.988,19.68 58.948,19.68 58.948,20.64 57.988,21.121 57.028,21.121 57.028,20.16 	"/>
	<polyline fill="#0C8764" points="58.948,19.44 59.908,19.44 59.908,20.4 58.948,20.64 57.988,20.64 57.988,19.68 	"/>
	<line fill="none" stroke="#0C8764" stroke-width="0.96" stroke-miterlimit="10" x1="58.948" y1="19.92" x2="61.348" y2="19.92"/>
	<line fill="none" stroke="#0C8764" stroke-width="0.96" stroke-miterlimit="10" x1="60.388" y1="19.92" x2="62.788" y2="19.92"/>
	<polyline fill="#0C8764" points="57.988,22.081 58.948,22.081 63.028,24 63.028,24.96 62.068,24.96 57.988,23.041 	"/>
	<polyline fill="#198665" points="45.268,25.92 46.228,25.92 46.228,26.88 41.908,27.36 40.948,27.36 40.948,26.4 	"/>
	<polyline fill="#198665" points="40.948,26.4 41.908,26.4 41.908,27.36 37.588,28.8 36.628,28.8 36.628,27.84 	"/>
	<polyline fill="#198665" points="38.068,26.16 39.028,26.16 39.028,27.121 37.588,28.8 36.628,28.8 36.628,27.84 	"/>
	<polyline fill="#198665" points="39.748,24.72 40.708,24.72 40.708,25.68 39.028,27.121 38.068,27.121 38.068,26.16 	"/>
	<polyline fill="#198665" points="43.588,22.32 44.548,22.32 44.548,23.28 40.708,25.68 39.748,25.68 39.748,24.72 	"/>
	<line fill="none" stroke="#198665" stroke-width="0.96" stroke-miterlimit="10" x1="35.908" y1="22.8" x2="44.548" y2="22.8"/>
	<polyline fill="#198665" points="38.548,20.88 39.508,20.88 39.508,21.84 36.868,23.28 35.908,23.28 35.908,22.32 	"/>
	<polyline fill="#198665" points="40.948,19.92 41.908,19.92 41.908,20.88 39.508,21.84 38.548,21.84 38.548,20.88 	"/>
	<polyline fill="#198665" points="43.108,18.96 44.068,18.96 44.068,19.92 41.908,20.88 40.948,20.88 40.948,19.92 	"/>
	<polyline fill="#198665" points="45.268,18.48 46.228,18.48 46.228,19.44 44.068,19.92 43.108,19.92 43.108,18.96 	"/>
	<polyline fill="#198665" points="47.668,18.24 48.628,18.24 48.628,19.2 46.228,19.44 45.268,19.44 45.268,18.48 	"/>
	<polyline fill="#198665" points="47.668,18.24 48.628,18.24 50.788,18.48 50.788,19.44 49.828,19.44 47.668,19.2 	"/>
	<polyline fill="#198665" points="49.828,18.48 50.788,18.48 52.708,18.96 52.708,19.92 51.748,19.92 49.828,19.44 	"/>
	<polyline fill="#198665" points="51.748,18.96 52.708,18.96 54.628,19.44 54.628,20.4 53.668,20.4 51.748,19.92 	"/>
	<polyline fill="#198665" points="57.028,17.76 57.988,17.76 57.988,18.72 54.628,20.4 53.668,20.4 53.668,19.44 	"/>
	<polyline fill="#198665" points="60.148,17.041 61.108,17.041 61.108,18 57.988,18.72 57.028,18.72 57.028,17.76 	"/>
	<polyline fill="#198665" points="63.748,16.8 64.708,16.8 64.708,17.76 61.108,18 60.148,18 60.148,17.041 	"/>
	<polyline fill="#198665" points="63.748,16.8 64.708,16.8 66.388,17.041 66.388,18 65.428,18 63.748,17.76 	"/>
	<polyline fill="#198665" points="65.428,17.041 66.388,17.041 68.068,17.521 68.068,18.48 67.108,18.48 65.428,18 	"/>
	<polyline fill="#198665" points="67.108,17.521 68.068,17.521 68.068,18.48 65.188,19.68 64.228,19.68 64.228,18.72 	"/>
	<polyline fill="#198665" points="64.228,18.72 65.188,18.72 65.188,19.68 62.788,20.4 61.828,20.4 61.828,19.44 	"/>
	<polyline fill="#198665" points="61.828,19.44 62.788,19.44 67.108,21.121 67.108,22.081 66.148,22.081 61.828,20.4 	"/>
	<polyline fill="#198665" points="66.148,21.121 67.108,21.121 71.188,23.041 71.188,24 70.228,24 66.148,22.081 	"/>
	<polyline fill="#198665" points="70.228,23.041 71.188,23.041 71.188,24 67.348,24.48 66.388,24.48 66.388,23.521 	"/>
	<polyline fill="#198665" points="66.388,23.521 67.348,23.521 67.348,24.48 63.028,24.96 62.068,24.96 62.068,24 	"/>
	<polyline fill="#198665" points="62.068,24 63.028,24 64.468,25.44 64.468,26.4 63.508,26.4 62.068,24.96 	"/>
	<polyline fill="#198665" points="63.508,25.44 64.468,25.44 65.668,26.88 65.668,27.84 64.708,27.84 63.508,26.4 	"/>
	<polyline fill="#198665" points="64.708,26.88 65.668,26.88 66.628,28.561 66.628,29.521 65.668,29.521 64.708,27.84 	"/>
	<polyline fill="#198665" points="65.668,28.561 66.628,28.561 67.108,30 67.108,30.96 66.148,30.96 65.668,29.521 	"/>
	<polyline fill="#198665" points="63.028,28.8 63.988,28.8 67.108,30 67.108,30.96 66.148,30.96 63.028,29.76 	"/>
	<polyline fill="#198665" points="59.908,27.601 60.868,27.601 63.988,28.8 63.988,29.76 63.028,29.76 59.908,28.561 	"/>
	<polyline fill="#198665" points="56.788,26.88 57.748,26.88 60.868,27.601 60.868,28.561 59.908,28.561 56.788,27.84 	"/>
	<polyline fill="#198665" points="53.668,26.4 54.628,26.4 57.748,26.88 57.748,27.84 56.788,27.84 53.668,27.36 	"/>
	<polyline fill="#198665" points="53.668,26.4 54.628,26.4 54.628,27.36 52.228,29.521 51.268,29.521 51.268,28.561 	"/>
	<polyline fill="#198665" points="51.268,28.561 52.228,28.561 52.228,29.521 50.308,31.68 49.348,31.68 49.348,30.72 	"/>
	<polyline fill="#198665" points="49.348,30.72 50.308,30.72 50.308,31.68 48.388,34.081 47.428,34.081 47.428,33.121 	"/>
	<polyline fill="#198665" points="47.428,33.121 48.388,33.121 48.388,34.081 46.708,36.24 45.748,36.24 45.748,35.28 	"/>
	<polyline fill="#198665" points="45.268,33.601 46.228,33.601 46.708,35.28 46.708,36.24 45.748,36.24 45.268,34.561 	"/>
	<line fill="none" stroke="#198665" stroke-width="0.96" stroke-miterlimit="10" x1="45.748" y1="31.2" x2="45.748" y2="34.561"/>
	<line fill="none" stroke="#198665" stroke-width="0.96" stroke-miterlimit="10" x1="45.748" y1="28.8" x2="45.748" y2="32.16"/>
	<line fill="none" stroke="#198665" stroke-width="0.96" stroke-miterlimit="10" x1="45.748" y1="25.92" x2="45.748" y2="29.76"/>
	<polyline fill-rule="evenodd" clip-rule="evenodd" fill="#33CB98" points="48.628,4.561 50.308,7.68 51.508,11.28 51.988,13.44 
		52.228,15.84 52.468,18.48 52.468,21.121 55.108,20.88 55.348,18 55.588,15.121 55.588,12.48 55.588,10.081 55.348,8.16 55.348,6 
		55.108,4.32 54.628,2.88 52.468,2.161 50.788,2.4 49.588,3.121 48.628,4.561 	"/>
	<line fill="none" stroke="#198665" stroke-width="0.96" stroke-miterlimit="10" x1="52.468" y1="18" x2="52.468" y2="21.601"/>
	<polyline fill="#198665" points="51.748,15.36 52.708,15.36 52.948,18 52.948,18.96 51.988,18.96 51.748,16.32 	"/>
	<polyline fill="#198665" points="51.508,12.96 52.468,12.96 52.708,15.36 52.708,16.32 51.748,16.32 51.508,13.92 	"/>
	<polyline fill="#198665" points="51.028,10.8 51.988,10.8 52.468,12.96 52.468,13.92 51.508,13.92 51.028,11.76 	"/>
	<polyline fill="#198665" points="49.828,7.2 50.788,7.2 51.988,10.8 51.988,11.76 51.028,11.76 49.828,8.16 	"/>
	<polyline fill="#198665" points="48.148,4.081 49.108,4.081 50.788,7.2 50.788,8.16 49.828,8.16 48.148,5.041 	"/>
	<polyline fill="#198665" points="49.108,2.64 50.068,2.64 50.068,3.601 49.108,5.041 48.148,5.041 48.148,4.081 	"/>
	<polyline fill="#198665" points="50.308,1.92 51.268,1.92 51.268,2.88 50.068,3.601 49.108,3.601 49.108,2.64 	"/>
	<polyline fill="#198665" points="51.988,1.68 52.948,1.68 52.948,2.64 51.268,2.88 50.308,2.88 50.308,1.92 	"/>
	<polyline fill="#198665" points="51.988,1.68 52.948,1.68 55.108,2.4 55.108,3.36 54.148,3.36 51.988,2.64 	"/>
	<polyline fill="#198665" points="54.148,2.4 55.108,2.4 55.588,3.84 55.588,4.8 54.628,4.8 54.148,3.36 	"/>
	<polyline fill="#198665" points="54.628,3.84 55.588,3.84 55.828,5.521 55.828,6.48 54.868,6.48 54.628,4.8 	"/>
	<line fill="none" stroke="#198665" stroke-width="0.96" stroke-miterlimit="10" x1="55.348" y1="5.521" x2="55.348" y2="8.64"/>
	<polyline fill="#198665" points="54.868,7.68 55.828,7.68 56.068,9.601 56.068,10.561 55.108,10.561 54.868,8.64 	"/>
	<line fill="none" stroke="#198665" stroke-width="0.96" stroke-miterlimit="10" x1="55.588" y1="9.601" x2="55.588" y2="12.96"/>
	<line fill="none" stroke="#198665" stroke-width="0.96" stroke-miterlimit="10" x1="55.588" y1="12" x2="55.588" y2="15.601"/>
	<polyline fill="#198665" points="55.108,14.64 56.068,14.64 56.068,15.601 55.828,18.48 54.868,18.48 54.868,17.521 	"/>
	<polyline fill="#198665" points="54.868,17.521 55.828,17.521 55.828,18.48 55.588,21.36 54.628,21.36 54.628,20.4 	"/>
</g>
</svg>
